%TF.GenerationSoftware,KiCad,Pcbnew,10.0.4*%
%TF.CreationDate,2026-07-16T23:23:22-05:00*%
%TF.ProjectId,GrowChamberPCB,47726f77-4368-4616-9d62-65725043422e,rev?*%
%TF.SameCoordinates,Original*%
%TF.FileFunction,Soldermask,Top*%
%TF.FilePolarity,Negative*%
%FSLAX46Y46*%
G04 Gerber Fmt 4.6, Leading zero omitted, Abs format (unit mm)*
G04 Created by KiCad (PCBNEW 10.0.4) date 2026-07-16 23:23:22*
%MOMM*%
%LPD*%
G01*
G04 APERTURE LIST*
G04 Aperture macros list*
%AMRoundRect*
0 Rectangle with rounded corners*
0 $1 Rounding radius*
0 $2 $3 $4 $5 $6 $7 $8 $9 X,Y pos of 4 corners*
0 Add a 4 corners polygon primitive as box body*
4,1,4,$2,$3,$4,$5,$6,$7,$8,$9,$2,$3,0*
0 Add four circle primitives for the rounded corners*
1,1,$1+$1,$2,$3*
1,1,$1+$1,$4,$5*
1,1,$1+$1,$6,$7*
1,1,$1+$1,$8,$9*
0 Add four rect primitives between the rounded corners*
20,1,$1+$1,$2,$3,$4,$5,0*
20,1,$1+$1,$4,$5,$6,$7,0*
20,1,$1+$1,$6,$7,$8,$9,0*
20,1,$1+$1,$8,$9,$2,$3,0*%
G04 Aperture macros list end*
%ADD10C,2.000000*%
%ADD11R,1.377000X1.133000*%
%ADD12C,0.800000*%
%ADD13C,6.400000*%
%ADD14R,1.133000X1.377000*%
%ADD15R,1.072000X0.532000*%
%ADD16R,1.200000X1.200000*%
%ADD17RoundRect,0.250000X-0.845000X0.620000X-0.845000X-0.620000X0.845000X-0.620000X0.845000X0.620000X0*%
%ADD18O,2.190000X1.740000*%
%ADD19R,0.800000X0.900000*%
%ADD20R,0.532000X1.072000*%
%ADD21R,0.864000X0.806000*%
%ADD22R,1.700000X1.700000*%
%ADD23C,1.700000*%
%ADD24R,0.806000X0.864000*%
%ADD25R,0.650000X1.000000*%
%ADD26O,1.600000X1.300000*%
%ADD27O,2.000000X3.000000*%
%ADD28C,1.800000*%
%ADD29R,1.350000X1.410000*%
%ADD30R,1.500000X1.500000*%
%ADD31C,1.500000*%
%ADD32C,0.700000*%
%ADD33O,2.000000X1.100000*%
%ADD34O,1.800000X1.200000*%
%ADD35R,1.100000X0.550000*%
%ADD36R,1.100000X0.300000*%
%ADD37R,2.400000X3.200000*%
%ADD38C,1.600000*%
%ADD39R,0.900000X0.800000*%
%ADD40R,1.728000X1.485000*%
%ADD41R,0.830000X0.630000*%
%ADD42O,0.630000X2.250000*%
%ADD43R,2.000000X2.000000*%
%ADD44R,0.540000X0.500000*%
%ADD45O,1.300000X1.600000*%
%ADD46O,3.000000X2.000000*%
%ADD47R,1.860000X1.230000*%
%ADD48R,1.410000X1.350000*%
%ADD49O,2.045000X0.588000*%
%ADD50R,1.500000X0.900000*%
%ADD51R,0.900000X1.500000*%
%ADD52R,0.900000X0.900000*%
%ADD53R,0.500000X0.540000*%
%ADD54R,1.300000X0.600000*%
%ADD55R,2.500000X3.500000*%
G04 APERTURE END LIST*
D10*
%TO.C,J36*%
X86464625Y-57712627D03*
%TD*%
D11*
%TO.C,R54*%
X87730000Y-111670000D03*
X87730000Y-113670000D03*
%TD*%
D12*
%TO.C,H1*%
X129034625Y-131000000D03*
X129737569Y-129302944D03*
X129737569Y-132697056D03*
X131434625Y-128600000D03*
D13*
X131434625Y-131000000D03*
D12*
X131434625Y-133400000D03*
X133131681Y-129302944D03*
X133131681Y-132697056D03*
X133834625Y-131000000D03*
%TD*%
D14*
%TO.C,R63*%
X157590000Y-88110000D03*
X155590000Y-88110000D03*
%TD*%
D15*
%TO.C,U13*%
X151750000Y-60400000D03*
X151750000Y-59450000D03*
X151750000Y-58500000D03*
X149450000Y-58500000D03*
X149450000Y-59450000D03*
X149450000Y-60400000D03*
%TD*%
D16*
%TO.C,D31*%
X80730023Y-77594648D03*
X83990023Y-77594648D03*
%TD*%
D17*
%TO.C,J1*%
X141990000Y-41245000D03*
D18*
X141990000Y-43785000D03*
%TD*%
D10*
%TO.C,J44*%
X120834625Y-116780000D03*
%TD*%
D19*
%TO.C,C8*%
X105730000Y-83060000D03*
X104330000Y-83060000D03*
%TD*%
D20*
%TO.C,U15*%
X149450000Y-71150000D03*
X150400000Y-71150000D03*
X151350000Y-71150000D03*
X151350000Y-68850000D03*
X150400000Y-68850000D03*
X149450000Y-68850000D03*
%TD*%
D21*
%TO.C,R15*%
X83934625Y-105830000D03*
X83934625Y-107330000D03*
%TD*%
D10*
%TO.C,J42*%
X113834625Y-128280000D03*
%TD*%
D22*
%TO.C,J48*%
X71884625Y-109740000D03*
D23*
X71884625Y-107200000D03*
X71884625Y-104660000D03*
X71884625Y-102120000D03*
X71884625Y-99580000D03*
X71884625Y-97040000D03*
X71884625Y-94500000D03*
X71884625Y-91960000D03*
X71884625Y-89420000D03*
%TD*%
D16*
%TO.C,D6*%
X143180000Y-37920000D03*
X139920000Y-37920000D03*
%TD*%
D24*
%TO.C,R11*%
X88254625Y-124440000D03*
X89754625Y-124440000D03*
%TD*%
D25*
%TO.C,Q7*%
X81414625Y-68512627D03*
X83314625Y-68512627D03*
X82364625Y-66512627D03*
%TD*%
D26*
%TO.C,SW5*%
X159410000Y-100650000D03*
X161400000Y-100650000D03*
X163410000Y-100650000D03*
D27*
X165510000Y-100650000D03*
X157310000Y-100650000D03*
%TD*%
D24*
%TO.C,R16*%
X159600000Y-37800000D03*
X161100000Y-37800000D03*
%TD*%
D12*
%TO.C,H3*%
X72334625Y-131000000D03*
X73037569Y-129302944D03*
X73037569Y-132697056D03*
X74734625Y-128600000D03*
D13*
X74734625Y-131000000D03*
D12*
X74734625Y-133400000D03*
X76431681Y-129302944D03*
X76431681Y-132697056D03*
X77134625Y-131000000D03*
%TD*%
D14*
%TO.C,R55*%
X106020000Y-110780000D03*
X108020000Y-110780000D03*
%TD*%
D28*
%TO.C,RLY1*%
X109856981Y-58480000D03*
D10*
X109856981Y-46980000D03*
X109856981Y-39980000D03*
D28*
X105156981Y-58480000D03*
%TD*%
D11*
%TO.C,R41*%
X83330000Y-59380000D03*
X83330000Y-57380000D03*
%TD*%
D24*
%TO.C,R37*%
X149850000Y-92000000D03*
X151350000Y-92000000D03*
%TD*%
D16*
%TO.C,D27*%
X80734625Y-64512627D03*
X83994625Y-64512627D03*
%TD*%
D17*
%TO.C,J12*%
X142200000Y-64200000D03*
D18*
X142200000Y-66740000D03*
X142200000Y-69280000D03*
%TD*%
D16*
%TO.C,D8*%
X162200000Y-117570000D03*
X162200000Y-120830000D03*
%TD*%
D29*
%TO.C,C12*%
X120134625Y-75180000D03*
X120134625Y-73180000D03*
%TD*%
D17*
%TO.C,J10*%
X151980000Y-81725000D03*
D18*
X151980000Y-84265000D03*
%TD*%
D30*
%TO.C,U4*%
X130780000Y-101260000D03*
D31*
X130780000Y-103800000D03*
X128240000Y-101260000D03*
X128240000Y-103800000D03*
X125700000Y-101260000D03*
X125700000Y-103800000D03*
X123160000Y-101260000D03*
X123160000Y-103800000D03*
X120620000Y-101260000D03*
X120620000Y-103800000D03*
X118080000Y-101260000D03*
X118080000Y-103800000D03*
X115540000Y-101260000D03*
X115540000Y-103800000D03*
X113000000Y-101260000D03*
X113000000Y-103800000D03*
X110460000Y-101260000D03*
X110460000Y-103800000D03*
X107920000Y-101260000D03*
X107920000Y-103800000D03*
X105380000Y-101260000D03*
X105380000Y-103800000D03*
X102840000Y-101260000D03*
X102840000Y-103800000D03*
X100300000Y-101260000D03*
X100300000Y-103800000D03*
%TD*%
D26*
%TO.C,SW4*%
X159600000Y-91450000D03*
X161590000Y-91450000D03*
X163600000Y-91450000D03*
D27*
X165700000Y-91450000D03*
X157500000Y-91450000D03*
%TD*%
D32*
%TO.C,USB1*%
X76067125Y-115745000D03*
X76067125Y-121525000D03*
D33*
X76597125Y-114315000D03*
D34*
X72387125Y-114315000D03*
D33*
X76597125Y-122955000D03*
D34*
X72387125Y-122955000D03*
D35*
X77147125Y-115435000D03*
X77147125Y-116235000D03*
D36*
X77147125Y-117385000D03*
X77147125Y-118385000D03*
X77147125Y-118885000D03*
X77147125Y-119885000D03*
D35*
X77147125Y-121835000D03*
X77147125Y-121035000D03*
D36*
X77147125Y-120385000D03*
X77147125Y-119385000D03*
X77147125Y-117885000D03*
X77147125Y-116885000D03*
%TD*%
D17*
%TO.C,J5*%
X142200000Y-101550000D03*
D18*
X142200000Y-104090000D03*
%TD*%
D24*
%TO.C,R2*%
X109100000Y-88240000D03*
X107600000Y-88240000D03*
%TD*%
D10*
%TO.C,J58*%
X96214625Y-55112627D03*
%TD*%
D37*
%TO.C,L2*%
X104940000Y-77070000D03*
X98940000Y-77070000D03*
%TD*%
D21*
%TO.C,R74*%
X91164625Y-56562627D03*
X91164625Y-55062627D03*
%TD*%
D38*
%TO.C,LED13*%
X131770000Y-46710000D03*
X131770000Y-49250000D03*
%TD*%
D21*
%TO.C,R47*%
X123934625Y-73180000D03*
X123934625Y-74680000D03*
%TD*%
D20*
%TO.C,U17*%
X123434625Y-124530000D03*
X122484625Y-124530000D03*
X121534625Y-124530000D03*
X121534625Y-126830000D03*
X122484625Y-126830000D03*
X123434625Y-126830000D03*
%TD*%
D16*
%TO.C,D29*%
X71934625Y-60407627D03*
X75194625Y-60407627D03*
%TD*%
D12*
%TO.C,H6*%
X150800000Y-131000000D03*
X151502944Y-129302944D03*
X151502944Y-132697056D03*
X153200000Y-128600000D03*
D13*
X153200000Y-131000000D03*
D12*
X153200000Y-133400000D03*
X154897056Y-129302944D03*
X154897056Y-132697056D03*
X155600000Y-131000000D03*
%TD*%
D17*
%TO.C,J16*%
X152000000Y-74600000D03*
D18*
X152000000Y-77140000D03*
%TD*%
D24*
%TO.C,R4*%
X102730000Y-88120000D03*
X104230000Y-88120000D03*
%TD*%
D11*
%TO.C,R42*%
X74630000Y-68210000D03*
X74630000Y-66210000D03*
%TD*%
D38*
%TO.C,LED10*%
X150600000Y-96470000D03*
X150600000Y-93930000D03*
%TD*%
D20*
%TO.C,U18*%
X80234625Y-99180000D03*
X79284625Y-99180000D03*
X78334625Y-99180000D03*
X78334625Y-101480000D03*
X79284625Y-101480000D03*
X80234625Y-101480000D03*
%TD*%
D11*
%TO.C,R49*%
X74510000Y-55330000D03*
X74510000Y-53330000D03*
%TD*%
D12*
%TO.C,H5*%
X150800000Y-41000000D03*
X151502944Y-39302944D03*
X151502944Y-42697056D03*
X153200000Y-38600000D03*
D13*
X153200000Y-41000000D03*
D12*
X153200000Y-43400000D03*
X154897056Y-39302944D03*
X154897056Y-42697056D03*
X155600000Y-41000000D03*
%TD*%
D39*
%TO.C,C20*%
X80695375Y-94507687D03*
X80695375Y-95907687D03*
%TD*%
D40*
%TO.C,C13*%
X89970000Y-111070000D03*
X89970000Y-114250000D03*
%TD*%
D24*
%TO.C,R6*%
X89660000Y-128950000D03*
X91160000Y-128950000D03*
%TD*%
D38*
%TO.C,LED4*%
X150600000Y-119470000D03*
X150600000Y-116930000D03*
%TD*%
D21*
%TO.C,R64*%
X72614625Y-67757627D03*
X72614625Y-66257627D03*
%TD*%
D16*
%TO.C,D30*%
X71934625Y-73093574D03*
X75194625Y-73093574D03*
%TD*%
D21*
%TO.C,R62*%
X81414625Y-59162627D03*
X81414625Y-57662627D03*
%TD*%
D24*
%TO.C,R9*%
X114584625Y-115780000D03*
X116084625Y-115780000D03*
%TD*%
D10*
%TO.C,J49*%
X157000000Y-127400000D03*
%TD*%
D17*
%TO.C,J6*%
X142200000Y-109175000D03*
D18*
X142200000Y-111715000D03*
%TD*%
D10*
%TO.C,J56*%
X85114625Y-44912627D03*
%TD*%
D20*
%TO.C,U14*%
X77884625Y-108830000D03*
X76934625Y-108830000D03*
X75984625Y-108830000D03*
X75984625Y-111130000D03*
X76934625Y-111130000D03*
X77884625Y-111130000D03*
%TD*%
D10*
%TO.C,J41*%
X120734625Y-70080000D03*
%TD*%
D24*
%TO.C,R33*%
X149850000Y-115070000D03*
X151350000Y-115070000D03*
%TD*%
D10*
%TO.C,J54*%
X77664625Y-53512627D03*
%TD*%
D24*
%TO.C,R7*%
X114584625Y-117480000D03*
X116084625Y-117480000D03*
%TD*%
D20*
%TO.C,U16*%
X81820000Y-117060000D03*
X80870000Y-117060000D03*
X79920000Y-117060000D03*
X79920000Y-119360000D03*
X80870000Y-119360000D03*
X81820000Y-119360000D03*
%TD*%
D38*
%TO.C,LED9*%
X165200000Y-42470000D03*
X165200000Y-39930000D03*
%TD*%
D10*
%TO.C,P2*%
X116856981Y-46480000D03*
X116856981Y-41480000D03*
%TD*%
D24*
%TO.C,R32*%
X166120000Y-115410000D03*
X164620000Y-115410000D03*
%TD*%
D10*
%TO.C,P3*%
X96487342Y-42012627D03*
X91487342Y-42012627D03*
%TD*%
D24*
%TO.C,R8*%
X89630000Y-130480000D03*
X91130000Y-130480000D03*
%TD*%
D10*
%TO.C,J55*%
X77664625Y-47812627D03*
%TD*%
D41*
%TO.C,D4*%
X84874625Y-41912627D03*
X87154625Y-41912627D03*
%TD*%
D21*
%TO.C,R66*%
X72614625Y-80443574D03*
X72614625Y-78943574D03*
%TD*%
D25*
%TO.C,Q12*%
X72614625Y-77093574D03*
X74514625Y-77093574D03*
X73564625Y-75093574D03*
%TD*%
D10*
%TO.C,J35*%
X86464625Y-64712627D03*
%TD*%
D16*
%TO.C,D32*%
X71934625Y-47612627D03*
X75194625Y-47612627D03*
%TD*%
%TO.C,D7*%
X143190000Y-47120000D03*
X139930000Y-47120000D03*
%TD*%
D40*
%TO.C,C1*%
X116100000Y-83300000D03*
X116100000Y-86480000D03*
%TD*%
D24*
%TO.C,R12*%
X88254625Y-117840000D03*
X89754625Y-117840000D03*
%TD*%
%TO.C,R35*%
X149850000Y-99530000D03*
X151350000Y-99530000D03*
%TD*%
D12*
%TO.C,H2*%
X129034625Y-41000000D03*
X129737569Y-39302944D03*
X129737569Y-42697056D03*
X131434625Y-38600000D03*
D13*
X131434625Y-41000000D03*
D12*
X131434625Y-43400000D03*
X133131681Y-39302944D03*
X133131681Y-42697056D03*
X133834625Y-41000000D03*
%TD*%
D21*
%TO.C,R21*%
X131570000Y-51930000D03*
X131570000Y-53430000D03*
%TD*%
D42*
%TO.C,U8*%
X82584625Y-103460000D03*
X83854625Y-103460000D03*
X85114625Y-103460000D03*
X86384625Y-103460000D03*
X86384625Y-96400000D03*
X85114625Y-96400000D03*
X83854625Y-96400000D03*
X82584625Y-96400000D03*
%TD*%
D22*
%TO.C,J47*%
X75884625Y-105350000D03*
D23*
X75884625Y-102810000D03*
X75884625Y-100270000D03*
X75884625Y-97730000D03*
%TD*%
D11*
%TO.C,R57*%
X86130000Y-105530000D03*
X86130000Y-107530000D03*
%TD*%
D25*
%TO.C,Q16*%
X91164625Y-53212627D03*
X93064625Y-53212627D03*
X92114625Y-51212627D03*
%TD*%
D10*
%TO.C,J46*%
X77664625Y-78993574D03*
%TD*%
D24*
%TO.C,R46*%
X88270000Y-127420000D03*
X89770000Y-127420000D03*
%TD*%
D14*
%TO.C,R56*%
X103700000Y-110200000D03*
X101700000Y-110200000D03*
%TD*%
D10*
%TO.C,J34*%
X86464625Y-70412627D03*
%TD*%
%TO.C,J43*%
X128484625Y-124930000D03*
%TD*%
D40*
%TO.C,C11*%
X100640000Y-82010000D03*
X100640000Y-85190000D03*
%TD*%
D30*
%TO.C,U2*%
X161660000Y-51880000D03*
D31*
X164200000Y-51880000D03*
X161660000Y-54420000D03*
X164200000Y-54420000D03*
X161660000Y-56960000D03*
X164200000Y-56960000D03*
X161660000Y-59500000D03*
X164200000Y-59500000D03*
X161660000Y-62040000D03*
X164200000Y-62040000D03*
X161660000Y-64580000D03*
X164200000Y-64580000D03*
X161660000Y-67120000D03*
X164200000Y-67120000D03*
X161660000Y-69660000D03*
X164200000Y-69660000D03*
X161660000Y-72200000D03*
X164200000Y-72200000D03*
X161660000Y-74740000D03*
X164200000Y-74740000D03*
X161660000Y-77280000D03*
X164200000Y-77280000D03*
X161660000Y-79820000D03*
X164200000Y-79820000D03*
X161660000Y-82360000D03*
X164200000Y-82360000D03*
%TD*%
D10*
%TO.C,Power_FP1*%
X163050000Y-126750000D03*
X163050000Y-131750000D03*
%TD*%
D38*
%TO.C,LED3*%
X165600000Y-110930000D03*
X165600000Y-113470000D03*
%TD*%
D43*
%TO.C,D2*%
X110260000Y-76240000D03*
X110260000Y-80640000D03*
%TD*%
D10*
%TO.C,J57*%
X85914625Y-39512627D03*
%TD*%
D25*
%TO.C,Q14*%
X72614625Y-51612627D03*
X74514625Y-51612627D03*
X73564625Y-49612627D03*
%TD*%
D10*
%TO.C,J59*%
X96214625Y-49412627D03*
%TD*%
D21*
%TO.C,R3*%
X109150000Y-91330000D03*
X109150000Y-89830000D03*
%TD*%
D11*
%TO.C,R50*%
X82870000Y-46940000D03*
X82870000Y-44940000D03*
%TD*%
D17*
%TO.C,J3*%
X142200000Y-50460000D03*
D18*
X142200000Y-53000000D03*
X142200000Y-55540000D03*
X142200000Y-58080000D03*
%TD*%
D24*
%TO.C,R19*%
X118980000Y-122080000D03*
X117480000Y-122080000D03*
%TD*%
D10*
%TO.C,J37*%
X86464625Y-52012627D03*
%TD*%
D17*
%TO.C,J7*%
X142200000Y-116800000D03*
D18*
X142200000Y-119340000D03*
%TD*%
D11*
%TO.C,R40*%
X83320000Y-72220000D03*
X83320000Y-70220000D03*
%TD*%
D16*
%TO.C,D33*%
X80084625Y-39512627D03*
X83344625Y-39512627D03*
%TD*%
D21*
%TO.C,R72*%
X80914625Y-46462627D03*
X80914625Y-44962627D03*
%TD*%
D39*
%TO.C,C2*%
X107610000Y-78330000D03*
X107610000Y-79730000D03*
%TD*%
D38*
%TO.C,LED2*%
X150600000Y-126270000D03*
X150600000Y-123730000D03*
%TD*%
D16*
%TO.C,D1*%
X146640000Y-130330000D03*
X146640000Y-133590000D03*
%TD*%
D17*
%TO.C,J4*%
X157380000Y-118000000D03*
D18*
X157380000Y-120540000D03*
%TD*%
D21*
%TO.C,R22*%
X79284625Y-115185000D03*
X79284625Y-113685000D03*
%TD*%
D11*
%TO.C,R53*%
X114690000Y-130630000D03*
X114690000Y-132630000D03*
%TD*%
%TO.C,R48*%
X83320000Y-85410000D03*
X83320000Y-83410000D03*
%TD*%
D16*
%TO.C,D28*%
X80734625Y-51812627D03*
X83994625Y-51812627D03*
%TD*%
D17*
%TO.C,J14*%
X151780000Y-50060000D03*
D18*
X151780000Y-52600000D03*
X151780000Y-55140000D03*
%TD*%
D21*
%TO.C,R70*%
X72614625Y-54962627D03*
X72614625Y-53462627D03*
%TD*%
D40*
%TO.C,C10*%
X93604625Y-110530000D03*
X93604625Y-107350000D03*
%TD*%
D16*
%TO.C,D9*%
X147200000Y-101170000D03*
X147200000Y-104430000D03*
%TD*%
D10*
%TO.C,P1*%
X130400000Y-81100000D03*
X130400000Y-76100000D03*
%TD*%
D24*
%TO.C,R43*%
X88254625Y-122740000D03*
X89754625Y-122740000D03*
%TD*%
D16*
%TO.C,D11*%
X147000000Y-116570000D03*
X147000000Y-119830000D03*
%TD*%
%TO.C,D34*%
X90484625Y-49212627D03*
X93744625Y-49212627D03*
%TD*%
D10*
%TO.C,J53*%
X86460023Y-77794648D03*
%TD*%
D24*
%TO.C,R13*%
X88254625Y-119440000D03*
X89754625Y-119440000D03*
%TD*%
D21*
%TO.C,R5*%
X123934625Y-71580000D03*
X123934625Y-70080000D03*
%TD*%
D10*
%TO.C,J45*%
X123034625Y-120280000D03*
%TD*%
D24*
%TO.C,R39*%
X165200000Y-38000000D03*
X163700000Y-38000000D03*
%TD*%
D39*
%TO.C,C14*%
X125484625Y-125880000D03*
X125484625Y-124480000D03*
%TD*%
D21*
%TO.C,R10*%
X112935000Y-113885000D03*
X112935000Y-112385000D03*
%TD*%
D16*
%TO.C,D3*%
X147000000Y-128700000D03*
X147000000Y-125440000D03*
%TD*%
D15*
%TO.C,U11*%
X148450000Y-63050000D03*
X148450000Y-64000000D03*
X148450000Y-64950000D03*
X150750000Y-64950000D03*
X150750000Y-64000000D03*
X150750000Y-63050000D03*
%TD*%
D43*
%TO.C,J50*%
X156800000Y-124200000D03*
%TD*%
D38*
%TO.C,LED1*%
X159400000Y-42470000D03*
X159400000Y-39930000D03*
%TD*%
%TO.C,LED6*%
X150600000Y-104000000D03*
X150600000Y-101460000D03*
%TD*%
D44*
%TO.C,C15*%
X91490000Y-107840000D03*
X91490000Y-107000000D03*
%TD*%
D14*
%TO.C,R59*%
X113590000Y-120030000D03*
X115590000Y-120030000D03*
%TD*%
D11*
%TO.C,R44*%
X74780000Y-80830000D03*
X74780000Y-78830000D03*
%TD*%
D21*
%TO.C,R23*%
X79284625Y-122235000D03*
X79284625Y-123735000D03*
%TD*%
D25*
%TO.C,Q10*%
X81414625Y-55812627D03*
X83314625Y-55812627D03*
X82364625Y-53812627D03*
%TD*%
D45*
%TO.C,SW3*%
X118234625Y-131180000D03*
X118234625Y-129190000D03*
X118234625Y-127180000D03*
D46*
X118234625Y-125080000D03*
X118234625Y-133280000D03*
%TD*%
D39*
%TO.C,C7*%
X105890000Y-89590000D03*
X105890000Y-88190000D03*
%TD*%
D25*
%TO.C,Q13*%
X81410023Y-81594648D03*
X83310023Y-81594648D03*
X82360023Y-79594648D03*
%TD*%
%TO.C,Q15*%
X80864625Y-43312627D03*
X82764625Y-43312627D03*
X81814625Y-41312627D03*
%TD*%
D47*
%TO.C,SW1*%
X124400000Y-133160000D03*
X124400000Y-128800000D03*
%TD*%
D10*
%TO.C,J38*%
X77664625Y-66307627D03*
%TD*%
D48*
%TO.C,C6*%
X100580000Y-62730000D03*
X98580000Y-62730000D03*
%TD*%
D49*
%TO.C,U1*%
X98602500Y-70360000D03*
X98602500Y-69090000D03*
X98602500Y-67830000D03*
X98602500Y-66560000D03*
X93462500Y-66560000D03*
X93462500Y-67830000D03*
X93462500Y-69090000D03*
X93462500Y-70360000D03*
%TD*%
D17*
%TO.C,J8*%
X142200000Y-93925000D03*
D18*
X142200000Y-96465000D03*
%TD*%
D40*
%TO.C,C9*%
X98040000Y-82010000D03*
X98040000Y-85190000D03*
%TD*%
D10*
%TO.C,J60*%
X148200000Y-39000000D03*
%TD*%
D12*
%TO.C,H4*%
X72334625Y-41000000D03*
X73037569Y-39302944D03*
X73037569Y-42697056D03*
X74734625Y-38600000D03*
D13*
X74734625Y-41000000D03*
D12*
X74734625Y-43400000D03*
X76431681Y-39302944D03*
X76431681Y-42697056D03*
X77134625Y-41000000D03*
%TD*%
D14*
%TO.C,R61*%
X113510000Y-122460000D03*
X115510000Y-122460000D03*
%TD*%
D10*
%TO.C,J51*%
X77664625Y-73293574D03*
%TD*%
D21*
%TO.C,R18*%
X154000000Y-123500000D03*
X154000000Y-125000000D03*
%TD*%
D50*
%TO.C,U3*%
X93084625Y-113710000D03*
X93084625Y-114980000D03*
X93084625Y-116250000D03*
X93084625Y-117520000D03*
X93084625Y-118790000D03*
X93084625Y-120060000D03*
X93084625Y-121330000D03*
X93084625Y-122600000D03*
X93084625Y-123870000D03*
X93084625Y-125140000D03*
X93084625Y-126410000D03*
X93084625Y-127680000D03*
X93084625Y-128950000D03*
X93084625Y-130220000D03*
D51*
X94844625Y-131490000D03*
X96114625Y-131490000D03*
X97384625Y-131490000D03*
X98664625Y-131490000D03*
X99934625Y-131490000D03*
X101204625Y-131490000D03*
X102474625Y-131490000D03*
X103744625Y-131490000D03*
X105014625Y-131490000D03*
X106284625Y-131490000D03*
X107554625Y-131490000D03*
X108824625Y-131460000D03*
D50*
X110584625Y-130220000D03*
X110584625Y-128950000D03*
X110584625Y-127680000D03*
X110584625Y-126410000D03*
X110584625Y-125140000D03*
X110584625Y-123870000D03*
X110584625Y-122600000D03*
X110584625Y-121330000D03*
X110584625Y-120060000D03*
X110584625Y-118790000D03*
X110584625Y-117520000D03*
X110584625Y-116250000D03*
X110584625Y-114980000D03*
X110584625Y-113710000D03*
D52*
X98934625Y-120030000D03*
X98934625Y-121430000D03*
X98934625Y-122830000D03*
X100334625Y-120030000D03*
X100334625Y-121430000D03*
X100334625Y-122830000D03*
X101734625Y-120030000D03*
X101734625Y-121430000D03*
X101734625Y-122830000D03*
%TD*%
D16*
%TO.C,D5*%
X162400000Y-110570000D03*
X162400000Y-113830000D03*
%TD*%
D10*
%TO.C,L3*%
X115000000Y-63080000D03*
X127000000Y-63080000D03*
%TD*%
D21*
%TO.C,R36*%
X161800000Y-106550000D03*
X161800000Y-105050000D03*
%TD*%
D53*
%TO.C,C4*%
X104950000Y-86690000D03*
X105790000Y-86690000D03*
%TD*%
D24*
%TO.C,R20*%
X119284625Y-119080000D03*
X117784625Y-119080000D03*
%TD*%
D21*
%TO.C,R45*%
X122234625Y-74630000D03*
X122234625Y-73130000D03*
%TD*%
D11*
%TO.C,R51*%
X93100000Y-57060000D03*
X93100000Y-55060000D03*
%TD*%
D10*
%TO.C,J52*%
X86460023Y-83494648D03*
%TD*%
D17*
%TO.C,J15*%
X142180000Y-124050000D03*
D18*
X142180000Y-126590000D03*
X142180000Y-129130000D03*
X142180000Y-131670000D03*
%TD*%
D17*
%TO.C,J13*%
X142200000Y-74120000D03*
D18*
X142200000Y-76660000D03*
X142200000Y-79200000D03*
%TD*%
D24*
%TO.C,R34*%
X149850000Y-107470000D03*
X151350000Y-107470000D03*
%TD*%
D17*
%TO.C,J2*%
X142180000Y-84000000D03*
D18*
X142180000Y-86540000D03*
X142180000Y-89080000D03*
%TD*%
D14*
%TO.C,R52*%
X105550000Y-85080000D03*
X103550000Y-85080000D03*
%TD*%
D38*
%TO.C,LED5*%
X150600000Y-111940000D03*
X150600000Y-109400000D03*
%TD*%
D16*
%TO.C,D20*%
X104370000Y-61800000D03*
X107630000Y-61800000D03*
%TD*%
D17*
%TO.C,J9*%
X157400000Y-110800000D03*
D18*
X157400000Y-113340000D03*
%TD*%
D53*
%TO.C,C5*%
X99000000Y-64730000D03*
X98160000Y-64730000D03*
%TD*%
D40*
%TO.C,C3*%
X95440000Y-82010000D03*
X95440000Y-85190000D03*
%TD*%
D38*
%TO.C,LED7*%
X158800000Y-107400000D03*
X158800000Y-104860000D03*
%TD*%
D10*
%TO.C,J40*%
X127234625Y-70180000D03*
%TD*%
D38*
%TO.C,LED8*%
X165600000Y-117730000D03*
X165600000Y-120270000D03*
%TD*%
D21*
%TO.C,R60*%
X81414625Y-71862627D03*
X81414625Y-70362627D03*
%TD*%
D20*
%TO.C,U12*%
X160450000Y-97200000D03*
X161400000Y-97200000D03*
X162350000Y-97200000D03*
X162350000Y-94900000D03*
X161400000Y-94900000D03*
X160450000Y-94900000D03*
%TD*%
D10*
%TO.C,J39*%
X77664625Y-60607627D03*
%TD*%
D24*
%TO.C,R29*%
X78884625Y-104580000D03*
X80384625Y-104580000D03*
%TD*%
D21*
%TO.C,R68*%
X81410023Y-84944648D03*
X81410023Y-83444648D03*
%TD*%
D54*
%TO.C,U6*%
X107600000Y-82770000D03*
X107600000Y-84040000D03*
X107600000Y-85320000D03*
X107600000Y-86590000D03*
X113000000Y-86590000D03*
X113000000Y-85320000D03*
X113000000Y-84040000D03*
X113000000Y-82770000D03*
D55*
X110300000Y-84680000D03*
%TD*%
D24*
%TO.C,R38*%
X165650000Y-122400000D03*
X167150000Y-122400000D03*
%TD*%
D16*
%TO.C,D10*%
X147000000Y-108640000D03*
X147000000Y-111900000D03*
%TD*%
D25*
%TO.C,Q11*%
X72614625Y-64407627D03*
X74514625Y-64407627D03*
X73564625Y-62407627D03*
%TD*%
D16*
%TO.C,D12*%
X147000000Y-93570000D03*
X147000000Y-96830000D03*
%TD*%
M02*
