%TF.GenerationSoftware,KiCad,Pcbnew,10.0.4*%
%TF.CreationDate,2026-07-16T23:23:21-05:00*%
%TF.ProjectId,GrowChamberPCB,47726f77-4368-4616-9d62-65725043422e,rev?*%
%TF.SameCoordinates,Original*%
%TF.FileFunction,Copper,L4,Bot*%
%TF.FilePolarity,Positive*%
%FSLAX46Y46*%
G04 Gerber Fmt 4.6, Leading zero omitted, Abs format (unit mm)*
G04 Created by KiCad (PCBNEW 10.0.4) date 2026-07-16 23:23:21*
%MOMM*%
%LPD*%
G01*
G04 APERTURE LIST*
G04 Aperture macros list*
%AMRoundRect*
0 Rectangle with rounded corners*
0 $1 Rounding radius*
0 $2 $3 $4 $5 $6 $7 $8 $9 X,Y pos of 4 corners*
0 Add a 4 corners polygon primitive as box body*
4,1,4,$2,$3,$4,$5,$6,$7,$8,$9,$2,$3,0*
0 Add four circle primitives for the rounded corners*
1,1,$1+$1,$2,$3*
1,1,$1+$1,$4,$5*
1,1,$1+$1,$6,$7*
1,1,$1+$1,$8,$9*
0 Add four rect primitives between the rounded corners*
20,1,$1+$1,$2,$3,$4,$5,0*
20,1,$1+$1,$4,$5,$6,$7,0*
20,1,$1+$1,$6,$7,$8,$9,0*
20,1,$1+$1,$8,$9,$2,$3,0*%
G04 Aperture macros list end*
%TA.AperFunction,ComponentPad*%
%ADD10C,0.800000*%
%TD*%
%TA.AperFunction,ComponentPad*%
%ADD11C,6.400000*%
%TD*%
%TA.AperFunction,ComponentPad*%
%ADD12RoundRect,0.250000X-0.845000X0.620000X-0.845000X-0.620000X0.845000X-0.620000X0.845000X0.620000X0*%
%TD*%
%TA.AperFunction,ComponentPad*%
%ADD13O,2.190000X1.740000*%
%TD*%
%TA.AperFunction,ComponentPad*%
%ADD14R,1.700000X1.700000*%
%TD*%
%TA.AperFunction,ComponentPad*%
%ADD15C,1.700000*%
%TD*%
%TA.AperFunction,ComponentPad*%
%ADD16O,1.600000X1.300000*%
%TD*%
%TA.AperFunction,ComponentPad*%
%ADD17O,2.000000X3.000000*%
%TD*%
%TA.AperFunction,ComponentPad*%
%ADD18C,1.800000*%
%TD*%
%TA.AperFunction,ComponentPad*%
%ADD19C,2.000000*%
%TD*%
%TA.AperFunction,ComponentPad*%
%ADD20R,1.500000X1.500000*%
%TD*%
%TA.AperFunction,ComponentPad*%
%ADD21C,1.500000*%
%TD*%
%TA.AperFunction,ComponentPad*%
%ADD22O,2.000000X1.100000*%
%TD*%
%TA.AperFunction,ComponentPad*%
%ADD23O,1.800000X1.200000*%
%TD*%
%TA.AperFunction,ComponentPad*%
%ADD24C,1.600000*%
%TD*%
%TA.AperFunction,ComponentPad*%
%ADD25R,2.000000X2.000000*%
%TD*%
%TA.AperFunction,ComponentPad*%
%ADD26O,1.300000X1.600000*%
%TD*%
%TA.AperFunction,ComponentPad*%
%ADD27O,3.000000X2.000000*%
%TD*%
%TA.AperFunction,ViaPad*%
%ADD28C,0.600000*%
%TD*%
%TA.AperFunction,Conductor*%
%ADD29C,0.200000*%
%TD*%
G04 APERTURE END LIST*
D10*
%TO.P,H1,1*%
%TO.N,N/C*%
X129034625Y-131000000D03*
X129737569Y-129302944D03*
X129737569Y-132697056D03*
X131434625Y-128600000D03*
D11*
X131434625Y-131000000D03*
D10*
X131434625Y-133400000D03*
X133131681Y-129302944D03*
X133131681Y-132697056D03*
X133834625Y-131000000D03*
%TD*%
D12*
%TO.P,J1,1,Pin_1_1*%
%TO.N,Piezo2_FP*%
X141990000Y-41245000D03*
D13*
%TO.P,J1,2,Pin_2_2*%
%TO.N,Piezo1_FP*%
X141990000Y-43785000D03*
%TD*%
D14*
%TO.P,J48,1,Pin_1_1*%
%TO.N,3.3V*%
X71884625Y-109740000D03*
D15*
%TO.P,J48,2,Pin_2_2*%
%TO.N,GND*%
X71884625Y-107200000D03*
%TO.P,J48,3,Pin_3_3*%
%TO.N,CS_Display*%
X71884625Y-104660000D03*
%TO.P,J48,4,Pin_4_4*%
%TO.N,Display_Reset*%
X71884625Y-102120000D03*
%TO.P,J48,5,Pin_5_5*%
%TO.N,DC_Display*%
X71884625Y-99580000D03*
%TO.P,J48,6,Pin_6_6*%
%TO.N,MOSI*%
X71884625Y-97040000D03*
%TO.P,J48,7,Pin_7_7*%
%TO.N,SCK*%
X71884625Y-94500000D03*
%TO.P,J48,8,Pin_8_8*%
%TO.N,3.3V*%
X71884625Y-91960000D03*
%TO.P,J48,9,Pin_9_9*%
%TO.N,unconnected-(J48-Pin_9-Pad9)*%
X71884625Y-89420000D03*
%TD*%
D16*
%TO.P,SW5,1,1_1*%
%TO.N,unconnected-(SW5-Pad1)*%
X159410000Y-100650000D03*
%TO.P,SW5,2,2_2*%
%TO.N,EN_FP*%
X161400000Y-100650000D03*
%TO.P,SW5,3,3_3*%
%TO.N,GND_FP*%
X163410000Y-100650000D03*
D17*
%TO.P,SW5,4,4_4*%
%TO.N,unconnected-(SW5-Pad4)*%
X165510000Y-100650000D03*
%TO.P,SW5,5,5_5*%
%TO.N,unconnected-(SW5-Pad5)*%
X157310000Y-100650000D03*
%TD*%
D10*
%TO.P,H3,1*%
%TO.N,N/C*%
X72334625Y-131000000D03*
X73037569Y-129302944D03*
X73037569Y-132697056D03*
X74734625Y-128600000D03*
D11*
X74734625Y-131000000D03*
D10*
X74734625Y-133400000D03*
X76431681Y-129302944D03*
X76431681Y-132697056D03*
X77134625Y-131000000D03*
%TD*%
D18*
%TO.P,RLY1,1,1_1*%
%TO.N,Heater_ON*%
X109856981Y-58480000D03*
D19*
%TO.P,RLY1,2,2_2*%
%TO.N,120V_Out*%
X109856981Y-46980000D03*
%TO.P,RLY1,3,3_3*%
%TO.N,120V_IN*%
X109856981Y-39980000D03*
D18*
%TO.P,RLY1,4,4_4*%
%TO.N,12V*%
X105156981Y-58480000D03*
%TD*%
D12*
%TO.P,J12,1,Pin_1_1*%
%TO.N,GND_FP*%
X142200000Y-64200000D03*
D13*
%TO.P,J12,2,Pin_2_2*%
%TO.N,3.3V_FP*%
X142200000Y-66740000D03*
%TO.P,J12,3,Pin_3_3*%
%TO.N,SoilMoisture4_FP*%
X142200000Y-69280000D03*
%TD*%
D12*
%TO.P,J10,1,Pin_1_1*%
%TO.N,Fogger_Basin_Float_Switch_FP*%
X151980000Y-81725000D03*
D13*
%TO.P,J10,2,Pin_2_2*%
%TO.N,3.3V_FP*%
X151980000Y-84265000D03*
%TD*%
D20*
%TO.P,U4,1,1_1*%
%TO.N,Heater_ON*%
X130780000Y-101260000D03*
D21*
%TO.P,U4,2,2_2*%
%TO.N,EN*%
X130780000Y-103800000D03*
%TO.P,U4,3,3_3*%
%TO.N,LEDs*%
X128240000Y-101260000D03*
%TO.P,U4,4,4_4*%
%TO.N,Fogger_Basin_Float_Switch*%
X128240000Y-103800000D03*
%TO.P,U4,5,5_5*%
%TO.N,Piezo2*%
X125700000Y-101260000D03*
%TO.P,U4,6,6_6*%
%TO.N,Drain_Level*%
X125700000Y-103800000D03*
%TO.P,U4,7,7_7*%
%TO.N,Piezo1*%
X123160000Y-101260000D03*
%TO.P,U4,8,8_8*%
%TO.N,BootMode*%
X123160000Y-103800000D03*
%TO.P,U4,9,9_9*%
%TO.N,TXD0*%
X120620000Y-101260000D03*
%TO.P,U4,10,10_10*%
%TO.N,RXD0*%
X120620000Y-103800000D03*
%TO.P,U4,11,11_11*%
%TO.N,SCL*%
X118080000Y-101260000D03*
%TO.P,U4,12,12_12*%
%TO.N,SDA*%
X118080000Y-103800000D03*
%TO.P,U4,13,13_13*%
%TO.N,Soil_Moisture4*%
X115540000Y-101260000D03*
%TO.P,U4,14,14_14*%
%TO.N,Soil_Moisture1*%
X115540000Y-103800000D03*
%TO.P,U4,15,15_15*%
%TO.N,Soil_Moisture2*%
X113000000Y-101260000D03*
%TO.P,U4,16,16_16*%
%TO.N,WaterSol*%
X113000000Y-103800000D03*
%TO.P,U4,17,17_17*%
%TO.N,GlycolSol*%
X110460000Y-101260000D03*
%TO.P,U4,18,18_18*%
%TO.N,3.3V*%
X110460000Y-103800000D03*
%TO.P,U4,19,19_19*%
%TO.N,DrainSol*%
X107920000Y-101260000D03*
%TO.P,U4,20,20_20*%
%TO.N,3.3V*%
X107920000Y-103800000D03*
%TO.P,U4,21,21_21*%
%TO.N,FoggerSol*%
X105380000Y-101260000D03*
%TO.P,U4,22,22_22*%
%TO.N,Heater Fans*%
X105380000Y-103800000D03*
%TO.P,U4,23,23_23*%
%TO.N,Fan_Tach*%
X102840000Y-101260000D03*
%TO.P,U4,24,24_24*%
%TO.N,Circ_Fan*%
X102840000Y-103800000D03*
%TO.P,U4,25,25_25*%
%TO.N,External_Fan_PWM*%
X100300000Y-101260000D03*
%TO.P,U4,26,26_26*%
%TO.N,Heartbeat_LED*%
X100300000Y-103800000D03*
%TD*%
D16*
%TO.P,SW4,1,1_1*%
%TO.N,Net-(R63-Pad1)*%
X159600000Y-91450000D03*
%TO.P,SW4,2,2_2*%
%TO.N,BootMode_FP*%
X161590000Y-91450000D03*
%TO.P,SW4,3,3_3*%
%TO.N,GND_FP*%
X163600000Y-91450000D03*
D17*
%TO.P,SW4,4,4_4*%
%TO.N,unconnected-(SW4-Pad4)*%
X165700000Y-91450000D03*
%TO.P,SW4,5,5_5*%
%TO.N,unconnected-(SW4-Pad5)*%
X157500000Y-91450000D03*
%TD*%
D22*
%TO.P,USB1,13,EH_13*%
%TO.N,GND*%
X76597125Y-114315000D03*
D23*
X72387125Y-114315000D03*
D22*
%TO.P,USB1,14,EH_14*%
X76597125Y-122955000D03*
D23*
X72387125Y-122955000D03*
%TD*%
D12*
%TO.P,J5,1,Pin_1_1*%
%TO.N,WaterSol_FP*%
X142200000Y-101550000D03*
D13*
%TO.P,J5,2,Pin_2_2*%
%TO.N,12V_FP*%
X142200000Y-104090000D03*
%TD*%
D24*
%TO.P,LED13,1,K_1*%
%TO.N,GND*%
X131770000Y-46710000D03*
%TO.P,LED13,2,A_2*%
%TO.N,Net-(LED13-A)*%
X131770000Y-49250000D03*
%TD*%
D10*
%TO.P,H6,1*%
%TO.N,N/C*%
X150800000Y-131000000D03*
X151502944Y-129302944D03*
X151502944Y-132697056D03*
X153200000Y-128600000D03*
D11*
X153200000Y-131000000D03*
D10*
X153200000Y-133400000D03*
X154897056Y-129302944D03*
X154897056Y-132697056D03*
X155600000Y-131000000D03*
%TD*%
D12*
%TO.P,J16,1,Pin_1_1*%
%TO.N,Drain_Level_FP*%
X152000000Y-74600000D03*
D13*
%TO.P,J16,2,Pin_2_2*%
%TO.N,3.3V_FP*%
X152000000Y-77140000D03*
%TD*%
D24*
%TO.P,LED10,1,K_1*%
%TO.N,GlycolSol_FP*%
X150600000Y-96470000D03*
%TO.P,LED10,2,A_2*%
%TO.N,Net-(LED10-A)*%
X150600000Y-93930000D03*
%TD*%
D10*
%TO.P,H5,1*%
%TO.N,N/C*%
X150800000Y-41000000D03*
X151502944Y-39302944D03*
X151502944Y-42697056D03*
X153200000Y-38600000D03*
D11*
X153200000Y-41000000D03*
D10*
X153200000Y-43400000D03*
X154897056Y-39302944D03*
X154897056Y-42697056D03*
X155600000Y-41000000D03*
%TD*%
D24*
%TO.P,LED4,1,K_1*%
%TO.N,FoggerSol_FP*%
X150600000Y-119470000D03*
%TO.P,LED4,2,A_2*%
%TO.N,Net-(LED4-A)*%
X150600000Y-116930000D03*
%TD*%
D12*
%TO.P,J6,1,Pin_1_1*%
%TO.N,DrainSol_FP*%
X142200000Y-109175000D03*
D13*
%TO.P,J6,2,Pin_2_2*%
%TO.N,12V_FP*%
X142200000Y-111715000D03*
%TD*%
D24*
%TO.P,LED9,1,K_1*%
%TO.N,Heater_ON_FP*%
X165200000Y-42470000D03*
%TO.P,LED9,2,A_2*%
%TO.N,Net-(LED9-A)*%
X165200000Y-39930000D03*
%TD*%
D19*
%TO.P,P2,1,1_1*%
%TO.N,120V_Out*%
X116856981Y-46480000D03*
%TO.P,P2,2,2_2*%
%TO.N,120V_IN*%
X116856981Y-41480000D03*
%TD*%
%TO.P,P3,1,1_1*%
%TO.N,12V*%
X96487342Y-42012627D03*
%TO.P,P3,2,2_2*%
%TO.N,LEDs*%
X91487342Y-42012627D03*
%TD*%
D10*
%TO.P,H2,1*%
%TO.N,N/C*%
X129034625Y-41000000D03*
X129737569Y-39302944D03*
X129737569Y-42697056D03*
X131434625Y-38600000D03*
D11*
X131434625Y-41000000D03*
D10*
X131434625Y-43400000D03*
X133131681Y-39302944D03*
X133131681Y-42697056D03*
X133834625Y-41000000D03*
%TD*%
D14*
%TO.P,J47,1,Pin_1_1*%
%TO.N,CS_SD*%
X75884625Y-105350000D03*
D15*
%TO.P,J47,2,Pin_2_2*%
%TO.N,MOSI*%
X75884625Y-102810000D03*
%TO.P,J47,3,Pin_3_3*%
%TO.N,MISO_ESD*%
X75884625Y-100270000D03*
%TO.P,J47,4,Pin_4_4*%
%TO.N,SCK*%
X75884625Y-97730000D03*
%TD*%
D20*
%TO.P,U2,1,1_1*%
%TO.N,Heater_ON_FP*%
X161660000Y-51880000D03*
D21*
%TO.P,U2,2,2_2*%
%TO.N,EN_FP*%
X164200000Y-51880000D03*
%TO.P,U2,3,3_3*%
%TO.N,LEDs_FP*%
X161660000Y-54420000D03*
%TO.P,U2,4,4_4*%
%TO.N,Fogger_Basin_Float_Switch_FP*%
X164200000Y-54420000D03*
%TO.P,U2,5,5_5*%
%TO.N,Piezo2_FP*%
X161660000Y-56960000D03*
%TO.P,U2,6,6_6*%
%TO.N,Drain_Level_FP*%
X164200000Y-56960000D03*
%TO.P,U2,7,7_7*%
%TO.N,Piezo1_FP*%
X161660000Y-59500000D03*
%TO.P,U2,8,8_8*%
%TO.N,BootMode_FP*%
X164200000Y-59500000D03*
%TO.P,U2,9,9_9*%
%TO.N,TXD0_FP*%
X161660000Y-62040000D03*
%TO.P,U2,10,10_10*%
%TO.N,RXD0_FP*%
X164200000Y-62040000D03*
%TO.P,U2,11,11_11*%
%TO.N,SCL_FP*%
X161660000Y-64580000D03*
%TO.P,U2,12,12_12*%
%TO.N,SDA_FP*%
X164200000Y-64580000D03*
%TO.P,U2,13,13_13*%
%TO.N,SoilMoisture4_FP*%
X161660000Y-67120000D03*
%TO.P,U2,14,14_14*%
%TO.N,SoilMoisture1_FP*%
X164200000Y-67120000D03*
%TO.P,U2,15,15_15*%
%TO.N,SoilMoisture2_FP*%
X161660000Y-69660000D03*
%TO.P,U2,16,16_16*%
%TO.N,WaterSol_FP*%
X164200000Y-69660000D03*
%TO.P,U2,17,17_17*%
%TO.N,GlycolSol_FP*%
X161660000Y-72200000D03*
%TO.P,U2,18,18_18*%
%TO.N,3.3V_FP*%
X164200000Y-72200000D03*
%TO.P,U2,19,19_19*%
%TO.N,DrainSol_FP*%
X161660000Y-74740000D03*
%TO.P,U2,20,20_20*%
%TO.N,3.3V_FP*%
X164200000Y-74740000D03*
%TO.P,U2,21,21_21*%
%TO.N,FoggerSol_FP*%
X161660000Y-77280000D03*
%TO.P,U2,22,22_22*%
%TO.N,Heater Fans_FP*%
X164200000Y-77280000D03*
%TO.P,U2,23,23_23*%
%TO.N,Fan_Tach_FP*%
X161660000Y-79820000D03*
%TO.P,U2,24,24_24*%
%TO.N,Circ_Fan_FP*%
X164200000Y-79820000D03*
%TO.P,U2,25,25_25*%
%TO.N,External_Fan_PWM_FP*%
X161660000Y-82360000D03*
%TO.P,U2,26,26_26*%
%TO.N,Heartbeat_LED_FP*%
X164200000Y-82360000D03*
%TD*%
D19*
%TO.P,Power_FP1,1,1_1*%
%TO.N,GND_FP*%
X163050000Y-126750000D03*
%TO.P,Power_FP1,2,2_2*%
%TO.N,12V_FP*%
X163050000Y-131750000D03*
%TD*%
D24*
%TO.P,LED3,1,K_1*%
%TO.N,Circ_Fan_FP*%
X165600000Y-110930000D03*
%TO.P,LED3,2,A_2*%
%TO.N,Net-(LED3-A)*%
X165600000Y-113470000D03*
%TD*%
D12*
%TO.P,J3,1,Pin_1_1*%
%TO.N,3.3V_FP*%
X142200000Y-50460000D03*
D13*
%TO.P,J3,2,Pin_2_2*%
%TO.N,GND_FP*%
X142200000Y-53000000D03*
%TO.P,J3,3,Pin_3_3*%
%TO.N,SCL_FP*%
X142200000Y-55540000D03*
%TO.P,J3,4,Pin_4_4*%
%TO.N,SDA_FP*%
X142200000Y-58080000D03*
%TD*%
D12*
%TO.P,J7,1,Pin_1_1*%
%TO.N,FoggerSol_FP*%
X142200000Y-116800000D03*
D13*
%TO.P,J7,2,Pin_2_2*%
%TO.N,12V_FP*%
X142200000Y-119340000D03*
%TD*%
D24*
%TO.P,LED2,1,K_1*%
%TO.N,GND_FP*%
X150600000Y-126270000D03*
%TO.P,LED2,2,A_2*%
%TO.N,Net-(LED2-A)*%
X150600000Y-123730000D03*
%TD*%
D12*
%TO.P,J4,1,Pin_1_1*%
%TO.N,Heater Fans_FP*%
X157380000Y-118000000D03*
D13*
%TO.P,J4,2,Pin_2_2*%
%TO.N,12V_FP*%
X157380000Y-120540000D03*
%TD*%
D12*
%TO.P,J14,1,Pin_1_1*%
%TO.N,GND_FP*%
X151780000Y-50060000D03*
D13*
%TO.P,J14,2,Pin_2_2*%
%TO.N,TXD0_FP*%
X151780000Y-52600000D03*
%TO.P,J14,3,Pin_3_3*%
%TO.N,RXD0_FP*%
X151780000Y-55140000D03*
%TD*%
D19*
%TO.P,P1,1,1_1*%
%TO.N,GND*%
X130400000Y-81100000D03*
%TO.P,P1,2,2_2*%
%TO.N,12V*%
X130400000Y-76100000D03*
%TD*%
D25*
%TO.P,J50,1,Pin_1_1*%
%TO.N,GND_FP*%
X156800000Y-124200000D03*
%TD*%
D24*
%TO.P,LED1,1,K_1*%
%TO.N,LEDs_FP*%
X159400000Y-42470000D03*
%TO.P,LED1,2,A_2*%
%TO.N,Net-(LED1-A)*%
X159400000Y-39930000D03*
%TD*%
%TO.P,LED6,1,K_1*%
%TO.N,WaterSol_FP*%
X150600000Y-104000000D03*
%TO.P,LED6,2,A_2*%
%TO.N,Net-(LED6-A)*%
X150600000Y-101460000D03*
%TD*%
D26*
%TO.P,SW3,1,1_1*%
%TO.N,Net-(R53-Pad1)*%
X118234625Y-131180000D03*
%TO.P,SW3,2,2_2*%
%TO.N,BootMode*%
X118234625Y-129190000D03*
%TO.P,SW3,3,3_3*%
%TO.N,GND*%
X118234625Y-127180000D03*
D27*
%TO.P,SW3,4,4_4*%
%TO.N,unconnected-(SW3-Pad4)*%
X118234625Y-125080000D03*
%TO.P,SW3,5,5_5*%
%TO.N,unconnected-(SW3-Pad5)*%
X118234625Y-133280000D03*
%TD*%
D12*
%TO.P,J8,1,Pin_1_1*%
%TO.N,GlycolSol_FP*%
X142200000Y-93925000D03*
D13*
%TO.P,J8,2,Pin_2_2*%
%TO.N,12V_FP*%
X142200000Y-96465000D03*
%TD*%
D10*
%TO.P,H4,1*%
%TO.N,N/C*%
X72334625Y-41000000D03*
X73037569Y-39302944D03*
X73037569Y-42697056D03*
X74734625Y-38600000D03*
D11*
X74734625Y-41000000D03*
D10*
X74734625Y-43400000D03*
X76431681Y-39302944D03*
X76431681Y-42697056D03*
X77134625Y-41000000D03*
%TD*%
D19*
%TO.P,L3,1,OUT_1*%
%TO.N,Net-(J41-Pin_1)*%
X115000000Y-63080000D03*
%TO.P,L3,2,OUT_2*%
%TO.N,KSD_Fault*%
X127000000Y-63080000D03*
%TD*%
D12*
%TO.P,J15,1,Pin_1_1*%
%TO.N,GND_FP*%
X142180000Y-124050000D03*
D13*
%TO.P,J15,2,Pin_2_2*%
%TO.N,12V_FP*%
X142180000Y-126590000D03*
%TO.P,J15,3,Pin_3_3*%
%TO.N,Fan_Tach_FP*%
X142180000Y-129130000D03*
%TO.P,J15,4,Pin_4_4*%
%TO.N,External_Fan_PWM_FP*%
X142180000Y-131670000D03*
%TD*%
D12*
%TO.P,J13,1,Pin_1_1*%
%TO.N,GND_FP*%
X142200000Y-74120000D03*
D13*
%TO.P,J13,2,Pin_2_2*%
%TO.N,3.3V_FP*%
X142200000Y-76660000D03*
%TO.P,J13,3,Pin_3_3*%
%TO.N,SoilMoisture2_FP*%
X142200000Y-79200000D03*
%TD*%
D12*
%TO.P,J2,1,Pin_1_1*%
%TO.N,GND_FP*%
X142180000Y-84000000D03*
D13*
%TO.P,J2,2,Pin_2_2*%
%TO.N,3.3V_FP*%
X142180000Y-86540000D03*
%TO.P,J2,3,Pin_3_3*%
%TO.N,SoilMoisture1_FP*%
X142180000Y-89080000D03*
%TD*%
D24*
%TO.P,LED5,1,K_1*%
%TO.N,DrainSol_FP*%
X150600000Y-111940000D03*
%TO.P,LED5,2,A_2*%
%TO.N,Net-(LED5-A)*%
X150600000Y-109400000D03*
%TD*%
D12*
%TO.P,J9,1,Pin_1_1*%
%TO.N,Circ_Fan_FP*%
X157400000Y-110800000D03*
D13*
%TO.P,J9,2,Pin_2_2*%
%TO.N,12V_FP*%
X157400000Y-113340000D03*
%TD*%
D24*
%TO.P,LED7,1,K_1*%
%TO.N,Net-(LED7-K)*%
X158800000Y-107400000D03*
%TO.P,LED7,2,A_2*%
%TO.N,Heartbeat_LED_FP*%
X158800000Y-104860000D03*
%TD*%
%TO.P,LED8,1,K_1*%
%TO.N,Heater Fans_FP*%
X165600000Y-117730000D03*
%TO.P,LED8,2,A_2*%
%TO.N,Net-(LED8-A)*%
X165600000Y-120270000D03*
%TD*%
D28*
%TO.N,3.3V_FP*%
X155670000Y-86890000D03*
X161064453Y-96305417D03*
X150400000Y-72110000D03*
X147200000Y-64050000D03*
X152870000Y-59050000D03*
X146550000Y-37910000D03*
X161395417Y-98225547D03*
%TO.N,GND_FP*%
X146400000Y-124340000D03*
X146980000Y-121060000D03*
X147830000Y-105650000D03*
X163020000Y-115020000D03*
X146020000Y-134520000D03*
X146370000Y-98070000D03*
X138790000Y-47790000D03*
X147010000Y-124330000D03*
X146370000Y-121070000D03*
X150400000Y-67770000D03*
X146610000Y-105670000D03*
X138780000Y-47180000D03*
X162410000Y-115030000D03*
X161230000Y-103860000D03*
X146690000Y-134530000D03*
X147590000Y-98050000D03*
X148180000Y-59440000D03*
X147010000Y-113130000D03*
X161800000Y-115040000D03*
X147620000Y-113120000D03*
X138720000Y-37330000D03*
X161420000Y-93880000D03*
X162450000Y-103840000D03*
X147300000Y-134520000D03*
X138730000Y-37940000D03*
X147220000Y-105660000D03*
X162820000Y-122040000D03*
X152070000Y-63990000D03*
X138770000Y-46570000D03*
X161600000Y-122060000D03*
X138740000Y-38550000D03*
X146980000Y-98060000D03*
X146400000Y-113140000D03*
X161775164Y-95938137D03*
X161840000Y-103850000D03*
X162210000Y-122050000D03*
X147620000Y-124320000D03*
X147590000Y-121050000D03*
%TO.N,12V*%
X80721998Y-63400000D03*
X80721998Y-76200000D03*
X80078002Y-40600000D03*
X98080000Y-65644625D03*
X105740000Y-61800000D03*
X70800000Y-47600000D03*
X81921998Y-77600000D03*
X71900000Y-46500000D03*
X78978002Y-39500000D03*
X97458002Y-62744625D03*
X131570000Y-54550000D03*
X97280000Y-64744625D03*
X71978002Y-61500000D03*
X117100000Y-81830000D03*
X89400000Y-49200000D03*
X80778002Y-50700000D03*
X71900000Y-48700000D03*
X80078002Y-38400000D03*
X117700000Y-82820000D03*
X81821998Y-64500000D03*
X71978002Y-72000000D03*
X70878002Y-73100000D03*
X98558002Y-63844625D03*
X90500000Y-48100000D03*
X90500000Y-50300000D03*
X102940000Y-61800000D03*
X71978002Y-59300000D03*
X96800000Y-69100000D03*
X132670000Y-53450000D03*
X104340000Y-63000000D03*
X80721998Y-79000000D03*
X117740000Y-83720000D03*
X80778002Y-52900000D03*
X115780000Y-81770000D03*
X80721998Y-65600000D03*
X70878002Y-60400000D03*
X98558002Y-61644625D03*
X79678002Y-51800000D03*
X130470000Y-53450000D03*
X71978002Y-74200000D03*
%TO.N,DrainSol*%
X86360023Y-79954648D03*
%TO.N,3.3V*%
X79300000Y-97970000D03*
X91930000Y-110340000D03*
X94366488Y-114985897D03*
X82365375Y-91877687D03*
X80870000Y-116120000D03*
X85070000Y-106970000D03*
X97294851Y-80460000D03*
X92000000Y-111250000D03*
X76710000Y-107620000D03*
X101470851Y-80460000D03*
X95902851Y-80460000D03*
X122126693Y-123614947D03*
X98686851Y-80460000D03*
X109180000Y-110800000D03*
X122820000Y-123530000D03*
X80695375Y-93067687D03*
X91930000Y-108740000D03*
X91810000Y-114980000D03*
X82640000Y-94560000D03*
X87250000Y-110470000D03*
X79415375Y-94407687D03*
X114720000Y-133830000D03*
X100078851Y-80460000D03*
X91920000Y-109510000D03*
X81905375Y-94307687D03*
X100170000Y-110110000D03*
X124570000Y-85910000D03*
X88270000Y-110460000D03*
X94510851Y-80460000D03*
X87430000Y-106970000D03*
%TO.N,Drain_Level_FP*%
X152775735Y-67494265D03*
%TO.N,Fogger_Basin_Float_Switch_FP*%
X151290000Y-66600000D03*
%TO.N,BootMode*%
X127100000Y-121300000D03*
%TO.N,GND*%
X84130000Y-56140000D03*
X76195375Y-81262373D03*
X92500000Y-112810000D03*
X88120000Y-41560000D03*
X88110000Y-42240000D03*
X94536000Y-86610000D03*
X75380000Y-64070000D03*
X95100000Y-69100000D03*
X87430000Y-103970000D03*
X101734625Y-122830000D03*
X116413333Y-88220000D03*
X120240000Y-119460000D03*
X78260000Y-121820000D03*
X93680000Y-112790000D03*
X101734625Y-121430000D03*
X111900000Y-114100000D03*
X75800000Y-67930000D03*
X98934625Y-121430000D03*
X89400000Y-109450000D03*
X97320000Y-86610000D03*
X119995375Y-121760000D03*
X101850000Y-62450000D03*
X100334625Y-122830000D03*
X84230000Y-81270000D03*
X125910000Y-123230000D03*
X101840000Y-63130000D03*
X75925375Y-55082373D03*
X98712000Y-86610000D03*
X100334625Y-121430000D03*
X122820000Y-127790000D03*
X91490000Y-106200000D03*
X84780000Y-85250000D03*
X93950000Y-52910000D03*
X79630000Y-112728813D03*
X76205375Y-80582373D03*
X124060000Y-134310000D03*
X78950000Y-112718813D03*
X79260000Y-102640000D03*
X84230000Y-68880000D03*
X90330000Y-109480000D03*
X76924669Y-112170000D03*
X122650000Y-75740000D03*
X99860000Y-65070000D03*
X90660000Y-107000000D03*
X81500000Y-96890000D03*
X113900000Y-88220000D03*
X125120000Y-123220000D03*
X98934625Y-120030000D03*
X84135375Y-46722373D03*
X119985375Y-122440000D03*
X101496000Y-86610000D03*
X75420000Y-51290000D03*
X93570000Y-108710000D03*
X83680000Y-42950000D03*
X120700000Y-76730000D03*
X84240000Y-68200000D03*
X83670000Y-43630000D03*
X84220000Y-81950000D03*
X124740000Y-134320000D03*
X84560000Y-59720000D03*
X122140000Y-127780000D03*
X75790000Y-68610000D03*
X84590000Y-72630000D03*
X79610000Y-124700000D03*
X121840000Y-75740000D03*
X75450000Y-76760000D03*
X100334625Y-120030000D03*
X101734625Y-120030000D03*
X80670000Y-97180000D03*
X78172373Y-115422373D03*
X78930000Y-124690000D03*
X75370000Y-64750000D03*
X100104000Y-86610000D03*
X98934625Y-122830000D03*
X84570000Y-59040000D03*
X84140000Y-55460000D03*
X111910000Y-113420000D03*
X80870000Y-120364000D03*
X84600000Y-71950000D03*
X93090000Y-58540000D03*
X99870000Y-64390000D03*
X84125375Y-47402373D03*
X75915375Y-55762373D03*
X120250000Y-118780000D03*
X95928000Y-86610000D03*
X115156667Y-88220000D03*
X75410000Y-51970000D03*
X117670000Y-88220000D03*
X93100000Y-105930000D03*
X75440000Y-77440000D03*
X93940000Y-53590000D03*
X119710000Y-76730000D03*
%TO.N,GlycolSol*%
X86364625Y-66872627D03*
%TO.N,EN_FP*%
X167700000Y-94200000D03*
%TO.N,12V_FP*%
X152250000Y-98880000D03*
X152340000Y-108050000D03*
X152340000Y-115070000D03*
X153420000Y-125970000D03*
X162380000Y-38170000D03*
X163680000Y-116360000D03*
X152350000Y-115680000D03*
X154030000Y-125960000D03*
X152260000Y-99490000D03*
X152320000Y-106830000D03*
X167270000Y-123580000D03*
X152330000Y-114460000D03*
X152270000Y-100100000D03*
X154640000Y-125950000D03*
X151370000Y-90880000D03*
X152330000Y-107440000D03*
%TO.N,Heater Fans_FP*%
X167600000Y-98800000D03*
%TO.N,EN*%
X124000000Y-127400000D03*
X91130000Y-116200000D03*
%TO.N,Piezo2*%
X100294625Y-67820000D03*
%TO.N,Piezo1*%
X100264625Y-70350000D03*
%TO.N,Soil_Moisture4*%
X109000000Y-124505375D03*
%TO.N,Soil_Moisture1*%
X106800000Y-125000000D03*
%TO.N,Soil_Moisture2*%
X105800000Y-125400000D03*
%TO.N,WaterSol*%
X86364625Y-54172627D03*
%TO.N,FoggerSol*%
X77564625Y-49972627D03*
%TO.N,Heater Fans*%
X77564625Y-62767627D03*
%TO.N,Fan_Tach*%
X107397537Y-105202463D03*
X109897537Y-107702463D03*
%TO.N,Circ_Fan*%
X77564625Y-75453574D03*
%TO.N,External_Fan_PWM*%
X106780000Y-106280000D03*
X108890000Y-108490000D03*
%TO.N,Heartbeat_LED*%
X94600000Y-130000000D03*
%TO.N,SoilMoisture2_FP*%
X152000000Y-66000000D03*
X147200000Y-66000000D03*
%TO.N,Circ_Fan_FP*%
X155600000Y-89600000D03*
%TO.N,Heartbeat_LED_FP*%
X156600000Y-96200000D03*
%TO.N,KSD_Fault*%
X111390000Y-133320000D03*
X127200000Y-72400000D03*
%TO.N,Memory_IO3*%
X84630000Y-101890000D03*
X83220000Y-98020000D03*
%TD*%
%TO.N,DrainSol*%
D29*
X86360023Y-79954648D02*
X86360023Y-81410023D01*
X104510000Y-99560000D02*
X106220000Y-99560000D01*
X86360023Y-81410023D02*
X104510000Y-99560000D01*
X106220000Y-99560000D02*
X107920000Y-101260000D01*
%TO.N,Drain_Level_FP*%
X154000000Y-65800000D02*
X154000000Y-65000000D01*
X152775735Y-67024265D02*
X154000000Y-65800000D01*
X154000000Y-65000000D02*
X160990000Y-58010000D01*
X163150000Y-58010000D02*
X164200000Y-56960000D01*
X152775735Y-67494265D02*
X152775735Y-67024265D01*
X160990000Y-58010000D02*
X163150000Y-58010000D01*
%TO.N,Fogger_Basin_Float_Switch_FP*%
X152590000Y-66610000D02*
X153600000Y-65600000D01*
X153600000Y-64834314D02*
X156800000Y-61634314D01*
X153600000Y-65600000D02*
X153600000Y-64834314D01*
X163150000Y-55470000D02*
X164200000Y-54420000D01*
X161665075Y-55470000D02*
X163150000Y-55470000D01*
X151290000Y-66600000D02*
X151300000Y-66610000D01*
X156800000Y-61634314D02*
X156800000Y-60335075D01*
X156800000Y-60335075D02*
X161665075Y-55470000D01*
X151300000Y-66610000D02*
X152590000Y-66610000D01*
%TO.N,BootMode*%
X127100000Y-121300000D02*
X127100000Y-107740000D01*
X127100000Y-107740000D02*
X123160000Y-103800000D01*
%TO.N,GlycolSol*%
X86364625Y-77544625D02*
X86364625Y-66872627D01*
X110460000Y-101260000D02*
X108060000Y-98860000D01*
X110080000Y-101260000D02*
X110460000Y-101260000D01*
X104420000Y-98860000D02*
X87390000Y-81830000D01*
X87390000Y-81830000D02*
X87390000Y-78570000D01*
X87390000Y-78570000D02*
X86364625Y-77544625D01*
X108060000Y-98860000D02*
X104420000Y-98860000D01*
%TO.N,EN_FP*%
X167700000Y-94200000D02*
X167720000Y-94180000D01*
X167720000Y-55400000D02*
X164200000Y-51880000D01*
X167720000Y-94180000D02*
X167720000Y-55400000D01*
%TO.N,12V_FP*%
X152230000Y-47870000D02*
X157510000Y-42590000D01*
X162380000Y-39090000D02*
X162380000Y-38170000D01*
X149760000Y-50340000D02*
X149760000Y-49160000D01*
X149760000Y-49160000D02*
X151050000Y-47870000D01*
X160260000Y-41210000D02*
X162380000Y-39090000D01*
X145330000Y-54770000D02*
X149760000Y-50340000D01*
X151050000Y-47870000D02*
X152230000Y-47870000D01*
X145330000Y-93335000D02*
X145330000Y-54770000D01*
X157510000Y-42590000D02*
X157510000Y-41340000D01*
X157510000Y-41340000D02*
X157640000Y-41210000D01*
X157640000Y-41210000D02*
X160260000Y-41210000D01*
X142200000Y-96465000D02*
X145330000Y-93335000D01*
%TO.N,Heater Fans_FP*%
X167600000Y-98800000D02*
X167100000Y-98300000D01*
X167100000Y-98300000D02*
X167100000Y-80180000D01*
X167100000Y-80180000D02*
X164200000Y-77280000D01*
%TO.N,EN*%
X123800000Y-127400000D02*
X124000000Y-127400000D01*
X115000000Y-128000000D02*
X115000000Y-123600000D01*
X109200000Y-133800000D02*
X115000000Y-128000000D01*
X120200000Y-123600000D02*
X124000000Y-127400000D01*
X91130000Y-116200000D02*
X91000000Y-116330000D01*
X91000000Y-116330000D02*
X91000000Y-131200000D01*
X93600000Y-133800000D02*
X109200000Y-133800000D01*
X91000000Y-131200000D02*
X93600000Y-133800000D01*
X115000000Y-123600000D02*
X120200000Y-123600000D01*
%TO.N,LEDs*%
X128240000Y-86830000D02*
X128240000Y-101260000D01*
X104659924Y-62471395D02*
X104940000Y-62751471D01*
X104940000Y-62751471D02*
X104940000Y-63248529D01*
X94200000Y-44725285D02*
X94200000Y-49025000D01*
X104940000Y-63248529D02*
X104799265Y-63389265D01*
X103956981Y-58781981D02*
X103956981Y-58977057D01*
X103956981Y-58977057D02*
X104659924Y-59680000D01*
X104659924Y-59680000D02*
X104659924Y-62471395D01*
X91487342Y-42012627D02*
X94200000Y-44725285D01*
X104799265Y-63389265D02*
X128240000Y-86830000D01*
X94200000Y-49025000D02*
X103956981Y-58781981D01*
%TO.N,Piezo2*%
X125700000Y-96700000D02*
X123560000Y-94560000D01*
X114260000Y-73730000D02*
X102995686Y-73730000D01*
X100864625Y-68964625D02*
X100294625Y-68394625D01*
X125700000Y-101260000D02*
X125700000Y-96700000D01*
X100864625Y-71598939D02*
X100864625Y-68964625D01*
X123560000Y-94560000D02*
X123560000Y-83030000D01*
X100294625Y-68394625D02*
X100294625Y-67820000D01*
X102995686Y-73730000D02*
X100864625Y-71598939D01*
X123560000Y-83030000D02*
X114260000Y-73730000D01*
%TO.N,Piezo1*%
X123160000Y-101260000D02*
X123160000Y-83195686D01*
X102830000Y-74130000D02*
X100264625Y-71564625D01*
X123160000Y-83195686D02*
X114094314Y-74130000D01*
X114094314Y-74130000D02*
X102830000Y-74130000D01*
X100264625Y-71564625D02*
X100264625Y-70350000D01*
%TO.N,Soil_Moisture4*%
X109000000Y-124505375D02*
X107400000Y-122905375D01*
X107400000Y-122905375D02*
X107400000Y-114820000D01*
X107400000Y-114820000D02*
X116590000Y-105630000D01*
X116590000Y-102310000D02*
X115540000Y-101260000D01*
X116590000Y-105630000D02*
X116590000Y-102310000D01*
%TO.N,Soil_Moisture1*%
X115540000Y-106050000D02*
X115540000Y-103800000D01*
X106800000Y-114790000D02*
X115540000Y-106050000D01*
X106800000Y-125000000D02*
X106800000Y-114790000D01*
%TO.N,Soil_Moisture2*%
X114200000Y-106810000D02*
X114200000Y-102460000D01*
X105800000Y-125400000D02*
X105800000Y-115210000D01*
X105800000Y-115210000D02*
X114200000Y-106810000D01*
X114200000Y-102460000D02*
X113000000Y-101260000D01*
%TO.N,WaterSol*%
X101140000Y-89740000D02*
X111950000Y-100550000D01*
X88400000Y-81900000D02*
X96240000Y-89740000D01*
X88400000Y-61000000D02*
X88400000Y-81900000D01*
X96240000Y-89740000D02*
X101140000Y-89740000D01*
X86364625Y-54172627D02*
X86364625Y-58964625D01*
X111950000Y-100550000D02*
X111950000Y-102750000D01*
X111950000Y-102750000D02*
X113000000Y-103800000D01*
X86364625Y-58964625D02*
X88400000Y-61000000D01*
%TO.N,FoggerSol*%
X79870000Y-80080000D02*
X84200000Y-80080000D01*
X79078002Y-52378002D02*
X79870000Y-53170000D01*
X79078002Y-51486004D02*
X79078002Y-52378002D01*
X84200000Y-80080000D02*
X105380000Y-101260000D01*
X79870000Y-53170000D02*
X79870000Y-80080000D01*
X77564625Y-49972627D02*
X79078002Y-51486004D01*
%TO.N,Heater Fans*%
X98030000Y-99680000D02*
X100380000Y-99680000D01*
X104180000Y-102600000D02*
X105380000Y-103800000D01*
X101570000Y-100870000D02*
X101570000Y-101770000D01*
X78800000Y-64003002D02*
X78800000Y-80450000D01*
X100380000Y-99680000D02*
X101570000Y-100870000D01*
X101570000Y-101770000D02*
X102400000Y-102600000D01*
X77564625Y-62767627D02*
X78800000Y-64003002D01*
X78800000Y-80450000D02*
X98030000Y-99680000D01*
X102400000Y-102600000D02*
X104180000Y-102600000D01*
%TO.N,Fan_Tach*%
X109897537Y-107702463D02*
X107397537Y-105202463D01*
%TO.N,Circ_Fan*%
X77564625Y-75453574D02*
X77564625Y-80364625D01*
X77564625Y-80364625D02*
X99800000Y-102600000D01*
X101640000Y-102600000D02*
X102840000Y-103800000D01*
X99800000Y-102600000D02*
X101640000Y-102600000D01*
%TO.N,External_Fan_PWM*%
X106780000Y-106290000D02*
X108890000Y-108400000D01*
X106780000Y-106280000D02*
X106780000Y-106290000D01*
X108890000Y-108400000D02*
X108890000Y-108490000D01*
%TO.N,Heartbeat_LED*%
X97030000Y-127570000D02*
X97030000Y-111370000D01*
X94600000Y-130000000D02*
X97030000Y-127570000D01*
X100325000Y-108075000D02*
X100325000Y-103945000D01*
X97030000Y-111370000D02*
X100325000Y-108075000D01*
%TO.N,SoilMoisture2_FP*%
X147200000Y-66000000D02*
X152000000Y-66000000D01*
%TO.N,Circ_Fan_FP*%
X161304925Y-84200000D02*
X161600000Y-84200000D01*
X161600000Y-84200000D02*
X163000000Y-82800000D01*
X163000000Y-81020000D02*
X164200000Y-79820000D01*
X163000000Y-82800000D02*
X163000000Y-81020000D01*
X155904925Y-89600000D02*
X161304925Y-84200000D01*
X155600000Y-89600000D02*
X155904925Y-89600000D01*
%TO.N,Heartbeat_LED_FP*%
X156600000Y-96200000D02*
X156600000Y-95000000D01*
X156600000Y-89600000D02*
X159000000Y-89600000D01*
X155600000Y-90600000D02*
X156600000Y-89600000D01*
X164200000Y-84400000D02*
X164200000Y-82360000D01*
X156600000Y-95000000D02*
X155600000Y-94000000D01*
X159000000Y-89600000D02*
X164200000Y-84400000D01*
X155600000Y-94000000D02*
X155600000Y-90600000D01*
%TO.N,KSD_Fault*%
X128674925Y-100210000D02*
X128640000Y-100210000D01*
X128150000Y-125703103D02*
X128150000Y-104850000D01*
X129290000Y-100825075D02*
X128674925Y-100210000D01*
X127190000Y-104234925D02*
X127190000Y-103365075D01*
X111390000Y-133320000D02*
X112650000Y-134580000D01*
X127805075Y-104850000D02*
X127190000Y-104234925D01*
X129290000Y-101694925D02*
X129290000Y-100825075D01*
X128674925Y-102310000D02*
X129290000Y-101694925D01*
X112650000Y-134580000D02*
X119273103Y-134580000D01*
X128150000Y-102310000D02*
X128674925Y-102310000D01*
X128150000Y-86174314D02*
X128150000Y-77630000D01*
X128150000Y-77630000D02*
X127200000Y-76680000D01*
X128150000Y-102750000D02*
X128150000Y-102310000D01*
X127805075Y-102750000D02*
X128150000Y-102750000D01*
X127190000Y-103365075D02*
X127805075Y-102750000D01*
X128150000Y-104850000D02*
X127805075Y-104850000D01*
X128640000Y-86664314D02*
X128150000Y-86174314D01*
X119273103Y-134580000D02*
X128150000Y-125703103D01*
X128640000Y-100210000D02*
X128640000Y-86664314D01*
X127200000Y-76680000D02*
X127200000Y-72400000D01*
%TO.N,Memory_IO3*%
X84630000Y-101890000D02*
X83220000Y-100480000D01*
X83220000Y-100480000D02*
X83220000Y-98020000D01*
%TD*%
M02*
