%TF.GenerationSoftware,KiCad,Pcbnew,10.0.4*%
%TF.CreationDate,2026-07-16T23:23:22-05:00*%
%TF.ProjectId,GrowChamberPCB,47726f77-4368-4616-9d62-65725043422e,rev?*%
%TF.SameCoordinates,Original*%
%TF.FileFunction,Soldermask,Bot*%
%TF.FilePolarity,Negative*%
%FSLAX46Y46*%
G04 Gerber Fmt 4.6, Leading zero omitted, Abs format (unit mm)*
G04 Created by KiCad (PCBNEW 10.0.4) date 2026-07-16 23:23:22*
%MOMM*%
%LPD*%
G01*
G04 APERTURE LIST*
G04 Aperture macros list*
%AMRoundRect*
0 Rectangle with rounded corners*
0 $1 Rounding radius*
0 $2 $3 $4 $5 $6 $7 $8 $9 X,Y pos of 4 corners*
0 Add a 4 corners polygon primitive as box body*
4,1,4,$2,$3,$4,$5,$6,$7,$8,$9,$2,$3,0*
0 Add four circle primitives for the rounded corners*
1,1,$1+$1,$2,$3*
1,1,$1+$1,$4,$5*
1,1,$1+$1,$6,$7*
1,1,$1+$1,$8,$9*
0 Add four rect primitives between the rounded corners*
20,1,$1+$1,$2,$3,$4,$5,0*
20,1,$1+$1,$4,$5,$6,$7,0*
20,1,$1+$1,$6,$7,$8,$9,0*
20,1,$1+$1,$8,$9,$2,$3,0*%
G04 Aperture macros list end*
%ADD10C,0.800000*%
%ADD11C,6.400000*%
%ADD12RoundRect,0.250000X-0.845000X0.620000X-0.845000X-0.620000X0.845000X-0.620000X0.845000X0.620000X0*%
%ADD13O,2.190000X1.740000*%
%ADD14R,1.700000X1.700000*%
%ADD15C,1.700000*%
%ADD16O,1.600000X1.300000*%
%ADD17O,2.000000X3.000000*%
%ADD18C,1.800000*%
%ADD19C,2.000000*%
%ADD20R,1.500000X1.500000*%
%ADD21C,1.500000*%
%ADD22C,0.700000*%
%ADD23O,2.000000X1.100000*%
%ADD24O,1.800000X1.200000*%
%ADD25C,1.600000*%
%ADD26R,2.000000X2.000000*%
%ADD27O,1.300000X1.600000*%
%ADD28O,3.000000X2.000000*%
G04 APERTURE END LIST*
D10*
%TO.C,H1*%
X129034625Y-131000000D03*
X129737569Y-129302944D03*
X129737569Y-132697056D03*
X131434625Y-128600000D03*
D11*
X131434625Y-131000000D03*
D10*
X131434625Y-133400000D03*
X133131681Y-129302944D03*
X133131681Y-132697056D03*
X133834625Y-131000000D03*
%TD*%
D12*
%TO.C,J1*%
X141990000Y-41245000D03*
D13*
X141990000Y-43785000D03*
%TD*%
D14*
%TO.C,J48*%
X71884625Y-109740000D03*
D15*
X71884625Y-107200000D03*
X71884625Y-104660000D03*
X71884625Y-102120000D03*
X71884625Y-99580000D03*
X71884625Y-97040000D03*
X71884625Y-94500000D03*
X71884625Y-91960000D03*
X71884625Y-89420000D03*
%TD*%
D16*
%TO.C,SW5*%
X159410000Y-100650000D03*
X161400000Y-100650000D03*
X163410000Y-100650000D03*
D17*
X165510000Y-100650000D03*
X157310000Y-100650000D03*
%TD*%
D10*
%TO.C,H3*%
X72334625Y-131000000D03*
X73037569Y-129302944D03*
X73037569Y-132697056D03*
X74734625Y-128600000D03*
D11*
X74734625Y-131000000D03*
D10*
X74734625Y-133400000D03*
X76431681Y-129302944D03*
X76431681Y-132697056D03*
X77134625Y-131000000D03*
%TD*%
D18*
%TO.C,RLY1*%
X109856981Y-58480000D03*
D19*
X109856981Y-46980000D03*
X109856981Y-39980000D03*
D18*
X105156981Y-58480000D03*
%TD*%
D12*
%TO.C,J12*%
X142200000Y-64200000D03*
D13*
X142200000Y-66740000D03*
X142200000Y-69280000D03*
%TD*%
D12*
%TO.C,J10*%
X151980000Y-81725000D03*
D13*
X151980000Y-84265000D03*
%TD*%
D20*
%TO.C,U4*%
X130780000Y-101260000D03*
D21*
X130780000Y-103800000D03*
X128240000Y-101260000D03*
X128240000Y-103800000D03*
X125700000Y-101260000D03*
X125700000Y-103800000D03*
X123160000Y-101260000D03*
X123160000Y-103800000D03*
X120620000Y-101260000D03*
X120620000Y-103800000D03*
X118080000Y-101260000D03*
X118080000Y-103800000D03*
X115540000Y-101260000D03*
X115540000Y-103800000D03*
X113000000Y-101260000D03*
X113000000Y-103800000D03*
X110460000Y-101260000D03*
X110460000Y-103800000D03*
X107920000Y-101260000D03*
X107920000Y-103800000D03*
X105380000Y-101260000D03*
X105380000Y-103800000D03*
X102840000Y-101260000D03*
X102840000Y-103800000D03*
X100300000Y-101260000D03*
X100300000Y-103800000D03*
%TD*%
D16*
%TO.C,SW4*%
X159600000Y-91450000D03*
X161590000Y-91450000D03*
X163600000Y-91450000D03*
D17*
X165700000Y-91450000D03*
X157500000Y-91450000D03*
%TD*%
D22*
%TO.C,USB1*%
X76067125Y-115745000D03*
X76067125Y-121525000D03*
D23*
X76597125Y-114315000D03*
D24*
X72387125Y-114315000D03*
D23*
X76597125Y-122955000D03*
D24*
X72387125Y-122955000D03*
%TD*%
D12*
%TO.C,J5*%
X142200000Y-101550000D03*
D13*
X142200000Y-104090000D03*
%TD*%
D25*
%TO.C,LED13*%
X131770000Y-46710000D03*
X131770000Y-49250000D03*
%TD*%
D10*
%TO.C,H6*%
X150800000Y-131000000D03*
X151502944Y-129302944D03*
X151502944Y-132697056D03*
X153200000Y-128600000D03*
D11*
X153200000Y-131000000D03*
D10*
X153200000Y-133400000D03*
X154897056Y-129302944D03*
X154897056Y-132697056D03*
X155600000Y-131000000D03*
%TD*%
D12*
%TO.C,J16*%
X152000000Y-74600000D03*
D13*
X152000000Y-77140000D03*
%TD*%
D25*
%TO.C,LED10*%
X150600000Y-96470000D03*
X150600000Y-93930000D03*
%TD*%
D10*
%TO.C,H5*%
X150800000Y-41000000D03*
X151502944Y-39302944D03*
X151502944Y-42697056D03*
X153200000Y-38600000D03*
D11*
X153200000Y-41000000D03*
D10*
X153200000Y-43400000D03*
X154897056Y-39302944D03*
X154897056Y-42697056D03*
X155600000Y-41000000D03*
%TD*%
D25*
%TO.C,LED4*%
X150600000Y-119470000D03*
X150600000Y-116930000D03*
%TD*%
D12*
%TO.C,J6*%
X142200000Y-109175000D03*
D13*
X142200000Y-111715000D03*
%TD*%
D25*
%TO.C,LED9*%
X165200000Y-42470000D03*
X165200000Y-39930000D03*
%TD*%
D19*
%TO.C,P2*%
X116856981Y-46480000D03*
X116856981Y-41480000D03*
%TD*%
%TO.C,P3*%
X96487342Y-42012627D03*
X91487342Y-42012627D03*
%TD*%
D10*
%TO.C,H2*%
X129034625Y-41000000D03*
X129737569Y-39302944D03*
X129737569Y-42697056D03*
X131434625Y-38600000D03*
D11*
X131434625Y-41000000D03*
D10*
X131434625Y-43400000D03*
X133131681Y-39302944D03*
X133131681Y-42697056D03*
X133834625Y-41000000D03*
%TD*%
D14*
%TO.C,J47*%
X75884625Y-105350000D03*
D15*
X75884625Y-102810000D03*
X75884625Y-100270000D03*
X75884625Y-97730000D03*
%TD*%
D20*
%TO.C,U2*%
X161660000Y-51880000D03*
D21*
X164200000Y-51880000D03*
X161660000Y-54420000D03*
X164200000Y-54420000D03*
X161660000Y-56960000D03*
X164200000Y-56960000D03*
X161660000Y-59500000D03*
X164200000Y-59500000D03*
X161660000Y-62040000D03*
X164200000Y-62040000D03*
X161660000Y-64580000D03*
X164200000Y-64580000D03*
X161660000Y-67120000D03*
X164200000Y-67120000D03*
X161660000Y-69660000D03*
X164200000Y-69660000D03*
X161660000Y-72200000D03*
X164200000Y-72200000D03*
X161660000Y-74740000D03*
X164200000Y-74740000D03*
X161660000Y-77280000D03*
X164200000Y-77280000D03*
X161660000Y-79820000D03*
X164200000Y-79820000D03*
X161660000Y-82360000D03*
X164200000Y-82360000D03*
%TD*%
D19*
%TO.C,Power_FP1*%
X163050000Y-126750000D03*
X163050000Y-131750000D03*
%TD*%
D25*
%TO.C,LED3*%
X165600000Y-110930000D03*
X165600000Y-113470000D03*
%TD*%
D12*
%TO.C,J3*%
X142200000Y-50460000D03*
D13*
X142200000Y-53000000D03*
X142200000Y-55540000D03*
X142200000Y-58080000D03*
%TD*%
D12*
%TO.C,J7*%
X142200000Y-116800000D03*
D13*
X142200000Y-119340000D03*
%TD*%
D25*
%TO.C,LED2*%
X150600000Y-126270000D03*
X150600000Y-123730000D03*
%TD*%
D12*
%TO.C,J4*%
X157380000Y-118000000D03*
D13*
X157380000Y-120540000D03*
%TD*%
D12*
%TO.C,J14*%
X151780000Y-50060000D03*
D13*
X151780000Y-52600000D03*
X151780000Y-55140000D03*
%TD*%
D19*
%TO.C,P1*%
X130400000Y-81100000D03*
X130400000Y-76100000D03*
%TD*%
D26*
%TO.C,J50*%
X156800000Y-124200000D03*
%TD*%
D25*
%TO.C,LED1*%
X159400000Y-42470000D03*
X159400000Y-39930000D03*
%TD*%
%TO.C,LED6*%
X150600000Y-104000000D03*
X150600000Y-101460000D03*
%TD*%
D27*
%TO.C,SW3*%
X118234625Y-131180000D03*
X118234625Y-129190000D03*
X118234625Y-127180000D03*
D28*
X118234625Y-125080000D03*
X118234625Y-133280000D03*
%TD*%
D12*
%TO.C,J8*%
X142200000Y-93925000D03*
D13*
X142200000Y-96465000D03*
%TD*%
D10*
%TO.C,H4*%
X72334625Y-41000000D03*
X73037569Y-39302944D03*
X73037569Y-42697056D03*
X74734625Y-38600000D03*
D11*
X74734625Y-41000000D03*
D10*
X74734625Y-43400000D03*
X76431681Y-39302944D03*
X76431681Y-42697056D03*
X77134625Y-41000000D03*
%TD*%
D19*
%TO.C,L3*%
X115000000Y-63080000D03*
X127000000Y-63080000D03*
%TD*%
D12*
%TO.C,J15*%
X142180000Y-124050000D03*
D13*
X142180000Y-126590000D03*
X142180000Y-129130000D03*
X142180000Y-131670000D03*
%TD*%
D12*
%TO.C,J13*%
X142200000Y-74120000D03*
D13*
X142200000Y-76660000D03*
X142200000Y-79200000D03*
%TD*%
D12*
%TO.C,J2*%
X142180000Y-84000000D03*
D13*
X142180000Y-86540000D03*
X142180000Y-89080000D03*
%TD*%
D25*
%TO.C,LED5*%
X150600000Y-111940000D03*
X150600000Y-109400000D03*
%TD*%
D12*
%TO.C,J9*%
X157400000Y-110800000D03*
D13*
X157400000Y-113340000D03*
%TD*%
D25*
%TO.C,LED7*%
X158800000Y-107400000D03*
X158800000Y-104860000D03*
%TD*%
%TO.C,LED8*%
X165600000Y-117730000D03*
X165600000Y-120270000D03*
%TD*%
M02*
