M48
; DRILL file KiCad 10.0.4 date 2026-07-16T23:23:32
; FORMAT={-:-/ absolute / metric / decimal}
; #@! TF.CreationDate,2026-07-16T23:23:32-05:00
; #@! TF.GenerationSoftware,Kicad,Pcbnew,10.0.4
; #@! TF.FileFunction,Plated,1,4,PTH
FMAT,2
METRIC
; #@! TA.AperFunction,Plated,PTH,ViaDrill
T1C0.300
; #@! TA.AperFunction,Plated,PTH,ComponentDrill
T2C0.500
; #@! TA.AperFunction,Plated,PTH,ComponentDrill
T3C0.600
; #@! TA.AperFunction,Plated,PTH,ComponentDrill
T4C0.900
; #@! TA.AperFunction,Plated,PTH,ComponentDrill
T5C1.000
; #@! TA.AperFunction,Plated,PTH,ComponentDrill
T6C1.020
; #@! TA.AperFunction,Plated,PTH,ComponentDrill
T7C1.100
; #@! TA.AperFunction,Plated,PTH,ComponentDrill
T8C1.190
; #@! TA.AperFunction,Plated,PTH,ComponentDrill
T9C1.200
; #@! TA.AperFunction,Plated,PTH,ComponentDrill
T10C1.300
; #@! TA.AperFunction,Plated,PTH,ComponentDrill
T11C3.200
%
G90
G05
T1
X70.8Y-47.6
X70.878Y-60.4
X70.878Y-73.1
X71.9Y-46.5
X71.9Y-48.7
X71.978Y-59.3
X71.978Y-61.5
X71.978Y-72.0
X71.978Y-74.2
X75.37Y-64.75
X75.38Y-64.07
X75.41Y-51.97
X75.42Y-51.29
X75.44Y-77.44
X75.45Y-76.76
X75.79Y-68.61
X75.8Y-67.93
X75.915Y-55.762
X75.925Y-55.082
X76.195Y-81.262
X76.205Y-80.582
X76.71Y-107.62
X76.925Y-112.17
X77.565Y-49.973
X77.565Y-62.768
X77.565Y-75.454
X78.172Y-115.422
X78.26Y-121.82
X78.93Y-124.69
X78.95Y-112.719
X78.978Y-39.5
X79.26Y-102.64
X79.3Y-97.97
X79.415Y-94.408
X79.61Y-124.7
X79.63Y-112.729
X79.678Y-51.8
X80.078Y-38.4
X80.078Y-40.6
X80.67Y-97.18
X80.695Y-93.068
X80.722Y-63.4
X80.722Y-65.6
X80.722Y-76.2
X80.722Y-79.0
X80.778Y-50.7
X80.778Y-52.9
X80.87Y-116.12
X80.87Y-120.364
X81.5Y-96.89
X81.822Y-64.5
X81.905Y-94.308
X81.922Y-77.6
X82.365Y-91.878
X82.64Y-94.56
X83.22Y-98.02
X83.67Y-43.63
X83.68Y-42.95
X84.125Y-47.402
X84.13Y-56.14
X84.135Y-46.722
X84.14Y-55.46
X84.22Y-81.95
X84.23Y-68.88
X84.23Y-81.27
X84.24Y-68.2
X84.56Y-59.72
X84.57Y-59.04
X84.59Y-72.63
X84.6Y-71.95
X84.63Y-101.89
X84.78Y-85.25
X85.07Y-106.97
X86.36Y-79.955
X86.365Y-54.173
X86.365Y-66.873
X87.25Y-110.47
X87.43Y-103.97
X87.43Y-106.97
X88.11Y-42.24
X88.12Y-41.56
X88.27Y-110.46
X89.4Y-49.2
X89.4Y-109.45
X90.33Y-109.48
X90.5Y-48.1
X90.5Y-50.3
X90.66Y-107.0
X91.13Y-116.2
X91.49Y-106.2
X91.81Y-114.98
X91.92Y-109.51
X91.93Y-108.74
X91.93Y-110.34
X92.0Y-111.25
X92.5Y-112.81
X93.09Y-58.54
X93.1Y-105.93
X93.57Y-108.71
X93.68Y-112.79
X93.94Y-53.59
X93.95Y-52.91
X94.366Y-114.986
X94.511Y-80.46
X94.536Y-86.61
X94.6Y-130.0
X95.1Y-69.1
X95.903Y-80.46
X95.928Y-86.61
X96.8Y-69.1
X97.28Y-64.745
X97.295Y-80.46
X97.32Y-86.61
X97.458Y-62.745
X98.08Y-65.645
X98.558Y-61.645
X98.558Y-63.845
X98.687Y-80.46
X98.712Y-86.61
X98.935Y-120.03
X98.935Y-121.43
X98.935Y-122.83
X99.86Y-65.07
X99.87Y-64.39
X100.079Y-80.46
X100.104Y-86.61
X100.17Y-110.11
X100.265Y-70.35
X100.295Y-67.82
X100.335Y-120.03
X100.335Y-121.43
X100.335Y-122.83
X101.471Y-80.46
X101.496Y-86.61
X101.735Y-120.03
X101.735Y-121.43
X101.735Y-122.83
X101.84Y-63.13
X101.85Y-62.45
X102.94Y-61.8
X104.34Y-63.0
X105.74Y-61.8
X105.8Y-125.4
X106.78Y-106.28
X106.8Y-125.0
X107.398Y-105.202
X108.89Y-108.49
X109.0Y-124.505
X109.18Y-110.8
X109.898Y-107.702
X111.39Y-133.32
X111.9Y-114.1
X111.91Y-113.42
X113.9Y-88.22
X114.72Y-133.83
X115.157Y-88.22
X115.78Y-81.77
X116.413Y-88.22
X117.1Y-81.83
X117.67Y-88.22
X117.7Y-82.82
X117.74Y-83.72
X119.71Y-76.73
X119.985Y-122.44
X119.995Y-121.76
X120.24Y-119.46
X120.25Y-118.78
X120.7Y-76.73
X121.84Y-75.74
X122.127Y-123.615
X122.14Y-127.78
X122.65Y-75.74
X122.82Y-123.53
X122.82Y-127.79
X124.0Y-127.4
X124.06Y-134.31
X124.57Y-85.91
X124.74Y-134.32
X125.12Y-123.22
X125.91Y-123.23
X127.1Y-121.3
X127.2Y-72.4
X130.47Y-53.45
X131.57Y-54.55
X132.67Y-53.45
X138.72Y-37.33
X138.73Y-37.94
X138.74Y-38.55
X138.77Y-46.57
X138.78Y-47.18
X138.79Y-47.79
X146.02Y-134.52
X146.37Y-98.07
X146.37Y-121.07
X146.4Y-113.14
X146.4Y-124.34
X146.55Y-37.91
X146.61Y-105.67
X146.69Y-134.53
X146.98Y-98.06
X146.98Y-121.06
X147.01Y-113.13
X147.01Y-124.33
X147.2Y-64.05
X147.2Y-66.0
X147.22Y-105.66
X147.3Y-134.52
X147.59Y-98.05
X147.59Y-121.05
X147.62Y-113.12
X147.62Y-124.32
X147.83Y-105.65
X148.18Y-59.44
X150.4Y-67.77
X150.4Y-72.11
X151.29Y-66.6
X151.37Y-90.88
X152.0Y-66.0
X152.07Y-63.99
X152.25Y-98.88
X152.26Y-99.49
X152.27Y-100.1
X152.32Y-106.83
X152.33Y-107.44
X152.33Y-114.46
X152.34Y-108.05
X152.34Y-115.07
X152.35Y-115.68
X152.776Y-67.494
X152.87Y-59.05
X153.42Y-125.97
X154.03Y-125.96
X154.64Y-125.95
X155.6Y-89.6
X155.67Y-86.89
X156.6Y-96.2
X161.064Y-96.305
X161.23Y-103.86
X161.395Y-98.226
X161.42Y-93.88
X161.6Y-122.06
X161.775Y-95.938
X161.8Y-115.04
X161.84Y-103.85
X162.21Y-122.05
X162.38Y-38.17
X162.41Y-115.03
X162.45Y-103.84
X162.82Y-122.04
X163.02Y-115.02
X163.68Y-116.36
X167.27Y-123.58
X167.6Y-98.8
X167.7Y-94.2
T2
X72.335Y-41.0
X72.335Y-131.0
X73.038Y-39.303
X73.038Y-42.697
X73.038Y-129.303
X73.038Y-132.697
X74.735Y-38.6
X74.735Y-43.4
X74.735Y-128.6
X74.735Y-133.4
X76.432Y-39.303
X76.432Y-42.697
X76.432Y-129.303
X76.432Y-132.697
X77.135Y-41.0
X77.135Y-131.0
X129.035Y-41.0
X129.035Y-131.0
X129.738Y-39.303
X129.738Y-42.697
X129.738Y-129.303
X129.738Y-132.697
X131.435Y-38.6
X131.435Y-43.4
X131.435Y-128.6
X131.435Y-133.4
X133.132Y-39.303
X133.132Y-42.697
X133.132Y-129.303
X133.132Y-132.697
X133.835Y-41.0
X133.835Y-131.0
X150.8Y-41.0
X150.8Y-131.0
X151.503Y-39.303
X151.503Y-42.697
X151.503Y-129.303
X151.503Y-132.697
X153.2Y-38.6
X153.2Y-43.4
X153.2Y-128.6
X153.2Y-133.4
X154.897Y-39.303
X154.897Y-42.697
X154.897Y-129.303
X154.897Y-132.697
X155.6Y-41.0
X155.6Y-131.0
T4
X118.235Y-127.18
X118.235Y-129.19
X118.235Y-131.18
X131.77Y-46.71
X131.77Y-49.25
X150.6Y-93.93
X150.6Y-96.47
X150.6Y-101.46
X150.6Y-104.0
X150.6Y-109.4
X150.6Y-111.94
X150.6Y-116.93
X150.6Y-119.47
X150.6Y-123.73
X150.6Y-126.27
X158.8Y-104.86
X158.8Y-107.4
X159.4Y-39.93
X159.4Y-42.47
X159.41Y-100.65
X159.6Y-91.45
X161.4Y-100.65
X161.59Y-91.45
X163.41Y-100.65
X163.6Y-91.45
X165.2Y-39.93
X165.2Y-42.47
X165.6Y-110.93
X165.6Y-113.47
X165.6Y-117.73
X165.6Y-120.27
T5
X71.885Y-89.42
X71.885Y-91.96
X71.885Y-94.5
X71.885Y-97.04
X71.885Y-99.58
X71.885Y-102.12
X71.885Y-104.66
X71.885Y-107.2
X71.885Y-109.74
X75.885Y-97.73
X75.885Y-100.27
X75.885Y-102.81
X75.885Y-105.35
X156.8Y-124.2
T6
X100.3Y-101.26
X100.3Y-103.8
X102.84Y-101.26
X102.84Y-103.8
X105.38Y-101.26
X105.38Y-103.8
X107.92Y-101.26
X107.92Y-103.8
X110.46Y-101.26
X110.46Y-103.8
X113.0Y-101.26
X113.0Y-103.8
X115.54Y-101.26
X115.54Y-103.8
X118.08Y-101.26
X118.08Y-103.8
X120.62Y-101.26
X120.62Y-103.8
X123.16Y-101.26
X123.16Y-103.8
X125.7Y-101.26
X125.7Y-103.8
X128.24Y-101.26
X128.24Y-103.8
X130.78Y-101.26
X130.78Y-103.8
X161.66Y-51.88
X161.66Y-54.42
X161.66Y-56.96
X161.66Y-59.5
X161.66Y-62.04
X161.66Y-64.58
X161.66Y-67.12
X161.66Y-69.66
X161.66Y-72.2
X161.66Y-74.74
X161.66Y-77.28
X161.66Y-79.82
X161.66Y-82.36
X164.2Y-51.88
X164.2Y-54.42
X164.2Y-56.96
X164.2Y-59.5
X164.2Y-62.04
X164.2Y-64.58
X164.2Y-67.12
X164.2Y-69.66
X164.2Y-72.2
X164.2Y-74.74
X164.2Y-77.28
X164.2Y-79.82
X164.2Y-82.36
T7
X105.157Y-58.48
X109.857Y-58.48
T8
X141.99Y-41.245
X141.99Y-43.785
X142.18Y-84.0
X142.18Y-86.54
X142.18Y-89.08
X142.18Y-124.05
X142.18Y-126.59
X142.18Y-129.13
X142.18Y-131.67
X142.2Y-50.46
X142.2Y-53.0
X142.2Y-55.54
X142.2Y-58.08
X142.2Y-64.2
X142.2Y-66.74
X142.2Y-69.28
X142.2Y-74.12
X142.2Y-76.66
X142.2Y-79.2
X142.2Y-93.925
X142.2Y-96.465
X142.2Y-101.55
X142.2Y-104.09
X142.2Y-109.175
X142.2Y-111.715
X142.2Y-116.8
X142.2Y-119.34
X151.78Y-50.06
X151.78Y-52.6
X151.78Y-55.14
X151.98Y-81.725
X151.98Y-84.265
X152.0Y-74.6
X152.0Y-77.14
X157.38Y-118.0
X157.38Y-120.54
X157.4Y-110.8
X157.4Y-113.34
T9
X91.487Y-42.013
X96.487Y-42.013
X116.857Y-41.48
X116.857Y-46.48
X130.4Y-76.1
X130.4Y-81.1
X163.05Y-126.75
X163.05Y-131.75
T10
X109.857Y-39.98
X109.857Y-46.98
X115.0Y-63.08
X118.235Y-125.08
X118.235Y-133.28
X127.0Y-63.08
X157.31Y-100.65
X157.5Y-91.45
X165.51Y-100.65
X165.7Y-91.45
T11
X74.735Y-41.0
X74.735Y-131.0
X131.435Y-41.0
X131.435Y-131.0
X153.2Y-41.0
X153.2Y-131.0
T3
X72.687Y-114.315G85X72.087Y-114.315
G05
X72.687Y-122.955G85X72.087Y-122.955
G05
X77.047Y-114.315G85X76.147Y-114.315
G05
X77.047Y-122.955G85X76.147Y-122.955
G05
M30
