%TF.GenerationSoftware,KiCad,Pcbnew,10.0.4*%
%TF.CreationDate,2026-07-16T23:23:21-05:00*%
%TF.ProjectId,GrowChamberPCB,47726f77-4368-4616-9d62-65725043422e,rev?*%
%TF.SameCoordinates,Original*%
%TF.FileFunction,Copper,L1,Top*%
%TF.FilePolarity,Positive*%
%FSLAX46Y46*%
G04 Gerber Fmt 4.6, Leading zero omitted, Abs format (unit mm)*
G04 Created by KiCad (PCBNEW 10.0.4) date 2026-07-16 23:23:21*
%MOMM*%
%LPD*%
G01*
G04 APERTURE LIST*
G04 Aperture macros list*
%AMRoundRect*
0 Rectangle with rounded corners*
0 $1 Rounding radius*
0 $2 $3 $4 $5 $6 $7 $8 $9 X,Y pos of 4 corners*
0 Add a 4 corners polygon primitive as box body*
4,1,4,$2,$3,$4,$5,$6,$7,$8,$9,$2,$3,0*
0 Add four circle primitives for the rounded corners*
1,1,$1+$1,$2,$3*
1,1,$1+$1,$4,$5*
1,1,$1+$1,$6,$7*
1,1,$1+$1,$8,$9*
0 Add four rect primitives between the rounded corners*
20,1,$1+$1,$2,$3,$4,$5,0*
20,1,$1+$1,$4,$5,$6,$7,0*
20,1,$1+$1,$6,$7,$8,$9,0*
20,1,$1+$1,$8,$9,$2,$3,0*%
G04 Aperture macros list end*
%TA.AperFunction,SMDPad,CuDef*%
%ADD10C,2.000000*%
%TD*%
%TA.AperFunction,SMDPad,CuDef*%
%ADD11R,1.377000X1.133000*%
%TD*%
%TA.AperFunction,ComponentPad*%
%ADD12C,0.800000*%
%TD*%
%TA.AperFunction,ComponentPad*%
%ADD13C,6.400000*%
%TD*%
%TA.AperFunction,SMDPad,CuDef*%
%ADD14R,1.133000X1.377000*%
%TD*%
%TA.AperFunction,SMDPad,CuDef*%
%ADD15R,1.072000X0.532000*%
%TD*%
%TA.AperFunction,SMDPad,CuDef*%
%ADD16R,1.200000X1.200000*%
%TD*%
%TA.AperFunction,ComponentPad*%
%ADD17RoundRect,0.250000X-0.845000X0.620000X-0.845000X-0.620000X0.845000X-0.620000X0.845000X0.620000X0*%
%TD*%
%TA.AperFunction,ComponentPad*%
%ADD18O,2.190000X1.740000*%
%TD*%
%TA.AperFunction,SMDPad,CuDef*%
%ADD19R,0.800000X0.900000*%
%TD*%
%TA.AperFunction,SMDPad,CuDef*%
%ADD20R,0.532000X1.072000*%
%TD*%
%TA.AperFunction,SMDPad,CuDef*%
%ADD21R,0.864000X0.806000*%
%TD*%
%TA.AperFunction,ComponentPad*%
%ADD22R,1.700000X1.700000*%
%TD*%
%TA.AperFunction,ComponentPad*%
%ADD23C,1.700000*%
%TD*%
%TA.AperFunction,SMDPad,CuDef*%
%ADD24R,0.806000X0.864000*%
%TD*%
%TA.AperFunction,SMDPad,CuDef*%
%ADD25R,0.650000X1.000000*%
%TD*%
%TA.AperFunction,ComponentPad*%
%ADD26O,1.600000X1.300000*%
%TD*%
%TA.AperFunction,ComponentPad*%
%ADD27O,2.000000X3.000000*%
%TD*%
%TA.AperFunction,ComponentPad*%
%ADD28C,1.800000*%
%TD*%
%TA.AperFunction,ComponentPad*%
%ADD29C,2.000000*%
%TD*%
%TA.AperFunction,SMDPad,CuDef*%
%ADD30R,1.350000X1.410000*%
%TD*%
%TA.AperFunction,ComponentPad*%
%ADD31R,1.500000X1.500000*%
%TD*%
%TA.AperFunction,ComponentPad*%
%ADD32C,1.500000*%
%TD*%
%TA.AperFunction,ComponentPad*%
%ADD33O,2.000000X1.100000*%
%TD*%
%TA.AperFunction,ComponentPad*%
%ADD34O,1.800000X1.200000*%
%TD*%
%TA.AperFunction,SMDPad,CuDef*%
%ADD35R,1.100000X0.550000*%
%TD*%
%TA.AperFunction,SMDPad,CuDef*%
%ADD36R,1.100000X0.300000*%
%TD*%
%TA.AperFunction,SMDPad,CuDef*%
%ADD37R,2.400000X3.200000*%
%TD*%
%TA.AperFunction,ComponentPad*%
%ADD38C,1.600000*%
%TD*%
%TA.AperFunction,SMDPad,CuDef*%
%ADD39R,0.900000X0.800000*%
%TD*%
%TA.AperFunction,SMDPad,CuDef*%
%ADD40R,1.728000X1.485000*%
%TD*%
%TA.AperFunction,SMDPad,CuDef*%
%ADD41R,0.830000X0.630000*%
%TD*%
%TA.AperFunction,SMDPad,CuDef*%
%ADD42O,0.630000X2.250000*%
%TD*%
%TA.AperFunction,SMDPad,CuDef*%
%ADD43R,2.000000X2.000000*%
%TD*%
%TA.AperFunction,ComponentPad*%
%ADD44R,2.000000X2.000000*%
%TD*%
%TA.AperFunction,SMDPad,CuDef*%
%ADD45R,0.540000X0.500000*%
%TD*%
%TA.AperFunction,ComponentPad*%
%ADD46O,1.300000X1.600000*%
%TD*%
%TA.AperFunction,ComponentPad*%
%ADD47O,3.000000X2.000000*%
%TD*%
%TA.AperFunction,SMDPad,CuDef*%
%ADD48R,1.860000X1.230000*%
%TD*%
%TA.AperFunction,SMDPad,CuDef*%
%ADD49R,1.410000X1.350000*%
%TD*%
%TA.AperFunction,SMDPad,CuDef*%
%ADD50O,2.045000X0.588000*%
%TD*%
%TA.AperFunction,SMDPad,CuDef*%
%ADD51R,1.500000X0.900000*%
%TD*%
%TA.AperFunction,SMDPad,CuDef*%
%ADD52R,0.900000X1.500000*%
%TD*%
%TA.AperFunction,SMDPad,CuDef*%
%ADD53R,0.900000X0.900000*%
%TD*%
%TA.AperFunction,SMDPad,CuDef*%
%ADD54R,0.500000X0.540000*%
%TD*%
%TA.AperFunction,SMDPad,CuDef*%
%ADD55R,1.300000X0.600000*%
%TD*%
%TA.AperFunction,SMDPad,CuDef*%
%ADD56R,2.500000X3.500000*%
%TD*%
%TA.AperFunction,ViaPad*%
%ADD57C,0.600000*%
%TD*%
%TA.AperFunction,Conductor*%
%ADD58C,0.200000*%
%TD*%
%TA.AperFunction,Conductor*%
%ADD59C,0.750000*%
%TD*%
%TA.AperFunction,Conductor*%
%ADD60C,0.500000*%
%TD*%
%TA.AperFunction,Conductor*%
%ADD61C,0.400000*%
%TD*%
%TA.AperFunction,Conductor*%
%ADD62C,2.000000*%
%TD*%
%TA.AperFunction,Conductor*%
%ADD63C,1.600000*%
%TD*%
%TA.AperFunction,Conductor*%
%ADD64C,1.000000*%
%TD*%
%TA.AperFunction,Conductor*%
%ADD65C,0.290000*%
%TD*%
G04 APERTURE END LIST*
D10*
%TO.P,J36,1,Pin_1_1*%
%TO.N,Net-(J36-Pin_1)*%
X86464625Y-57712627D03*
%TD*%
D11*
%TO.P,R54,1,1_1*%
%TO.N,3.3V*%
X87730000Y-111670000D03*
%TO.P,R54,2,2_2*%
%TO.N,EN*%
X87730000Y-113670000D03*
%TD*%
D12*
%TO.P,H1,1*%
%TO.N,N/C*%
X129034625Y-131000000D03*
X129737569Y-129302944D03*
X129737569Y-132697056D03*
X131434625Y-128600000D03*
D13*
X131434625Y-131000000D03*
D12*
X131434625Y-133400000D03*
X133131681Y-129302944D03*
X133131681Y-132697056D03*
X133834625Y-131000000D03*
%TD*%
D14*
%TO.P,R63,1,1_1*%
%TO.N,Net-(R63-Pad1)*%
X157590000Y-88110000D03*
%TO.P,R63,2,2_2*%
%TO.N,3.3V_FP*%
X155590000Y-88110000D03*
%TD*%
D15*
%TO.P,U13,1,I/O_1*%
%TO.N,TXD0_FP*%
X151750000Y-60400000D03*
%TO.P,U13,2,VN_2*%
%TO.N,3.3V_FP*%
X151750000Y-59450000D03*
%TO.P,U13,3,I/O_3*%
%TO.N,RXD0_FP*%
X151750000Y-58500000D03*
%TO.P,U13,4,I/O_4*%
%TO.N,SCL_FP*%
X149450000Y-58500000D03*
%TO.P,U13,5,VP_5*%
%TO.N,GND_FP*%
X149450000Y-59450000D03*
%TO.P,U13,6,I/O_6*%
%TO.N,SDA_FP*%
X149450000Y-60400000D03*
%TD*%
D16*
%TO.P,D31,1,K_1*%
%TO.N,12V*%
X80730023Y-77594648D03*
%TO.P,D31,2,A_2*%
%TO.N,DrainSol*%
X83990023Y-77594648D03*
%TD*%
D17*
%TO.P,J1,1,Pin_1_1*%
%TO.N,Piezo2_FP*%
X141990000Y-41245000D03*
D18*
%TO.P,J1,2,Pin_2_2*%
%TO.N,Piezo1_FP*%
X141990000Y-43785000D03*
%TD*%
D10*
%TO.P,J44,1,Pin_1_1*%
%TO.N,Fogger_Basin_Float_Switch*%
X120834625Y-116780000D03*
%TD*%
D19*
%TO.P,C8,1,1_1*%
%TO.N,Net-(U6-VSENSE)*%
X105730000Y-83060000D03*
%TO.P,C8,2,2_2*%
%TO.N,3.3V*%
X104330000Y-83060000D03*
%TD*%
D20*
%TO.P,U15,1,I/O_1*%
%TO.N,/Faceplate/Data Line ESD1/IO1*%
X149450000Y-71150000D03*
%TO.P,U15,2,VN_2*%
%TO.N,3.3V_FP*%
X150400000Y-71150000D03*
%TO.P,U15,3,I/O_3*%
%TO.N,/Faceplate/Data Line ESD1/IO2*%
X151350000Y-71150000D03*
%TO.P,U15,4,I/O_4*%
%TO.N,Drain_Level_FP*%
X151350000Y-68850000D03*
%TO.P,U15,5,VP_5*%
%TO.N,GND_FP*%
X150400000Y-68850000D03*
%TO.P,U15,6,I/O_6*%
%TO.N,Fogger_Basin_Float_Switch_FP*%
X149450000Y-68850000D03*
%TD*%
D21*
%TO.P,R15,1,1_1*%
%TO.N,Net-(U8-DO)*%
X83934625Y-105830000D03*
%TO.P,R15,2,2_2*%
%TO.N,MISO*%
X83934625Y-107330000D03*
%TD*%
D10*
%TO.P,J42,1,Pin_1_1*%
%TO.N,BootMode*%
X113834625Y-128280000D03*
%TD*%
D22*
%TO.P,J48,1,Pin_1_1*%
%TO.N,3.3V*%
X71884625Y-109740000D03*
D23*
%TO.P,J48,2,Pin_2_2*%
%TO.N,GND*%
X71884625Y-107200000D03*
%TO.P,J48,3,Pin_3_3*%
%TO.N,CS_Display*%
X71884625Y-104660000D03*
%TO.P,J48,4,Pin_4_4*%
%TO.N,Display_Reset*%
X71884625Y-102120000D03*
%TO.P,J48,5,Pin_5_5*%
%TO.N,DC_Display*%
X71884625Y-99580000D03*
%TO.P,J48,6,Pin_6_6*%
%TO.N,MOSI*%
X71884625Y-97040000D03*
%TO.P,J48,7,Pin_7_7*%
%TO.N,SCK*%
X71884625Y-94500000D03*
%TO.P,J48,8,Pin_8_8*%
%TO.N,3.3V*%
X71884625Y-91960000D03*
%TO.P,J48,9,Pin_9_9*%
%TO.N,unconnected-(J48-Pin_9-Pad9)*%
X71884625Y-89420000D03*
%TD*%
D16*
%TO.P,D6,1,K_1*%
%TO.N,Piezo2_FP*%
X143180000Y-37920000D03*
%TO.P,D6,2,A_2*%
%TO.N,GND_FP*%
X139920000Y-37920000D03*
%TD*%
D24*
%TO.P,R11,1,1_1*%
%TO.N,CS_SD*%
X88254625Y-124440000D03*
%TO.P,R11,2,2_2*%
%TO.N,Net-(U3-IO16)*%
X89754625Y-124440000D03*
%TD*%
D25*
%TO.P,Q7,1,G_1*%
%TO.N,Net-(J34-Pin_1)*%
X81414625Y-68512627D03*
%TO.P,Q7,2,S_2*%
%TO.N,GND*%
X83314625Y-68512627D03*
%TO.P,Q7,3,D_3*%
%TO.N,GlycolSol*%
X82364625Y-66512627D03*
%TD*%
D26*
%TO.P,SW5,1,1_1*%
%TO.N,unconnected-(SW5-Pad1)*%
X159410000Y-100650000D03*
%TO.P,SW5,2,2_2*%
%TO.N,EN_FP*%
X161400000Y-100650000D03*
%TO.P,SW5,3,3_3*%
%TO.N,GND_FP*%
X163410000Y-100650000D03*
D27*
%TO.P,SW5,4,4_4*%
%TO.N,unconnected-(SW5-Pad4)*%
X165510000Y-100650000D03*
%TO.P,SW5,5,5_5*%
%TO.N,unconnected-(SW5-Pad5)*%
X157310000Y-100650000D03*
%TD*%
D24*
%TO.P,R16,1,1_1*%
%TO.N,Net-(LED1-A)*%
X159600000Y-37800000D03*
%TO.P,R16,2,2_2*%
%TO.N,12V_FP*%
X161100000Y-37800000D03*
%TD*%
D12*
%TO.P,H3,1*%
%TO.N,N/C*%
X72334625Y-131000000D03*
X73037569Y-129302944D03*
X73037569Y-132697056D03*
X74734625Y-128600000D03*
D13*
X74734625Y-131000000D03*
D12*
X74734625Y-133400000D03*
X76431681Y-129302944D03*
X76431681Y-132697056D03*
X77134625Y-131000000D03*
%TD*%
D14*
%TO.P,R55,1,1_1*%
%TO.N,SDA*%
X106020000Y-110780000D03*
%TO.P,R55,2,2_2*%
%TO.N,3.3V*%
X108020000Y-110780000D03*
%TD*%
D28*
%TO.P,RLY1,1,1_1*%
%TO.N,Heater_ON*%
X109856981Y-58480000D03*
D29*
%TO.P,RLY1,2,2_2*%
%TO.N,120V_Out*%
X109856981Y-46980000D03*
%TO.P,RLY1,3,3_3*%
%TO.N,120V_IN*%
X109856981Y-39980000D03*
D28*
%TO.P,RLY1,4,4_4*%
%TO.N,12V*%
X105156981Y-58480000D03*
%TD*%
D11*
%TO.P,R41,1,1_1*%
%TO.N,GND*%
X83330000Y-59380000D03*
%TO.P,R41,2,2_2*%
%TO.N,Net-(J36-Pin_1)*%
X83330000Y-57380000D03*
%TD*%
D24*
%TO.P,R37,1,1_1*%
%TO.N,Net-(LED10-A)*%
X149850000Y-92000000D03*
%TO.P,R37,2,2_2*%
%TO.N,12V_FP*%
X151350000Y-92000000D03*
%TD*%
D16*
%TO.P,D27,1,K_1*%
%TO.N,12V*%
X80734625Y-64512627D03*
%TO.P,D27,2,A_2*%
%TO.N,GlycolSol*%
X83994625Y-64512627D03*
%TD*%
D17*
%TO.P,J12,1,Pin_1_1*%
%TO.N,GND_FP*%
X142200000Y-64200000D03*
D18*
%TO.P,J12,2,Pin_2_2*%
%TO.N,3.3V_FP*%
X142200000Y-66740000D03*
%TO.P,J12,3,Pin_3_3*%
%TO.N,SoilMoisture4_FP*%
X142200000Y-69280000D03*
%TD*%
D16*
%TO.P,D8,1,K_1*%
%TO.N,Heater Fans_FP*%
X162200000Y-117570000D03*
%TO.P,D8,2,A_2*%
%TO.N,GND_FP*%
X162200000Y-120830000D03*
%TD*%
D30*
%TO.P,C12,1,1_1*%
%TO.N,GND*%
X120134625Y-75180000D03*
%TO.P,C12,2,2_2*%
%TO.N,Net-(J41-Pin_1)*%
X120134625Y-73180000D03*
%TD*%
D17*
%TO.P,J10,1,Pin_1_1*%
%TO.N,Fogger_Basin_Float_Switch_FP*%
X151980000Y-81725000D03*
D18*
%TO.P,J10,2,Pin_2_2*%
%TO.N,3.3V_FP*%
X151980000Y-84265000D03*
%TD*%
D31*
%TO.P,U4,1,1_1*%
%TO.N,Heater_ON*%
X130780000Y-101260000D03*
D32*
%TO.P,U4,2,2_2*%
%TO.N,EN*%
X130780000Y-103800000D03*
%TO.P,U4,3,3_3*%
%TO.N,LEDs*%
X128240000Y-101260000D03*
%TO.P,U4,4,4_4*%
%TO.N,Fogger_Basin_Float_Switch*%
X128240000Y-103800000D03*
%TO.P,U4,5,5_5*%
%TO.N,Piezo2*%
X125700000Y-101260000D03*
%TO.P,U4,6,6_6*%
%TO.N,Drain_Level*%
X125700000Y-103800000D03*
%TO.P,U4,7,7_7*%
%TO.N,Piezo1*%
X123160000Y-101260000D03*
%TO.P,U4,8,8_8*%
%TO.N,BootMode*%
X123160000Y-103800000D03*
%TO.P,U4,9,9_9*%
%TO.N,TXD0*%
X120620000Y-101260000D03*
%TO.P,U4,10,10_10*%
%TO.N,RXD0*%
X120620000Y-103800000D03*
%TO.P,U4,11,11_11*%
%TO.N,SCL*%
X118080000Y-101260000D03*
%TO.P,U4,12,12_12*%
%TO.N,SDA*%
X118080000Y-103800000D03*
%TO.P,U4,13,13_13*%
%TO.N,Soil_Moisture4*%
X115540000Y-101260000D03*
%TO.P,U4,14,14_14*%
%TO.N,Soil_Moisture1*%
X115540000Y-103800000D03*
%TO.P,U4,15,15_15*%
%TO.N,Soil_Moisture2*%
X113000000Y-101260000D03*
%TO.P,U4,16,16_16*%
%TO.N,WaterSol*%
X113000000Y-103800000D03*
%TO.P,U4,17,17_17*%
%TO.N,GlycolSol*%
X110460000Y-101260000D03*
%TO.P,U4,18,18_18*%
%TO.N,3.3V*%
X110460000Y-103800000D03*
%TO.P,U4,19,19_19*%
%TO.N,DrainSol*%
X107920000Y-101260000D03*
%TO.P,U4,20,20_20*%
%TO.N,3.3V*%
X107920000Y-103800000D03*
%TO.P,U4,21,21_21*%
%TO.N,FoggerSol*%
X105380000Y-101260000D03*
%TO.P,U4,22,22_22*%
%TO.N,Heater Fans*%
X105380000Y-103800000D03*
%TO.P,U4,23,23_23*%
%TO.N,Fan_Tach*%
X102840000Y-101260000D03*
%TO.P,U4,24,24_24*%
%TO.N,Circ_Fan*%
X102840000Y-103800000D03*
%TO.P,U4,25,25_25*%
%TO.N,External_Fan_PWM*%
X100300000Y-101260000D03*
%TO.P,U4,26,26_26*%
%TO.N,Heartbeat_LED*%
X100300000Y-103800000D03*
%TD*%
D26*
%TO.P,SW4,1,1_1*%
%TO.N,Net-(R63-Pad1)*%
X159600000Y-91450000D03*
%TO.P,SW4,2,2_2*%
%TO.N,BootMode_FP*%
X161590000Y-91450000D03*
%TO.P,SW4,3,3_3*%
%TO.N,GND_FP*%
X163600000Y-91450000D03*
D27*
%TO.P,SW4,4,4_4*%
%TO.N,unconnected-(SW4-Pad4)*%
X165700000Y-91450000D03*
%TO.P,SW4,5,5_5*%
%TO.N,unconnected-(SW4-Pad5)*%
X157500000Y-91450000D03*
%TD*%
D33*
%TO.P,USB1,13,EH_13*%
%TO.N,GND*%
X76597125Y-114315000D03*
D34*
X72387125Y-114315000D03*
D33*
%TO.P,USB1,14,EH_14*%
X76597125Y-122955000D03*
D34*
X72387125Y-122955000D03*
D35*
%TO.P,USB1,A1B12,GND_A1B12*%
X77147125Y-115435000D03*
%TO.P,USB1,A4B9,VBUS_A4B9*%
%TO.N,VBUS*%
X77147125Y-116235000D03*
D36*
%TO.P,USB1,A5,CC1_A5*%
%TO.N,Net-(USB1-CC1)*%
X77147125Y-117385000D03*
%TO.P,USB1,A6,Dp1_A6*%
%TO.N,D+*%
X77147125Y-118385000D03*
%TO.P,USB1,A7,Dn1_A7*%
%TO.N,D-*%
X77147125Y-118885000D03*
%TO.P,USB1,A8,SBU1_A8*%
%TO.N,unconnected-(USB1-SBU1-PadA8)*%
X77147125Y-119885000D03*
D35*
%TO.P,USB1,B1A12,GND_B1A12*%
%TO.N,GND*%
X77147125Y-121835000D03*
%TO.P,USB1,B4A9,VBUS_B4A9*%
%TO.N,VBUS*%
X77147125Y-121035000D03*
D36*
%TO.P,USB1,B5,CC2_B5*%
%TO.N,Net-(USB1-CC2)*%
X77147125Y-120385000D03*
%TO.P,USB1,B6,Dp2_B6*%
%TO.N,D+*%
X77147125Y-119385000D03*
%TO.P,USB1,B7,Dn2_B7*%
%TO.N,D-*%
X77147125Y-117885000D03*
%TO.P,USB1,B8,SBU2_B8*%
%TO.N,unconnected-(USB1-SBU2-PadB8)*%
X77147125Y-116885000D03*
%TD*%
D17*
%TO.P,J5,1,Pin_1_1*%
%TO.N,WaterSol_FP*%
X142200000Y-101550000D03*
D18*
%TO.P,J5,2,Pin_2_2*%
%TO.N,12V_FP*%
X142200000Y-104090000D03*
%TD*%
D24*
%TO.P,R2,1,1_1*%
%TO.N,Net-(R2-Pad1)*%
X109100000Y-88240000D03*
%TO.P,R2,2,2_2*%
%TO.N,Net-(U6-VSENSE)*%
X107600000Y-88240000D03*
%TD*%
D10*
%TO.P,J58,1,Pin_1_1*%
%TO.N,Net-(J58-Pin_1)*%
X96214625Y-55112627D03*
%TD*%
D37*
%TO.P,L2,1,1_1*%
%TO.N,Net-(D2-K)*%
X104940000Y-77070000D03*
%TO.P,L2,2,2_2*%
%TO.N,3.3V*%
X98940000Y-77070000D03*
%TD*%
D21*
%TO.P,R74,1,1_1*%
%TO.N,Heater_Switch*%
X91164625Y-56562627D03*
%TO.P,R74,2,2_2*%
%TO.N,Net-(J58-Pin_1)*%
X91164625Y-55062627D03*
%TD*%
D38*
%TO.P,LED13,1,K_1*%
%TO.N,GND*%
X131770000Y-46710000D03*
%TO.P,LED13,2,A_2*%
%TO.N,Net-(LED13-A)*%
X131770000Y-49250000D03*
%TD*%
D21*
%TO.P,R47,1,1_1*%
%TO.N,Net-(J41-Pin_1)*%
X123934625Y-73180000D03*
%TO.P,R47,2,2_2*%
%TO.N,3.3V*%
X123934625Y-74680000D03*
%TD*%
D20*
%TO.P,U17,1,I/O_1*%
%TO.N,/ESP32/Data Line ESD3/IO1*%
X123434625Y-124530000D03*
%TO.P,U17,2,VN_2*%
%TO.N,3.3V*%
X122484625Y-124530000D03*
%TO.P,U17,3,I/O_3*%
%TO.N,/ESP32/Data Line ESD3/IO2*%
X121534625Y-124530000D03*
%TO.P,U17,4,I/O_4*%
%TO.N,BootMode*%
X121534625Y-126830000D03*
%TO.P,U17,5,VP_5*%
%TO.N,GND*%
X122484625Y-126830000D03*
%TO.P,U17,6,I/O_6*%
%TO.N,EN*%
X123434625Y-126830000D03*
%TD*%
D16*
%TO.P,D29,1,K_1*%
%TO.N,12V*%
X71934625Y-60407627D03*
%TO.P,D29,2,A_2*%
%TO.N,Heater Fans*%
X75194625Y-60407627D03*
%TD*%
D12*
%TO.P,H6,1*%
%TO.N,N/C*%
X150800000Y-131000000D03*
X151502944Y-129302944D03*
X151502944Y-132697056D03*
X153200000Y-128600000D03*
D13*
X153200000Y-131000000D03*
D12*
X153200000Y-133400000D03*
X154897056Y-129302944D03*
X154897056Y-132697056D03*
X155600000Y-131000000D03*
%TD*%
D17*
%TO.P,J16,1,Pin_1_1*%
%TO.N,Drain_Level_FP*%
X152000000Y-74600000D03*
D18*
%TO.P,J16,2,Pin_2_2*%
%TO.N,3.3V_FP*%
X152000000Y-77140000D03*
%TD*%
D24*
%TO.P,R4,1,1_1*%
%TO.N,GND*%
X102730000Y-88120000D03*
%TO.P,R4,2,2_2*%
%TO.N,Net-(C4-Pad1)*%
X104230000Y-88120000D03*
%TD*%
D11*
%TO.P,R42,1,1_1*%
%TO.N,GND*%
X74630000Y-68210000D03*
%TO.P,R42,2,2_2*%
%TO.N,Net-(J38-Pin_1)*%
X74630000Y-66210000D03*
%TD*%
D38*
%TO.P,LED10,1,K_1*%
%TO.N,GlycolSol_FP*%
X150600000Y-96470000D03*
%TO.P,LED10,2,A_2*%
%TO.N,Net-(LED10-A)*%
X150600000Y-93930000D03*
%TD*%
D20*
%TO.P,U18,1,I/O_1*%
%TO.N,SCK*%
X80234625Y-99180000D03*
%TO.P,U18,2,VN_2*%
%TO.N,3.3V*%
X79284625Y-99180000D03*
%TO.P,U18,3,I/O_3*%
%TO.N,MOSI*%
X78334625Y-99180000D03*
%TO.P,U18,4,I/O_4*%
%TO.N,MISO_ESD*%
X78334625Y-101480000D03*
%TO.P,U18,5,VP_5*%
%TO.N,GND*%
X79284625Y-101480000D03*
%TO.P,U18,6,I/O_6*%
%TO.N,/ESP32/Data Line ESD1/IO3*%
X80234625Y-101480000D03*
%TD*%
D11*
%TO.P,R49,1,1_1*%
%TO.N,GND*%
X74510000Y-55330000D03*
%TO.P,R49,2,2_2*%
%TO.N,Net-(J54-Pin_1)*%
X74510000Y-53330000D03*
%TD*%
D12*
%TO.P,H5,1*%
%TO.N,N/C*%
X150800000Y-41000000D03*
X151502944Y-39302944D03*
X151502944Y-42697056D03*
X153200000Y-38600000D03*
D13*
X153200000Y-41000000D03*
D12*
X153200000Y-43400000D03*
X154897056Y-39302944D03*
X154897056Y-42697056D03*
X155600000Y-41000000D03*
%TD*%
D39*
%TO.P,C20,1,1_1*%
%TO.N,3.3V*%
X80695375Y-94507687D03*
%TO.P,C20,2,2_2*%
%TO.N,GND*%
X80695375Y-95907687D03*
%TD*%
D40*
%TO.P,C13,1,1_1*%
%TO.N,GND*%
X89970000Y-111070000D03*
%TO.P,C13,2,2_2*%
%TO.N,EN*%
X89970000Y-114250000D03*
%TD*%
D24*
%TO.P,R6,1,1_1*%
%TO.N,D-*%
X89660000Y-128950000D03*
%TO.P,R6,2,2_2*%
%TO.N,IO19*%
X91160000Y-128950000D03*
%TD*%
D38*
%TO.P,LED4,1,K_1*%
%TO.N,FoggerSol_FP*%
X150600000Y-119470000D03*
%TO.P,LED4,2,A_2*%
%TO.N,Net-(LED4-A)*%
X150600000Y-116930000D03*
%TD*%
D21*
%TO.P,R64,1,1_1*%
%TO.N,HeaterFans_IO*%
X72614625Y-67757627D03*
%TO.P,R64,2,2_2*%
%TO.N,Net-(J38-Pin_1)*%
X72614625Y-66257627D03*
%TD*%
D16*
%TO.P,D30,1,K_1*%
%TO.N,12V*%
X71934625Y-73093574D03*
%TO.P,D30,2,A_2*%
%TO.N,Circ_Fan*%
X75194625Y-73093574D03*
%TD*%
D21*
%TO.P,R62,1,1_1*%
%TO.N,WaterSol_IO*%
X81414625Y-59162627D03*
%TO.P,R62,2,2_2*%
%TO.N,Net-(J36-Pin_1)*%
X81414625Y-57662627D03*
%TD*%
D24*
%TO.P,R9,1,1_1*%
%TO.N,Net-(U3-TXD0)*%
X114584625Y-115780000D03*
%TO.P,R9,2,2_2*%
%TO.N,TXD0*%
X116084625Y-115780000D03*
%TD*%
D10*
%TO.P,J49,1,Pin_1_1*%
%TO.N,12V_FP*%
X157000000Y-127400000D03*
%TD*%
D17*
%TO.P,J6,1,Pin_1_1*%
%TO.N,DrainSol_FP*%
X142200000Y-109175000D03*
D18*
%TO.P,J6,2,Pin_2_2*%
%TO.N,12V_FP*%
X142200000Y-111715000D03*
%TD*%
D10*
%TO.P,J56,1,Pin_1_1*%
%TO.N,Net-(J56-Pin_1)*%
X85114625Y-44912627D03*
%TD*%
D20*
%TO.P,U14,1,I/O_1*%
%TO.N,CS_SD*%
X77884625Y-108830000D03*
%TO.P,U14,2,VN_2*%
%TO.N,3.3V*%
X76934625Y-108830000D03*
%TO.P,U14,3,I/O_3*%
%TO.N,DC_Display*%
X75984625Y-108830000D03*
%TO.P,U14,4,I/O_4*%
%TO.N,Display_Reset*%
X75984625Y-111130000D03*
%TO.P,U14,5,VP_5*%
%TO.N,GND*%
X76934625Y-111130000D03*
%TO.P,U14,6,I/O_6*%
%TO.N,CS_Display*%
X77884625Y-111130000D03*
%TD*%
D10*
%TO.P,J41,1,Pin_1_1*%
%TO.N,Net-(J41-Pin_1)*%
X120734625Y-70080000D03*
%TD*%
D24*
%TO.P,R33,1,1_1*%
%TO.N,Net-(LED4-A)*%
X149850000Y-115070000D03*
%TO.P,R33,2,2_2*%
%TO.N,12V_FP*%
X151350000Y-115070000D03*
%TD*%
D10*
%TO.P,J54,1,Pin_1_1*%
%TO.N,Net-(J54-Pin_1)*%
X77664625Y-53512627D03*
%TD*%
D24*
%TO.P,R7,1,1_1*%
%TO.N,Net-(U3-RXD0)*%
X114584625Y-117480000D03*
%TO.P,R7,2,2_2*%
%TO.N,RXD0*%
X116084625Y-117480000D03*
%TD*%
D20*
%TO.P,U16,1,I/O_1*%
%TO.N,/ESP32/Data Line ESD2/IO1*%
X81820000Y-117060000D03*
%TO.P,U16,2,VN_2*%
%TO.N,3.3V*%
X80870000Y-117060000D03*
%TO.P,U16,3,I/O_3*%
%TO.N,/ESP32/Data Line ESD2/IO2*%
X79920000Y-117060000D03*
%TO.P,U16,4,I/O_4*%
%TO.N,D+*%
X79920000Y-119360000D03*
%TO.P,U16,5,VP_5*%
%TO.N,GND*%
X80870000Y-119360000D03*
%TO.P,U16,6,I/O_6*%
%TO.N,D-*%
X81820000Y-119360000D03*
%TD*%
D38*
%TO.P,LED9,1,K_1*%
%TO.N,Heater_ON_FP*%
X165200000Y-42470000D03*
%TO.P,LED9,2,A_2*%
%TO.N,Net-(LED9-A)*%
X165200000Y-39930000D03*
%TD*%
D29*
%TO.P,P2,1,1_1*%
%TO.N,120V_Out*%
X116856981Y-46480000D03*
%TO.P,P2,2,2_2*%
%TO.N,120V_IN*%
X116856981Y-41480000D03*
%TD*%
D24*
%TO.P,R32,1,1_1*%
%TO.N,Net-(LED3-A)*%
X166120000Y-115410000D03*
%TO.P,R32,2,2_2*%
%TO.N,12V_FP*%
X164620000Y-115410000D03*
%TD*%
D29*
%TO.P,P3,1,1_1*%
%TO.N,12V*%
X96487342Y-42012627D03*
%TO.P,P3,2,2_2*%
%TO.N,LEDs*%
X91487342Y-42012627D03*
%TD*%
D24*
%TO.P,R8,1,1_1*%
%TO.N,D+*%
X89630000Y-130480000D03*
%TO.P,R8,2,2_2*%
%TO.N,IO20*%
X91130000Y-130480000D03*
%TD*%
D10*
%TO.P,J55,1,Pin_1_1*%
%TO.N,FoggerSol*%
X77664625Y-47812627D03*
%TD*%
D41*
%TO.P,D4,1,C_1*%
%TO.N,LEDs*%
X84874625Y-41912627D03*
%TO.P,D4,2,A_2*%
%TO.N,GND*%
X87154625Y-41912627D03*
%TD*%
D21*
%TO.P,R66,1,1_1*%
%TO.N,CircFan_IO*%
X72614625Y-80443574D03*
%TO.P,R66,2,2_2*%
%TO.N,Net-(J46-Pin_1)*%
X72614625Y-78943574D03*
%TD*%
D25*
%TO.P,Q12,1,G_1*%
%TO.N,Net-(J46-Pin_1)*%
X72614625Y-77093574D03*
%TO.P,Q12,2,S_2*%
%TO.N,GND*%
X74514625Y-77093574D03*
%TO.P,Q12,3,D_3*%
%TO.N,Circ_Fan*%
X73564625Y-75093574D03*
%TD*%
D10*
%TO.P,J35,1,Pin_1_1*%
%TO.N,GlycolSol*%
X86464625Y-64712627D03*
%TD*%
D16*
%TO.P,D32,1,K_1*%
%TO.N,12V*%
X71934625Y-47612627D03*
%TO.P,D32,2,A_2*%
%TO.N,FoggerSol*%
X75194625Y-47612627D03*
%TD*%
%TO.P,D7,1,K_1*%
%TO.N,Piezo1_FP*%
X143190000Y-47120000D03*
%TO.P,D7,2,A_2*%
%TO.N,GND_FP*%
X139930000Y-47120000D03*
%TD*%
D40*
%TO.P,C1,1,1_1*%
%TO.N,12V*%
X116100000Y-83300000D03*
%TO.P,C1,2,2_2*%
%TO.N,GND*%
X116100000Y-86480000D03*
%TD*%
D24*
%TO.P,R12,1,1_1*%
%TO.N,SCK*%
X88254625Y-117840000D03*
%TO.P,R12,2,2_2*%
%TO.N,Net-(U3-IO5)*%
X89754625Y-117840000D03*
%TD*%
%TO.P,R35,1,1_1*%
%TO.N,Net-(LED6-A)*%
X149850000Y-99530000D03*
%TO.P,R35,2,2_2*%
%TO.N,12V_FP*%
X151350000Y-99530000D03*
%TD*%
D12*
%TO.P,H2,1*%
%TO.N,N/C*%
X129034625Y-41000000D03*
X129737569Y-39302944D03*
X129737569Y-42697056D03*
X131434625Y-38600000D03*
D13*
X131434625Y-41000000D03*
D12*
X131434625Y-43400000D03*
X133131681Y-39302944D03*
X133131681Y-42697056D03*
X133834625Y-41000000D03*
%TD*%
D21*
%TO.P,R21,1,1_1*%
%TO.N,Net-(LED13-A)*%
X131570000Y-51930000D03*
%TO.P,R21,2,2_2*%
%TO.N,12V*%
X131570000Y-53430000D03*
%TD*%
D42*
%TO.P,U8,1,~{CS}_1*%
%TO.N,CS_Memory*%
X82584625Y-103460000D03*
%TO.P,U8,2,DO_2*%
%TO.N,Net-(U8-DO)*%
X83854625Y-103460000D03*
%TO.P,U8,3,IO2_3*%
%TO.N,Memory_IO3*%
X85114625Y-103460000D03*
%TO.P,U8,4,GND_4*%
%TO.N,GND*%
X86384625Y-103460000D03*
%TO.P,U8,5,DI_5*%
%TO.N,MOSI*%
X86384625Y-96400000D03*
%TO.P,U8,6,CLK_6*%
%TO.N,SCK*%
X85114625Y-96400000D03*
%TO.P,U8,7,IO3_7*%
%TO.N,Memory_IO3*%
X83854625Y-96400000D03*
%TO.P,U8,8,VCC_8*%
%TO.N,3.3V*%
X82584625Y-96400000D03*
%TD*%
D22*
%TO.P,J47,1,Pin_1_1*%
%TO.N,CS_SD*%
X75884625Y-105350000D03*
D23*
%TO.P,J47,2,Pin_2_2*%
%TO.N,MOSI*%
X75884625Y-102810000D03*
%TO.P,J47,3,Pin_3_3*%
%TO.N,MISO_ESD*%
X75884625Y-100270000D03*
%TO.P,J47,4,Pin_4_4*%
%TO.N,SCK*%
X75884625Y-97730000D03*
%TD*%
D11*
%TO.P,R57,1,1_1*%
%TO.N,Memory_IO3*%
X86130000Y-105530000D03*
%TO.P,R57,2,2_2*%
%TO.N,3.3V*%
X86130000Y-107530000D03*
%TD*%
D25*
%TO.P,Q16,1,G_1*%
%TO.N,Net-(J58-Pin_1)*%
X91164625Y-53212627D03*
%TO.P,Q16,2,S_2*%
%TO.N,GND*%
X93064625Y-53212627D03*
%TO.P,Q16,3,D_3*%
%TO.N,Heater_ON*%
X92114625Y-51212627D03*
%TD*%
D10*
%TO.P,J46,1,Pin_1_1*%
%TO.N,Net-(J46-Pin_1)*%
X77664625Y-78993574D03*
%TD*%
D24*
%TO.P,R46,1,1_1*%
%TO.N,CS_Display*%
X88270000Y-127420000D03*
%TO.P,R46,2,2_2*%
%TO.N,Net-(U3-IO8)*%
X89770000Y-127420000D03*
%TD*%
D14*
%TO.P,R56,1,1_1*%
%TO.N,SCL*%
X103700000Y-110200000D03*
%TO.P,R56,2,2_2*%
%TO.N,3.3V*%
X101700000Y-110200000D03*
%TD*%
D10*
%TO.P,J34,1,Pin_1_1*%
%TO.N,Net-(J34-Pin_1)*%
X86464625Y-70412627D03*
%TD*%
%TO.P,J43,1,Pin_1_1*%
%TO.N,EN*%
X128484625Y-124930000D03*
%TD*%
D40*
%TO.P,C11,1,1_1*%
%TO.N,3.3V*%
X100640000Y-82010000D03*
%TO.P,C11,2,2_2*%
%TO.N,GND*%
X100640000Y-85190000D03*
%TD*%
D31*
%TO.P,U2,1,1_1*%
%TO.N,Heater_ON_FP*%
X161660000Y-51880000D03*
D32*
%TO.P,U2,2,2_2*%
%TO.N,EN_FP*%
X164200000Y-51880000D03*
%TO.P,U2,3,3_3*%
%TO.N,LEDs_FP*%
X161660000Y-54420000D03*
%TO.P,U2,4,4_4*%
%TO.N,Fogger_Basin_Float_Switch_FP*%
X164200000Y-54420000D03*
%TO.P,U2,5,5_5*%
%TO.N,Piezo2_FP*%
X161660000Y-56960000D03*
%TO.P,U2,6,6_6*%
%TO.N,Drain_Level_FP*%
X164200000Y-56960000D03*
%TO.P,U2,7,7_7*%
%TO.N,Piezo1_FP*%
X161660000Y-59500000D03*
%TO.P,U2,8,8_8*%
%TO.N,BootMode_FP*%
X164200000Y-59500000D03*
%TO.P,U2,9,9_9*%
%TO.N,TXD0_FP*%
X161660000Y-62040000D03*
%TO.P,U2,10,10_10*%
%TO.N,RXD0_FP*%
X164200000Y-62040000D03*
%TO.P,U2,11,11_11*%
%TO.N,SCL_FP*%
X161660000Y-64580000D03*
%TO.P,U2,12,12_12*%
%TO.N,SDA_FP*%
X164200000Y-64580000D03*
%TO.P,U2,13,13_13*%
%TO.N,SoilMoisture4_FP*%
X161660000Y-67120000D03*
%TO.P,U2,14,14_14*%
%TO.N,SoilMoisture1_FP*%
X164200000Y-67120000D03*
%TO.P,U2,15,15_15*%
%TO.N,SoilMoisture2_FP*%
X161660000Y-69660000D03*
%TO.P,U2,16,16_16*%
%TO.N,WaterSol_FP*%
X164200000Y-69660000D03*
%TO.P,U2,17,17_17*%
%TO.N,GlycolSol_FP*%
X161660000Y-72200000D03*
%TO.P,U2,18,18_18*%
%TO.N,3.3V_FP*%
X164200000Y-72200000D03*
%TO.P,U2,19,19_19*%
%TO.N,DrainSol_FP*%
X161660000Y-74740000D03*
%TO.P,U2,20,20_20*%
%TO.N,3.3V_FP*%
X164200000Y-74740000D03*
%TO.P,U2,21,21_21*%
%TO.N,FoggerSol_FP*%
X161660000Y-77280000D03*
%TO.P,U2,22,22_22*%
%TO.N,Heater Fans_FP*%
X164200000Y-77280000D03*
%TO.P,U2,23,23_23*%
%TO.N,Fan_Tach_FP*%
X161660000Y-79820000D03*
%TO.P,U2,24,24_24*%
%TO.N,Circ_Fan_FP*%
X164200000Y-79820000D03*
%TO.P,U2,25,25_25*%
%TO.N,External_Fan_PWM_FP*%
X161660000Y-82360000D03*
%TO.P,U2,26,26_26*%
%TO.N,Heartbeat_LED_FP*%
X164200000Y-82360000D03*
%TD*%
D29*
%TO.P,Power_FP1,1,1_1*%
%TO.N,GND_FP*%
X163050000Y-126750000D03*
%TO.P,Power_FP1,2,2_2*%
%TO.N,12V_FP*%
X163050000Y-131750000D03*
%TD*%
D38*
%TO.P,LED3,1,K_1*%
%TO.N,Circ_Fan_FP*%
X165600000Y-110930000D03*
%TO.P,LED3,2,A_2*%
%TO.N,Net-(LED3-A)*%
X165600000Y-113470000D03*
%TD*%
D43*
%TO.P,D2,1,K_1*%
%TO.N,Net-(D2-K)*%
X110260000Y-76240000D03*
%TO.P,D2,2,A_2*%
%TO.N,GND*%
X110260000Y-80640000D03*
%TD*%
D10*
%TO.P,J57,1,Pin_1_1*%
%TO.N,LEDs*%
X85914625Y-39512627D03*
%TD*%
D25*
%TO.P,Q14,1,G_1*%
%TO.N,Net-(J54-Pin_1)*%
X72614625Y-51612627D03*
%TO.P,Q14,2,S_2*%
%TO.N,GND*%
X74514625Y-51612627D03*
%TO.P,Q14,3,D_3*%
%TO.N,FoggerSol*%
X73564625Y-49612627D03*
%TD*%
D10*
%TO.P,J59,1,Pin_1_1*%
%TO.N,Heater_ON*%
X96214625Y-49412627D03*
%TD*%
D21*
%TO.P,R3,1,1_1*%
%TO.N,GND*%
X109150000Y-91330000D03*
%TO.P,R3,2,2_2*%
%TO.N,Net-(R2-Pad1)*%
X109150000Y-89830000D03*
%TD*%
D11*
%TO.P,R50,1,1_1*%
%TO.N,GND*%
X82870000Y-46940000D03*
%TO.P,R50,2,2_2*%
%TO.N,Net-(J56-Pin_1)*%
X82870000Y-44940000D03*
%TD*%
D17*
%TO.P,J3,1,Pin_1_1*%
%TO.N,3.3V_FP*%
X142200000Y-50460000D03*
D18*
%TO.P,J3,2,Pin_2_2*%
%TO.N,GND_FP*%
X142200000Y-53000000D03*
%TO.P,J3,3,Pin_3_3*%
%TO.N,SCL_FP*%
X142200000Y-55540000D03*
%TO.P,J3,4,Pin_4_4*%
%TO.N,SDA_FP*%
X142200000Y-58080000D03*
%TD*%
D24*
%TO.P,R19,1,1_1*%
%TO.N,GND*%
X118980000Y-122080000D03*
%TO.P,R19,2,2_2*%
%TO.N,DrainLevel_IO*%
X117480000Y-122080000D03*
%TD*%
D10*
%TO.P,J37,1,Pin_1_1*%
%TO.N,WaterSol*%
X86464625Y-52012627D03*
%TD*%
D17*
%TO.P,J7,1,Pin_1_1*%
%TO.N,FoggerSol_FP*%
X142200000Y-116800000D03*
D18*
%TO.P,J7,2,Pin_2_2*%
%TO.N,12V_FP*%
X142200000Y-119340000D03*
%TD*%
D11*
%TO.P,R40,1,1_1*%
%TO.N,GND*%
X83320000Y-72220000D03*
%TO.P,R40,2,2_2*%
%TO.N,Net-(J34-Pin_1)*%
X83320000Y-70220000D03*
%TD*%
D16*
%TO.P,D33,1,K_1*%
%TO.N,12V*%
X80084625Y-39512627D03*
%TO.P,D33,2,A_2*%
%TO.N,LEDs*%
X83344625Y-39512627D03*
%TD*%
D21*
%TO.P,R72,1,1_1*%
%TO.N,LEDIO*%
X80914625Y-46462627D03*
%TO.P,R72,2,2_2*%
%TO.N,Net-(J56-Pin_1)*%
X80914625Y-44962627D03*
%TD*%
D39*
%TO.P,C2,1,1_1*%
%TO.N,Net-(D2-K)*%
X107610000Y-78330000D03*
%TO.P,C2,2,2_2*%
%TO.N,Net-(U6-BOOT)*%
X107610000Y-79730000D03*
%TD*%
D38*
%TO.P,LED2,1,K_1*%
%TO.N,GND_FP*%
X150600000Y-126270000D03*
%TO.P,LED2,2,A_2*%
%TO.N,Net-(LED2-A)*%
X150600000Y-123730000D03*
%TD*%
D16*
%TO.P,D1,1,K_1*%
%TO.N,External_Fan_PWM_FP*%
X146640000Y-130330000D03*
%TO.P,D1,2,A_2*%
%TO.N,GND_FP*%
X146640000Y-133590000D03*
%TD*%
D17*
%TO.P,J4,1,Pin_1_1*%
%TO.N,Heater Fans_FP*%
X157380000Y-118000000D03*
D18*
%TO.P,J4,2,Pin_2_2*%
%TO.N,12V_FP*%
X157380000Y-120540000D03*
%TD*%
D21*
%TO.P,R22,1,1_1*%
%TO.N,Net-(USB1-CC1)*%
X79284625Y-115185000D03*
%TO.P,R22,2,2_2*%
%TO.N,GND*%
X79284625Y-113685000D03*
%TD*%
D11*
%TO.P,R53,1,1_1*%
%TO.N,Net-(R53-Pad1)*%
X114690000Y-130630000D03*
%TO.P,R53,2,2_2*%
%TO.N,3.3V*%
X114690000Y-132630000D03*
%TD*%
%TO.P,R48,1,1_1*%
%TO.N,GND*%
X83320000Y-85410000D03*
%TO.P,R48,2,2_2*%
%TO.N,Net-(J52-Pin_1)*%
X83320000Y-83410000D03*
%TD*%
D16*
%TO.P,D28,1,K_1*%
%TO.N,12V*%
X80734625Y-51812627D03*
%TO.P,D28,2,A_2*%
%TO.N,WaterSol*%
X83994625Y-51812627D03*
%TD*%
D17*
%TO.P,J14,1,Pin_1_1*%
%TO.N,GND_FP*%
X151780000Y-50060000D03*
D18*
%TO.P,J14,2,Pin_2_2*%
%TO.N,TXD0_FP*%
X151780000Y-52600000D03*
%TO.P,J14,3,Pin_3_3*%
%TO.N,RXD0_FP*%
X151780000Y-55140000D03*
%TD*%
D21*
%TO.P,R70,1,1_1*%
%TO.N,FoggerSol_IO*%
X72614625Y-54962627D03*
%TO.P,R70,2,2_2*%
%TO.N,Net-(J54-Pin_1)*%
X72614625Y-53462627D03*
%TD*%
D40*
%TO.P,C10,1,1_1*%
%TO.N,3.3V*%
X93604625Y-110530000D03*
%TO.P,C10,2,2_2*%
%TO.N,GND*%
X93604625Y-107350000D03*
%TD*%
D16*
%TO.P,D9,1,K_1*%
%TO.N,WaterSol_FP*%
X147200000Y-101170000D03*
%TO.P,D9,2,A_2*%
%TO.N,GND_FP*%
X147200000Y-104430000D03*
%TD*%
D29*
%TO.P,P1,1,1_1*%
%TO.N,GND*%
X130400000Y-81100000D03*
%TO.P,P1,2,2_2*%
%TO.N,12V*%
X130400000Y-76100000D03*
%TD*%
D24*
%TO.P,R43,1,1_1*%
%TO.N,CS_Memory*%
X88254625Y-122740000D03*
%TO.P,R43,2,2_2*%
%TO.N,Net-(U3-IO15)*%
X89754625Y-122740000D03*
%TD*%
D16*
%TO.P,D11,1,K_1*%
%TO.N,FoggerSol_FP*%
X147000000Y-116570000D03*
%TO.P,D11,2,A_2*%
%TO.N,GND_FP*%
X147000000Y-119830000D03*
%TD*%
%TO.P,D34,1,K_1*%
%TO.N,12V*%
X90484625Y-49212627D03*
%TO.P,D34,2,A_2*%
%TO.N,Heater_ON*%
X93744625Y-49212627D03*
%TD*%
D10*
%TO.P,J53,1,Pin_1_1*%
%TO.N,DrainSol*%
X86460023Y-77794648D03*
%TD*%
D24*
%TO.P,R13,1,1_1*%
%TO.N,MOSI*%
X88254625Y-119440000D03*
%TO.P,R13,2,2_2*%
%TO.N,Net-(U3-IO6)*%
X89754625Y-119440000D03*
%TD*%
D21*
%TO.P,R5,1,1_1*%
%TO.N,Net-(J41-Pin_1)*%
X123934625Y-71580000D03*
%TO.P,R5,2,2_2*%
%TO.N,KSD_Fault*%
X123934625Y-70080000D03*
%TD*%
D10*
%TO.P,J45,1,Pin_1_1*%
%TO.N,Drain_Level*%
X123034625Y-120280000D03*
%TD*%
D24*
%TO.P,R39,1,1_1*%
%TO.N,Net-(LED9-A)*%
X165200000Y-38000000D03*
%TO.P,R39,2,2_2*%
%TO.N,12V_FP*%
X163700000Y-38000000D03*
%TD*%
D39*
%TO.P,C14,1,1_1*%
%TO.N,EN*%
X125484625Y-125880000D03*
%TO.P,C14,2,2_2*%
%TO.N,GND*%
X125484625Y-124480000D03*
%TD*%
D21*
%TO.P,R10,1,1_1*%
%TO.N,Net-(U3-IO1)*%
X112935000Y-113885000D03*
%TO.P,R10,2,2_2*%
%TO.N,External_Fan_PWM*%
X112935000Y-112385000D03*
%TD*%
D16*
%TO.P,D3,1,K_1*%
%TO.N,Fan_Tach_FP*%
X147000000Y-128700000D03*
%TO.P,D3,2,A_2*%
%TO.N,GND_FP*%
X147000000Y-125440000D03*
%TD*%
D15*
%TO.P,U11,1,I/O_1*%
%TO.N,SoilMoisture4_FP*%
X148450000Y-63050000D03*
%TO.P,U11,2,VN_2*%
%TO.N,3.3V_FP*%
X148450000Y-64000000D03*
%TO.P,U11,3,I/O_3*%
%TO.N,SoilMoisture2_FP*%
X148450000Y-64950000D03*
%TO.P,U11,4,I/O_4*%
%TO.N,SoilMoisture1_FP*%
X150750000Y-64950000D03*
%TO.P,U11,5,VP_5*%
%TO.N,GND_FP*%
X150750000Y-64000000D03*
%TO.P,U11,6,I/O_6*%
%TO.N,/Faceplate/3.3V ESD/IO3*%
X150750000Y-63050000D03*
%TD*%
D44*
%TO.P,J50,1,Pin_1_1*%
%TO.N,GND_FP*%
X156800000Y-124200000D03*
%TD*%
D38*
%TO.P,LED1,1,K_1*%
%TO.N,LEDs_FP*%
X159400000Y-42470000D03*
%TO.P,LED1,2,A_2*%
%TO.N,Net-(LED1-A)*%
X159400000Y-39930000D03*
%TD*%
%TO.P,LED6,1,K_1*%
%TO.N,WaterSol_FP*%
X150600000Y-104000000D03*
%TO.P,LED6,2,A_2*%
%TO.N,Net-(LED6-A)*%
X150600000Y-101460000D03*
%TD*%
D45*
%TO.P,C15,1,1_1*%
%TO.N,3.3V*%
X91490000Y-107840000D03*
%TO.P,C15,2,2_2*%
%TO.N,GND*%
X91490000Y-107000000D03*
%TD*%
D14*
%TO.P,R59,1,1_1*%
%TO.N,FloatSwitch_IO*%
X113590000Y-120030000D03*
%TO.P,R59,2,2_2*%
%TO.N,Fogger_Basin_Float_Switch*%
X115590000Y-120030000D03*
%TD*%
D11*
%TO.P,R44,1,1_1*%
%TO.N,GND*%
X74780000Y-80830000D03*
%TO.P,R44,2,2_2*%
%TO.N,Net-(J46-Pin_1)*%
X74780000Y-78830000D03*
%TD*%
D21*
%TO.P,R23,1,1_1*%
%TO.N,Net-(USB1-CC2)*%
X79284625Y-122235000D03*
%TO.P,R23,2,2_2*%
%TO.N,GND*%
X79284625Y-123735000D03*
%TD*%
D25*
%TO.P,Q10,1,G_1*%
%TO.N,Net-(J36-Pin_1)*%
X81414625Y-55812627D03*
%TO.P,Q10,2,S_2*%
%TO.N,GND*%
X83314625Y-55812627D03*
%TO.P,Q10,3,D_3*%
%TO.N,WaterSol*%
X82364625Y-53812627D03*
%TD*%
D46*
%TO.P,SW3,1,1_1*%
%TO.N,Net-(R53-Pad1)*%
X118234625Y-131180000D03*
%TO.P,SW3,2,2_2*%
%TO.N,BootMode*%
X118234625Y-129190000D03*
%TO.P,SW3,3,3_3*%
%TO.N,GND*%
X118234625Y-127180000D03*
D47*
%TO.P,SW3,4,4_4*%
%TO.N,unconnected-(SW3-Pad4)*%
X118234625Y-125080000D03*
%TO.P,SW3,5,5_5*%
%TO.N,unconnected-(SW3-Pad5)*%
X118234625Y-133280000D03*
%TD*%
D39*
%TO.P,C7,1,1_1*%
%TO.N,GND*%
X105890000Y-89590000D03*
%TO.P,C7,2,2_2*%
%TO.N,Net-(U6-VSENSE)*%
X105890000Y-88190000D03*
%TD*%
D25*
%TO.P,Q13,1,G_1*%
%TO.N,Net-(J52-Pin_1)*%
X81410023Y-81594648D03*
%TO.P,Q13,2,S_2*%
%TO.N,GND*%
X83310023Y-81594648D03*
%TO.P,Q13,3,D_3*%
%TO.N,DrainSol*%
X82360023Y-79594648D03*
%TD*%
%TO.P,Q15,1,G_1*%
%TO.N,Net-(J56-Pin_1)*%
X80864625Y-43312627D03*
%TO.P,Q15,2,S_2*%
%TO.N,GND*%
X82764625Y-43312627D03*
%TO.P,Q15,3,D_3*%
%TO.N,LEDs*%
X81814625Y-41312627D03*
%TD*%
D48*
%TO.P,SW1,1,1_1*%
%TO.N,GND*%
X124400000Y-133160000D03*
%TO.P,SW1,2,2_2*%
%TO.N,EN*%
X124400000Y-128800000D03*
%TD*%
D10*
%TO.P,J38,1,Pin_1_1*%
%TO.N,Net-(J38-Pin_1)*%
X77664625Y-66307627D03*
%TD*%
D49*
%TO.P,C6,1,1_1*%
%TO.N,GND*%
X100580000Y-62730000D03*
%TO.P,C6,2,2_2*%
%TO.N,12V*%
X98580000Y-62730000D03*
%TD*%
D50*
%TO.P,U1,1,NC_1*%
%TO.N,Piezo1*%
X98602500Y-70360000D03*
%TO.P,U1,2,INA_2*%
%TO.N,12V*%
X98602500Y-69090000D03*
%TO.P,U1,3,GND_3*%
%TO.N,Piezo2*%
X98602500Y-67830000D03*
%TO.P,U1,4,INB_4*%
%TO.N,unconnected-(U1-INB-Pad4)*%
X98602500Y-66560000D03*
%TO.P,U1,5,OUTB_5*%
%TO.N,unconnected-(U1-OUTB-Pad5)*%
X93462500Y-66560000D03*
%TO.P,U1,6,VDD_6*%
%TO.N,Fogger_PWM*%
X93462500Y-67830000D03*
%TO.P,U1,7,~{OUTA}_7*%
%TO.N,GND*%
X93462500Y-69090000D03*
%TO.P,U1,8,NC_8*%
%TO.N,Fogger_PWM*%
X93462500Y-70360000D03*
%TD*%
D17*
%TO.P,J8,1,Pin_1_1*%
%TO.N,GlycolSol_FP*%
X142200000Y-93925000D03*
D18*
%TO.P,J8,2,Pin_2_2*%
%TO.N,12V_FP*%
X142200000Y-96465000D03*
%TD*%
D40*
%TO.P,C9,1,1_1*%
%TO.N,3.3V*%
X98040000Y-82010000D03*
%TO.P,C9,2,2_2*%
%TO.N,GND*%
X98040000Y-85190000D03*
%TD*%
D10*
%TO.P,J60,1,Pin_1_1*%
%TO.N,3.3V_FP*%
X148200000Y-39000000D03*
%TD*%
D12*
%TO.P,H4,1*%
%TO.N,N/C*%
X72334625Y-41000000D03*
X73037569Y-39302944D03*
X73037569Y-42697056D03*
X74734625Y-38600000D03*
D13*
X74734625Y-41000000D03*
D12*
X74734625Y-43400000D03*
X76431681Y-39302944D03*
X76431681Y-42697056D03*
X77134625Y-41000000D03*
%TD*%
D14*
%TO.P,R61,1,1_1*%
%TO.N,DrainLevel_IO*%
X113510000Y-122460000D03*
%TO.P,R61,2,2_2*%
%TO.N,Drain_Level*%
X115510000Y-122460000D03*
%TD*%
D10*
%TO.P,J51,1,Pin_1_1*%
%TO.N,Circ_Fan*%
X77664625Y-73293574D03*
%TD*%
D21*
%TO.P,R18,1,1_1*%
%TO.N,Net-(LED2-A)*%
X154000000Y-123500000D03*
%TO.P,R18,2,2_2*%
%TO.N,12V_FP*%
X154000000Y-125000000D03*
%TD*%
D51*
%TO.P,U3,1,GND_1*%
%TO.N,GND*%
X93084625Y-113710000D03*
%TO.P,U3,2,3V3_2*%
%TO.N,3.3V*%
X93084625Y-114980000D03*
%TO.P,U3,3,EN_3*%
%TO.N,EN*%
X93084625Y-116250000D03*
%TO.P,U3,4,IO4_4*%
%TO.N,CircFan_IO*%
X93084625Y-117520000D03*
%TO.P,U3,5,IO5_5*%
%TO.N,Net-(U3-IO5)*%
X93084625Y-118790000D03*
%TO.P,U3,6,IO6_6*%
%TO.N,Net-(U3-IO6)*%
X93084625Y-120060000D03*
%TO.P,U3,7,IO7_7*%
%TO.N,MISO*%
X93084625Y-121330000D03*
%TO.P,U3,8,IO15_8*%
%TO.N,Net-(U3-IO15)*%
X93084625Y-122600000D03*
%TO.P,U3,9,IO16_9*%
%TO.N,Net-(U3-IO16)*%
X93084625Y-123870000D03*
%TO.P,U3,10,IO17_10*%
%TO.N,DC_Display*%
X93084625Y-125140000D03*
%TO.P,U3,11,IO18_11*%
%TO.N,Display_Reset*%
X93084625Y-126410000D03*
%TO.P,U3,12,IO8_12*%
%TO.N,Net-(U3-IO8)*%
X93084625Y-127680000D03*
%TO.P,U3,13,IO19_13*%
%TO.N,IO19*%
X93084625Y-128950000D03*
%TO.P,U3,14,IO20_14*%
%TO.N,IO20*%
X93084625Y-130220000D03*
D52*
%TO.P,U3,15,IO3_15*%
%TO.N,Heartbeat_LED*%
X94844625Y-131490000D03*
%TO.P,U3,16,IO46_16*%
%TO.N,HeaterFans_IO*%
X96114625Y-131490000D03*
%TO.P,U3,17,IO9_17*%
%TO.N,FoggerSol_IO*%
X97384625Y-131490000D03*
%TO.P,U3,18,IO10_18*%
%TO.N,DrainSolIO*%
X98664625Y-131490000D03*
%TO.P,U3,19,IO11_19*%
%TO.N,GlycolSol_IO*%
X99934625Y-131490000D03*
%TO.P,U3,20,IO12_20*%
%TO.N,WaterSol_IO*%
X101204625Y-131490000D03*
%TO.P,U3,21,IO13_21*%
%TO.N,LEDIO*%
X102474625Y-131490000D03*
%TO.P,U3,22,IO14_22*%
%TO.N,Heater_Switch*%
X103744625Y-131490000D03*
%TO.P,U3,23,IO21_23*%
%TO.N,Fogger_PWM*%
X105014625Y-131490000D03*
%TO.P,U3,24,IO47_24*%
%TO.N,KSD_Fault*%
X106284625Y-131490000D03*
%TO.P,U3,25,IO48_25*%
%TO.N,Soil_Moisture2*%
X107554625Y-131490000D03*
%TO.P,U3,26,IO45_26*%
%TO.N,Soil_Moisture1*%
X108824625Y-131460000D03*
D51*
%TO.P,U3,27,IO0_27*%
%TO.N,BootMode*%
X110584625Y-130220000D03*
%TO.P,U3,28,IO35_28*%
%TO.N,unconnected-(U3-IO35-Pad28)*%
X110584625Y-128950000D03*
%TO.P,U3,29,IO36_29*%
%TO.N,unconnected-(U3-IO36-Pad29)*%
X110584625Y-127680000D03*
%TO.P,U3,30,IO37_30*%
%TO.N,unconnected-(U3-IO37-Pad30)*%
X110584625Y-126410000D03*
%TO.P,U3,31,IO38_31*%
%TO.N,Soil_Moisture4*%
X110584625Y-125140000D03*
%TO.P,U3,32,IO39_32*%
%TO.N,SCL*%
X110584625Y-123870000D03*
%TO.P,U3,33,IO40_33*%
%TO.N,SDA*%
X110584625Y-122600000D03*
%TO.P,U3,34,IO41_34*%
%TO.N,DrainLevel_IO*%
X110584625Y-121330000D03*
%TO.P,U3,35,IO42_35*%
%TO.N,FloatSwitch_IO*%
X110584625Y-120060000D03*
%TO.P,U3,36,RXD0_36*%
%TO.N,Net-(U3-RXD0)*%
X110584625Y-118790000D03*
%TO.P,U3,37,TXD0_37*%
%TO.N,Net-(U3-TXD0)*%
X110584625Y-117520000D03*
%TO.P,U3,38,IO2_38*%
%TO.N,Fan_Tach*%
X110584625Y-116250000D03*
%TO.P,U3,39,IO1_39*%
%TO.N,Net-(U3-IO1)*%
X110584625Y-114980000D03*
%TO.P,U3,40,GND_40*%
%TO.N,GND*%
X110584625Y-113710000D03*
D53*
%TO.P,U3,41,GND_41*%
X98934625Y-120030000D03*
X98934625Y-121430000D03*
X98934625Y-122830000D03*
X100334625Y-120030000D03*
X100334625Y-121430000D03*
X100334625Y-122830000D03*
X101734625Y-120030000D03*
X101734625Y-121430000D03*
X101734625Y-122830000D03*
%TD*%
D16*
%TO.P,D5,1,K_1*%
%TO.N,Circ_Fan_FP*%
X162400000Y-110570000D03*
%TO.P,D5,2,A_2*%
%TO.N,GND_FP*%
X162400000Y-113830000D03*
%TD*%
D29*
%TO.P,L3,1,OUT_1*%
%TO.N,Net-(J41-Pin_1)*%
X115000000Y-63080000D03*
%TO.P,L3,2,OUT_2*%
%TO.N,KSD_Fault*%
X127000000Y-63080000D03*
%TD*%
D21*
%TO.P,R36,1,1_1*%
%TO.N,Net-(LED7-K)*%
X161800000Y-106550000D03*
%TO.P,R36,2,2_2*%
%TO.N,GND_FP*%
X161800000Y-105050000D03*
%TD*%
D54*
%TO.P,C4,1,1_1*%
%TO.N,Net-(C4-Pad1)*%
X104950000Y-86690000D03*
%TO.P,C4,2,2_2*%
%TO.N,Net-(U6-VSENSE)*%
X105790000Y-86690000D03*
%TD*%
D24*
%TO.P,R20,1,1_1*%
%TO.N,GND*%
X119284625Y-119080000D03*
%TO.P,R20,2,2_2*%
%TO.N,FloatSwitch_IO*%
X117784625Y-119080000D03*
%TD*%
D21*
%TO.P,R45,1,1_1*%
%TO.N,GND*%
X122234625Y-74630000D03*
%TO.P,R45,2,2_2*%
%TO.N,Net-(J41-Pin_1)*%
X122234625Y-73130000D03*
%TD*%
D11*
%TO.P,R51,1,1_1*%
%TO.N,GND*%
X93100000Y-57060000D03*
%TO.P,R51,2,2_2*%
%TO.N,Net-(J58-Pin_1)*%
X93100000Y-55060000D03*
%TD*%
D10*
%TO.P,J52,1,Pin_1_1*%
%TO.N,Net-(J52-Pin_1)*%
X86460023Y-83494648D03*
%TD*%
D17*
%TO.P,J15,1,Pin_1_1*%
%TO.N,GND_FP*%
X142180000Y-124050000D03*
D18*
%TO.P,J15,2,Pin_2_2*%
%TO.N,12V_FP*%
X142180000Y-126590000D03*
%TO.P,J15,3,Pin_3_3*%
%TO.N,Fan_Tach_FP*%
X142180000Y-129130000D03*
%TO.P,J15,4,Pin_4_4*%
%TO.N,External_Fan_PWM_FP*%
X142180000Y-131670000D03*
%TD*%
D17*
%TO.P,J13,1,Pin_1_1*%
%TO.N,GND_FP*%
X142200000Y-74120000D03*
D18*
%TO.P,J13,2,Pin_2_2*%
%TO.N,3.3V_FP*%
X142200000Y-76660000D03*
%TO.P,J13,3,Pin_3_3*%
%TO.N,SoilMoisture2_FP*%
X142200000Y-79200000D03*
%TD*%
D24*
%TO.P,R34,1,1_1*%
%TO.N,Net-(LED5-A)*%
X149850000Y-107470000D03*
%TO.P,R34,2,2_2*%
%TO.N,12V_FP*%
X151350000Y-107470000D03*
%TD*%
D17*
%TO.P,J2,1,Pin_1_1*%
%TO.N,GND_FP*%
X142180000Y-84000000D03*
D18*
%TO.P,J2,2,Pin_2_2*%
%TO.N,3.3V_FP*%
X142180000Y-86540000D03*
%TO.P,J2,3,Pin_3_3*%
%TO.N,SoilMoisture1_FP*%
X142180000Y-89080000D03*
%TD*%
D14*
%TO.P,R52,1,1_1*%
%TO.N,Net-(U6-VSENSE)*%
X105550000Y-85080000D03*
%TO.P,R52,2,2_2*%
%TO.N,3.3V*%
X103550000Y-85080000D03*
%TD*%
D38*
%TO.P,LED5,1,K_1*%
%TO.N,DrainSol_FP*%
X150600000Y-111940000D03*
%TO.P,LED5,2,A_2*%
%TO.N,Net-(LED5-A)*%
X150600000Y-109400000D03*
%TD*%
D16*
%TO.P,D20,1,K_1*%
%TO.N,12V*%
X104370000Y-61800000D03*
%TO.P,D20,2,A_2*%
%TO.N,Heater_ON*%
X107630000Y-61800000D03*
%TD*%
D17*
%TO.P,J9,1,Pin_1_1*%
%TO.N,Circ_Fan_FP*%
X157400000Y-110800000D03*
D18*
%TO.P,J9,2,Pin_2_2*%
%TO.N,12V_FP*%
X157400000Y-113340000D03*
%TD*%
D54*
%TO.P,C5,1,1_1*%
%TO.N,GND*%
X99000000Y-64730000D03*
%TO.P,C5,2,2_2*%
%TO.N,12V*%
X98160000Y-64730000D03*
%TD*%
D40*
%TO.P,C3,1,1_1*%
%TO.N,3.3V*%
X95440000Y-82010000D03*
%TO.P,C3,2,2_2*%
%TO.N,GND*%
X95440000Y-85190000D03*
%TD*%
D38*
%TO.P,LED7,1,K_1*%
%TO.N,Net-(LED7-K)*%
X158800000Y-107400000D03*
%TO.P,LED7,2,A_2*%
%TO.N,Heartbeat_LED_FP*%
X158800000Y-104860000D03*
%TD*%
D10*
%TO.P,J40,1,Pin_1_1*%
%TO.N,KSD_Fault*%
X127234625Y-70180000D03*
%TD*%
D38*
%TO.P,LED8,1,K_1*%
%TO.N,Heater Fans_FP*%
X165600000Y-117730000D03*
%TO.P,LED8,2,A_2*%
%TO.N,Net-(LED8-A)*%
X165600000Y-120270000D03*
%TD*%
D21*
%TO.P,R60,1,1_1*%
%TO.N,GlycolSol_IO*%
X81414625Y-71862627D03*
%TO.P,R60,2,2_2*%
%TO.N,Net-(J34-Pin_1)*%
X81414625Y-70362627D03*
%TD*%
D20*
%TO.P,U12,1,I/O_1*%
%TO.N,/Faceplate/Data Line ESD/IO1*%
X160450000Y-97200000D03*
%TO.P,U12,2,VN_2*%
%TO.N,3.3V_FP*%
X161400000Y-97200000D03*
%TO.P,U12,3,I/O_3*%
%TO.N,EN_FP*%
X162350000Y-97200000D03*
%TO.P,U12,4,I/O_4*%
%TO.N,BootMode_FP*%
X162350000Y-94900000D03*
%TO.P,U12,5,VP_5*%
%TO.N,GND_FP*%
X161400000Y-94900000D03*
%TO.P,U12,6,I/O_6*%
%TO.N,/Faceplate/Data Line ESD/IO3*%
X160450000Y-94900000D03*
%TD*%
D10*
%TO.P,J39,1,Pin_1_1*%
%TO.N,Heater Fans*%
X77664625Y-60607627D03*
%TD*%
D24*
%TO.P,R29,1,1_1*%
%TO.N,MISO_ESD*%
X78884625Y-104580000D03*
%TO.P,R29,2,2_2*%
%TO.N,MISO*%
X80384625Y-104580000D03*
%TD*%
D21*
%TO.P,R68,1,1_1*%
%TO.N,DrainSolIO*%
X81410023Y-84944648D03*
%TO.P,R68,2,2_2*%
%TO.N,Net-(J52-Pin_1)*%
X81410023Y-83444648D03*
%TD*%
D55*
%TO.P,U6,1,BOOT_1*%
%TO.N,Net-(U6-BOOT)*%
X107600000Y-82770000D03*
%TO.P,U6,2,NC_2*%
%TO.N,unconnected-(U6-NC-Pad2)*%
X107600000Y-84040000D03*
%TO.P,U6,3,NC_3*%
%TO.N,unconnected-(U6-NC-Pad3)*%
X107600000Y-85320000D03*
%TO.P,U6,4,VSENSE_4*%
%TO.N,Net-(U6-VSENSE)*%
X107600000Y-86590000D03*
%TO.P,U6,5,ENA_5*%
%TO.N,unconnected-(U6-ENA-Pad5)*%
X113000000Y-86590000D03*
%TO.P,U6,6,GND_6*%
%TO.N,GND*%
X113000000Y-85320000D03*
%TO.P,U6,7,VIN_7*%
%TO.N,12V*%
X113000000Y-84040000D03*
%TO.P,U6,8,PH_8*%
%TO.N,Net-(D2-K)*%
X113000000Y-82770000D03*
D56*
%TO.P,U6,9,PowerPAD_9*%
%TO.N,GND*%
X110300000Y-84680000D03*
%TD*%
D24*
%TO.P,R38,1,1_1*%
%TO.N,Net-(LED8-A)*%
X165650000Y-122400000D03*
%TO.P,R38,2,2_2*%
%TO.N,12V_FP*%
X167150000Y-122400000D03*
%TD*%
D16*
%TO.P,D10,1,K_1*%
%TO.N,DrainSol_FP*%
X147000000Y-108640000D03*
%TO.P,D10,2,A_2*%
%TO.N,GND_FP*%
X147000000Y-111900000D03*
%TD*%
D25*
%TO.P,Q11,1,G_1*%
%TO.N,Net-(J38-Pin_1)*%
X72614625Y-64407627D03*
%TO.P,Q11,2,S_2*%
%TO.N,GND*%
X74514625Y-64407627D03*
%TO.P,Q11,3,D_3*%
%TO.N,Heater Fans*%
X73564625Y-62407627D03*
%TD*%
D16*
%TO.P,D12,1,K_1*%
%TO.N,GlycolSol_FP*%
X147000000Y-93570000D03*
%TO.P,D12,2,A_2*%
%TO.N,GND_FP*%
X147000000Y-96830000D03*
%TD*%
D57*
%TO.N,3.3V_FP*%
X155670000Y-86890000D03*
X161064453Y-96305417D03*
X150400000Y-72110000D03*
X147200000Y-64050000D03*
X152870000Y-59050000D03*
X146550000Y-37910000D03*
X161395417Y-98225547D03*
%TO.N,GND_FP*%
X146400000Y-124340000D03*
X146980000Y-121060000D03*
X147830000Y-105650000D03*
X163020000Y-115020000D03*
X146020000Y-134520000D03*
X146370000Y-98070000D03*
X138790000Y-47790000D03*
X147010000Y-124330000D03*
X146370000Y-121070000D03*
X150400000Y-67770000D03*
X146610000Y-105670000D03*
X138780000Y-47180000D03*
X162410000Y-115030000D03*
X161230000Y-103860000D03*
X146690000Y-134530000D03*
X147590000Y-98050000D03*
X148180000Y-59440000D03*
X147010000Y-113130000D03*
X161800000Y-115040000D03*
X147620000Y-113120000D03*
X138720000Y-37330000D03*
X161420000Y-93880000D03*
X162450000Y-103840000D03*
X147300000Y-134520000D03*
X138730000Y-37940000D03*
X147220000Y-105660000D03*
X162820000Y-122040000D03*
X152070000Y-63990000D03*
X138770000Y-46570000D03*
X161600000Y-122060000D03*
X138740000Y-38550000D03*
X146980000Y-98060000D03*
X146400000Y-113140000D03*
X161775164Y-95938137D03*
X161840000Y-103850000D03*
X162210000Y-122050000D03*
X147620000Y-124320000D03*
X147590000Y-121050000D03*
%TO.N,12V*%
X80721998Y-63400000D03*
X80721998Y-76200000D03*
X80078002Y-40600000D03*
X98080000Y-65644625D03*
X105740000Y-61800000D03*
X70800000Y-47600000D03*
X81921998Y-77600000D03*
X71900000Y-46500000D03*
X78978002Y-39500000D03*
X97458002Y-62744625D03*
X131570000Y-54550000D03*
X97280000Y-64744625D03*
X71978002Y-61500000D03*
X117100000Y-81830000D03*
X89400000Y-49200000D03*
X80778002Y-50700000D03*
X71900000Y-48700000D03*
X80078002Y-38400000D03*
X117700000Y-82820000D03*
X81821998Y-64500000D03*
X71978002Y-72000000D03*
X70878002Y-73100000D03*
X98558002Y-63844625D03*
X90500000Y-48100000D03*
X90500000Y-50300000D03*
X102940000Y-61800000D03*
X71978002Y-59300000D03*
X96800000Y-69100000D03*
X132670000Y-53450000D03*
X104340000Y-63000000D03*
X80721998Y-79000000D03*
X117740000Y-83720000D03*
X80778002Y-52900000D03*
X115780000Y-81770000D03*
X80721998Y-65600000D03*
X70878002Y-60400000D03*
X98558002Y-61644625D03*
X79678002Y-51800000D03*
X130470000Y-53450000D03*
X71978002Y-74200000D03*
%TO.N,DrainSol*%
X86360023Y-79954648D03*
%TO.N,3.3V*%
X79300000Y-97970000D03*
X91930000Y-110340000D03*
X94366488Y-114985897D03*
X82365375Y-91877687D03*
X80870000Y-116120000D03*
X85070000Y-106970000D03*
X97294851Y-80460000D03*
X92000000Y-111250000D03*
X76710000Y-107620000D03*
X101470851Y-80460000D03*
X95902851Y-80460000D03*
X122126693Y-123614947D03*
X98686851Y-80460000D03*
X109180000Y-110800000D03*
X122820000Y-123530000D03*
X80695375Y-93067687D03*
X91930000Y-108740000D03*
X91810000Y-114980000D03*
X82640000Y-94560000D03*
X87250000Y-110470000D03*
X79415375Y-94407687D03*
X114720000Y-133830000D03*
X100078851Y-80460000D03*
X91920000Y-109510000D03*
X81905375Y-94307687D03*
X100170000Y-110110000D03*
X124570000Y-85910000D03*
X88270000Y-110460000D03*
X94510851Y-80460000D03*
X87430000Y-106970000D03*
%TO.N,Drain_Level_FP*%
X152775735Y-67494265D03*
%TO.N,Fogger_Basin_Float_Switch_FP*%
X151290000Y-66600000D03*
%TO.N,BootMode*%
X127100000Y-121300000D03*
%TO.N,GND*%
X84130000Y-56140000D03*
X76195375Y-81262373D03*
X92500000Y-112810000D03*
X88120000Y-41560000D03*
X88110000Y-42240000D03*
X94536000Y-86610000D03*
X75380000Y-64070000D03*
X95100000Y-69100000D03*
X87430000Y-103970000D03*
X101734625Y-122830000D03*
X116413333Y-88220000D03*
X120240000Y-119460000D03*
X78260000Y-121820000D03*
X93680000Y-112790000D03*
X101734625Y-121430000D03*
X111900000Y-114100000D03*
X75800000Y-67930000D03*
X98934625Y-121430000D03*
X89400000Y-109450000D03*
X97320000Y-86610000D03*
X119995375Y-121760000D03*
X101850000Y-62450000D03*
X100334625Y-122830000D03*
X84230000Y-81270000D03*
X125910000Y-123230000D03*
X101840000Y-63130000D03*
X75925375Y-55082373D03*
X98712000Y-86610000D03*
X100334625Y-121430000D03*
X122820000Y-127790000D03*
X91490000Y-106200000D03*
X84780000Y-85250000D03*
X93950000Y-52910000D03*
X79630000Y-112728813D03*
X76205375Y-80582373D03*
X124060000Y-134310000D03*
X78950000Y-112718813D03*
X79260000Y-102640000D03*
X84230000Y-68880000D03*
X90330000Y-109480000D03*
X76924669Y-112170000D03*
X122650000Y-75740000D03*
X99860000Y-65070000D03*
X90660000Y-107000000D03*
X81500000Y-96890000D03*
X113900000Y-88220000D03*
X125120000Y-123220000D03*
X98934625Y-120030000D03*
X84135375Y-46722373D03*
X119985375Y-122440000D03*
X101496000Y-86610000D03*
X75420000Y-51290000D03*
X93570000Y-108710000D03*
X83680000Y-42950000D03*
X120700000Y-76730000D03*
X84240000Y-68200000D03*
X83670000Y-43630000D03*
X84220000Y-81950000D03*
X124740000Y-134320000D03*
X84560000Y-59720000D03*
X122140000Y-127780000D03*
X75790000Y-68610000D03*
X84590000Y-72630000D03*
X79610000Y-124700000D03*
X121840000Y-75740000D03*
X75450000Y-76760000D03*
X100334625Y-120030000D03*
X101734625Y-120030000D03*
X80670000Y-97180000D03*
X78172373Y-115422373D03*
X78930000Y-124690000D03*
X75370000Y-64750000D03*
X100104000Y-86610000D03*
X98934625Y-122830000D03*
X84570000Y-59040000D03*
X84140000Y-55460000D03*
X111910000Y-113420000D03*
X80870000Y-120364000D03*
X84600000Y-71950000D03*
X93090000Y-58540000D03*
X99870000Y-64390000D03*
X84125375Y-47402373D03*
X75915375Y-55762373D03*
X120250000Y-118780000D03*
X95928000Y-86610000D03*
X115156667Y-88220000D03*
X75410000Y-51970000D03*
X117670000Y-88220000D03*
X93100000Y-105930000D03*
X75440000Y-77440000D03*
X93940000Y-53590000D03*
X119710000Y-76730000D03*
%TO.N,GlycolSol*%
X86364625Y-66872627D03*
%TO.N,EN_FP*%
X167700000Y-94200000D03*
%TO.N,12V_FP*%
X152250000Y-98880000D03*
X152340000Y-108050000D03*
X152340000Y-115070000D03*
X153420000Y-125970000D03*
X162380000Y-38170000D03*
X163680000Y-116360000D03*
X152350000Y-115680000D03*
X154030000Y-125960000D03*
X152260000Y-99490000D03*
X152320000Y-106830000D03*
X167270000Y-123580000D03*
X152330000Y-114460000D03*
X152270000Y-100100000D03*
X154640000Y-125950000D03*
X151370000Y-90880000D03*
X152330000Y-107440000D03*
%TO.N,Heater Fans_FP*%
X167600000Y-98800000D03*
%TO.N,EN*%
X124000000Y-127400000D03*
X91130000Y-116200000D03*
%TO.N,Piezo2*%
X100294625Y-67820000D03*
%TO.N,Piezo1*%
X100264625Y-70350000D03*
%TO.N,Soil_Moisture4*%
X109000000Y-124505375D03*
%TO.N,Soil_Moisture1*%
X106800000Y-125000000D03*
%TO.N,Soil_Moisture2*%
X105800000Y-125400000D03*
%TO.N,WaterSol*%
X86364625Y-54172627D03*
%TO.N,FoggerSol*%
X77564625Y-49972627D03*
%TO.N,Heater Fans*%
X77564625Y-62767627D03*
%TO.N,Fan_Tach*%
X107397537Y-105202463D03*
X109897537Y-107702463D03*
%TO.N,Circ_Fan*%
X77564625Y-75453574D03*
%TO.N,External_Fan_PWM*%
X106780000Y-106280000D03*
X108890000Y-108490000D03*
%TO.N,Heartbeat_LED*%
X94600000Y-130000000D03*
%TO.N,SoilMoisture2_FP*%
X152000000Y-66000000D03*
X147200000Y-66000000D03*
%TO.N,Circ_Fan_FP*%
X155600000Y-89600000D03*
%TO.N,Heartbeat_LED_FP*%
X156600000Y-96200000D03*
%TO.N,KSD_Fault*%
X111390000Y-133320000D03*
X127200000Y-72400000D03*
%TO.N,Memory_IO3*%
X84630000Y-101890000D03*
X83220000Y-98020000D03*
%TD*%
%TO.N,Net-(J36-Pin_1)*%
D58*
X83464625Y-57712627D02*
X83414625Y-57662627D01*
X81414625Y-55812627D02*
X81414625Y-57662627D01*
X81414625Y-57662627D02*
X83414625Y-57662627D01*
X86464625Y-57712627D02*
X83464625Y-57712627D01*
%TO.N,TXD0_FP*%
D59*
X154770000Y-59370000D02*
X154770000Y-58520000D01*
X154770000Y-58520000D02*
X154200000Y-57950000D01*
X154200000Y-55020000D02*
X151780000Y-52600000D01*
X154200000Y-57950000D02*
X154200000Y-55020000D01*
D58*
X157400000Y-62000000D02*
X161620000Y-62000000D01*
D59*
X153849000Y-60291000D02*
X154770000Y-59370000D01*
X151859000Y-60291000D02*
X153849000Y-60291000D01*
D58*
X154770000Y-59370000D02*
X157400000Y-62000000D01*
X161620000Y-62000000D02*
X161660000Y-62040000D01*
%TO.N,3.3V_FP*%
X147250000Y-64000000D02*
X147200000Y-64050000D01*
D60*
X161404453Y-98225547D02*
X161400000Y-98221094D01*
X161400000Y-98221094D02*
X161400000Y-97200000D01*
X152870000Y-59050000D02*
X152470000Y-59450000D01*
X161064453Y-96305417D02*
X161064453Y-96314453D01*
X150400000Y-71150000D02*
X150400000Y-72110000D01*
D58*
X161320000Y-97280000D02*
X161400000Y-97200000D01*
D60*
X161064453Y-96314453D02*
X161400000Y-96650000D01*
X148450000Y-64000000D02*
X147250000Y-64000000D01*
D58*
X148200000Y-39000000D02*
X147110000Y-37910000D01*
X155850000Y-88000000D02*
X155850000Y-87070000D01*
D60*
X161400000Y-96650000D02*
X161400000Y-97200000D01*
D58*
X155850000Y-87070000D02*
X155670000Y-86890000D01*
D60*
X152470000Y-59450000D02*
X151750000Y-59450000D01*
D58*
X147110000Y-37910000D02*
X146550000Y-37910000D01*
%TO.N,RXD0_FP*%
X150914000Y-60966000D02*
X150914000Y-58600000D01*
X160100000Y-62400000D02*
X154400000Y-62400000D01*
X151014000Y-58500000D02*
X151750000Y-58500000D01*
X163584925Y-62040000D02*
X162224925Y-63400000D01*
D59*
X151750000Y-58500000D02*
X151750000Y-55170000D01*
D58*
X161100000Y-63400000D02*
X160100000Y-62400000D01*
X154400000Y-62400000D02*
X152966000Y-60966000D01*
X150914000Y-58600000D02*
X151014000Y-58500000D01*
X152966000Y-60966000D02*
X150914000Y-60966000D01*
X162224925Y-63400000D02*
X161100000Y-63400000D01*
X151750000Y-58370000D02*
X151780000Y-58340000D01*
X164200000Y-62040000D02*
X163584925Y-62040000D01*
%TO.N,SCL_FP*%
X152566000Y-61366000D02*
X150748315Y-61366000D01*
X150186000Y-58500000D02*
X149450000Y-58500000D01*
D59*
X144576000Y-55540000D02*
X147536000Y-58500000D01*
D58*
X161660000Y-64580000D02*
X160080000Y-63000000D01*
X150748315Y-61366000D02*
X150400000Y-61017685D01*
X150400000Y-58714000D02*
X150186000Y-58500000D01*
X160080000Y-63000000D02*
X154200000Y-63000000D01*
D59*
X147536000Y-58500000D02*
X149450000Y-58500000D01*
X142200000Y-55540000D02*
X144576000Y-55540000D01*
D58*
X154200000Y-63000000D02*
X152566000Y-61366000D01*
X150400000Y-61017685D02*
X150400000Y-58714000D01*
%TO.N,GND_FP*%
D60*
X149450000Y-59450000D02*
X148190000Y-59450000D01*
D58*
X138740000Y-37950000D02*
X138730000Y-37940000D01*
D60*
X147230000Y-104550000D02*
X147230000Y-105650000D01*
X139380000Y-46570000D02*
X139890000Y-47080000D01*
D58*
X161420000Y-94880000D02*
X161400000Y-94900000D01*
D60*
X138720000Y-37330000D02*
X139220000Y-37330000D01*
D58*
X146990000Y-121050000D02*
X146980000Y-121060000D01*
D60*
X138770000Y-46570000D02*
X139380000Y-46570000D01*
D58*
X162220000Y-122040000D02*
X162210000Y-122050000D01*
D60*
X161420000Y-93880000D02*
X161420000Y-94880000D01*
D58*
X146990000Y-98050000D02*
X146980000Y-98060000D01*
D60*
X161600000Y-121560000D02*
X162220000Y-120940000D01*
X146370000Y-98070000D02*
X146370000Y-97570000D01*
X146370000Y-97570000D02*
X146990000Y-96950000D01*
X146020000Y-134520000D02*
X146020000Y-134270000D01*
X139890000Y-47080000D02*
X139890000Y-47190000D01*
X146700000Y-133670000D02*
X146700000Y-134520000D01*
X139890000Y-47190000D02*
X138790000Y-47190000D01*
X138790000Y-47790000D02*
X139290000Y-47790000D01*
D58*
X148190000Y-59450000D02*
X148180000Y-59440000D01*
D60*
X147830000Y-105650000D02*
X147830000Y-105150000D01*
X146610000Y-105170000D02*
X147230000Y-104550000D01*
X150750000Y-64000000D02*
X152060000Y-64000000D01*
X150400000Y-68850000D02*
X150400000Y-67770000D01*
X147300000Y-134270000D02*
X146700000Y-133670000D01*
X147620000Y-124320000D02*
X147620000Y-124820000D01*
D58*
X162420000Y-115020000D02*
X162410000Y-115030000D01*
D60*
X161600000Y-122060000D02*
X161600000Y-121560000D01*
X162220000Y-120940000D02*
X162220000Y-122040000D01*
X146700000Y-134520000D02*
X146690000Y-134530000D01*
X147000000Y-125440000D02*
X147000000Y-124340000D01*
X139840000Y-37950000D02*
X138740000Y-37950000D01*
D58*
X147000000Y-124340000D02*
X147010000Y-124330000D01*
D60*
X150250661Y-64000000D02*
X150750000Y-64000000D01*
X147020000Y-112020000D02*
X147020000Y-113120000D01*
X146370000Y-120570000D02*
X146990000Y-119950000D01*
X161400000Y-95580303D02*
X161400000Y-94900000D01*
X161800000Y-114540000D02*
X162420000Y-113920000D01*
X146400000Y-124840000D02*
X147000000Y-125440000D01*
X161775164Y-95886000D02*
X161705697Y-95886000D01*
X161230000Y-103860000D02*
X161230000Y-104360000D01*
X146370000Y-121070000D02*
X146370000Y-120570000D01*
X163020000Y-115020000D02*
X163020000Y-114520000D01*
X162450000Y-103840000D02*
X162450000Y-104340000D01*
X146400000Y-113140000D02*
X146400000Y-112640000D01*
X139220000Y-37330000D02*
X139840000Y-37950000D01*
X146990000Y-119950000D02*
X146990000Y-121050000D01*
X138740000Y-38550000D02*
X139240000Y-38550000D01*
X163020000Y-114520000D02*
X162420000Y-113920000D01*
X146990000Y-96950000D02*
X146990000Y-98050000D01*
D58*
X147020000Y-113120000D02*
X147010000Y-113130000D01*
D60*
X146400000Y-124340000D02*
X146400000Y-124840000D01*
X146020000Y-134270000D02*
X146620000Y-133670000D01*
X162420000Y-113920000D02*
X162420000Y-115020000D01*
X147590000Y-120550000D02*
X146990000Y-119950000D01*
X147300000Y-134520000D02*
X147300000Y-134270000D01*
D58*
X152060000Y-64000000D02*
X152070000Y-63990000D01*
D60*
X147590000Y-121050000D02*
X147590000Y-120550000D01*
X161800000Y-115040000D02*
X161800000Y-114540000D01*
X161230000Y-104360000D02*
X161830000Y-104960000D01*
X147620000Y-124820000D02*
X147000000Y-125440000D01*
X147830000Y-105150000D02*
X147230000Y-104550000D01*
X147620000Y-112620000D02*
X147020000Y-112020000D01*
X161775164Y-95938137D02*
X161775164Y-95886000D01*
X139240000Y-38550000D02*
X139840000Y-37950000D01*
X147590000Y-97550000D02*
X146990000Y-96950000D01*
D58*
X138790000Y-47190000D02*
X138780000Y-47180000D01*
D60*
X139290000Y-47790000D02*
X139890000Y-47190000D01*
X162450000Y-104340000D02*
X161830000Y-104960000D01*
X161705697Y-95886000D02*
X161400000Y-95580303D01*
X146590000Y-133670000D02*
X146700000Y-133670000D01*
D58*
X161830000Y-103860000D02*
X161840000Y-103850000D01*
D60*
X161830000Y-104960000D02*
X161830000Y-103860000D01*
X146610000Y-105670000D02*
X146610000Y-105170000D01*
X147590000Y-98050000D02*
X147590000Y-97550000D01*
D58*
X147230000Y-105650000D02*
X147220000Y-105660000D01*
D60*
X147620000Y-113120000D02*
X147620000Y-112620000D01*
X162820000Y-122040000D02*
X162820000Y-121540000D01*
X146400000Y-112640000D02*
X147020000Y-112020000D01*
X162820000Y-121540000D02*
X162220000Y-120940000D01*
%TO.N,SDA_FP*%
D59*
X142200000Y-58080000D02*
X144480000Y-58080000D01*
X146800000Y-60400000D02*
X149450000Y-60400000D01*
D58*
X164200000Y-64580000D02*
X162980000Y-65800000D01*
X158600000Y-63400000D02*
X154034314Y-63400000D01*
X150000000Y-60950000D02*
X149450000Y-60400000D01*
X152400314Y-61766000D02*
X150582629Y-61766000D01*
D59*
X144480000Y-58080000D02*
X146800000Y-60400000D01*
D58*
X150582629Y-61766000D02*
X150000000Y-61183370D01*
X154034314Y-63400000D02*
X152400314Y-61766000D01*
X162980000Y-65800000D02*
X161000000Y-65800000D01*
X150000000Y-61183370D02*
X150000000Y-60950000D01*
X161000000Y-65800000D02*
X158600000Y-63400000D01*
%TO.N,12V*%
X97294625Y-64730000D02*
X97280000Y-64744625D01*
D60*
X90500000Y-48100000D02*
X90500000Y-50300000D01*
X130470000Y-53450000D02*
X132670000Y-53450000D01*
X71900000Y-46500000D02*
X71900000Y-48700000D01*
X97458002Y-62744625D02*
X98580000Y-62744625D01*
X98080000Y-65644625D02*
X98080000Y-64810000D01*
X131570000Y-54550000D02*
X131570000Y-53428002D01*
X70878002Y-73100000D02*
X72000000Y-73100000D01*
D58*
X98080000Y-64810000D02*
X98160000Y-64730000D01*
D60*
X98558002Y-63844625D02*
X98160000Y-64242627D01*
X104340000Y-63000000D02*
X104340000Y-61778002D01*
X98160000Y-64242627D02*
X98160000Y-64730000D01*
X98160000Y-64730000D02*
X97294625Y-64730000D01*
X78978002Y-39500000D02*
X80100000Y-39500000D01*
X70800000Y-47600000D02*
X71921998Y-47600000D01*
X98558002Y-61644625D02*
X98558002Y-63844625D01*
X71978002Y-72000000D02*
X71978002Y-74200000D01*
X79678002Y-51800000D02*
X80800000Y-51800000D01*
X70878002Y-60400000D02*
X72000000Y-60400000D01*
X71978002Y-59300000D02*
X71978002Y-61500000D01*
X102940000Y-61800000D02*
X105740000Y-61800000D01*
X96800000Y-69100000D02*
X98432125Y-69100000D01*
X80721998Y-65600000D02*
X80721998Y-63400000D01*
X80778002Y-50700000D02*
X80778002Y-52900000D01*
X81921998Y-77600000D02*
X80700000Y-77600000D01*
X89400000Y-49200000D02*
X90521998Y-49200000D01*
X80721998Y-79000000D02*
X80721998Y-76200000D01*
D58*
X98432125Y-69100000D02*
X98434625Y-69102500D01*
X71921998Y-47600000D02*
X71934625Y-47612627D01*
D60*
X81821998Y-64500000D02*
X80700000Y-64500000D01*
X80078002Y-38400000D02*
X80078002Y-40600000D01*
%TO.N,DrainSol*%
D58*
X86360023Y-79954648D02*
X86360023Y-77794648D01*
X83160023Y-77594648D02*
X82360023Y-78394648D01*
X86360023Y-77794648D02*
X84190023Y-77794648D01*
X83990023Y-77594648D02*
X83160023Y-77594648D01*
X82360023Y-78394648D02*
X82360023Y-79594648D01*
%TO.N,Drain_Level*%
X123034625Y-120280000D02*
X124034625Y-119280000D01*
X124034625Y-119280000D02*
X124034625Y-105465375D01*
X124034625Y-105465375D02*
X125700000Y-103800000D01*
X115580686Y-122460000D02*
X117184625Y-120856061D01*
X115510000Y-122460000D02*
X115580686Y-122460000D01*
X117184625Y-120280000D02*
X123034625Y-120280000D01*
X117184625Y-120856061D02*
X117184625Y-120280000D01*
%TO.N,DrainLevel_IO*%
X117480000Y-122345000D02*
X116376500Y-123448500D01*
X117480000Y-122080000D02*
X117480000Y-122345000D01*
X110584625Y-121330000D02*
X112380000Y-121330000D01*
X116376500Y-123448500D02*
X114498500Y-123448500D01*
X114498500Y-123448500D02*
X113510000Y-122460000D01*
X112380000Y-121330000D02*
X113510000Y-122460000D01*
%TO.N,Piezo2_FP*%
X143380000Y-38120000D02*
X145140000Y-38120000D01*
X146400000Y-39380000D02*
X146400000Y-45430000D01*
X158600000Y-53200000D02*
X161660000Y-56260000D01*
X146400000Y-45430000D02*
X148470000Y-47500000D01*
D59*
X143180000Y-37920000D02*
X143180000Y-38160000D01*
D58*
X145140000Y-38120000D02*
X146400000Y-39380000D01*
X154740000Y-47500000D02*
X158600000Y-51360000D01*
D59*
X143180000Y-38160000D02*
X141990000Y-39350000D01*
D58*
X143180000Y-37920000D02*
X143380000Y-38120000D01*
X148470000Y-47500000D02*
X154740000Y-47500000D01*
D59*
X141990000Y-39350000D02*
X141990000Y-41320000D01*
D58*
X161660000Y-56260000D02*
X161660000Y-56960000D01*
X158600000Y-51360000D02*
X158600000Y-53200000D01*
%TO.N,Piezo1_FP*%
X158200000Y-51800000D02*
X158200000Y-56040000D01*
D59*
X141990000Y-43860000D02*
X141990000Y-45920000D01*
X141990000Y-45920000D02*
X143190000Y-47120000D01*
D58*
X143190000Y-47120000D02*
X144070000Y-48000000D01*
X154400000Y-48000000D02*
X158200000Y-51800000D01*
X144070000Y-48000000D02*
X154400000Y-48000000D01*
X158200000Y-56040000D02*
X161660000Y-59500000D01*
%TO.N,Fogger_Basin_Float_Switch*%
X115590000Y-119574625D02*
X118384625Y-116780000D01*
X123145375Y-105739550D02*
X124400000Y-104484925D01*
X124400000Y-104484925D02*
X124400000Y-103000000D01*
X115590000Y-120030000D02*
X115590000Y-119574625D01*
X124800000Y-102600000D02*
X127040000Y-102600000D01*
X124400000Y-103000000D02*
X124800000Y-102600000D01*
X127040000Y-102600000D02*
X128240000Y-103800000D01*
X118384625Y-116780000D02*
X120834625Y-116780000D01*
X120834625Y-116780000D02*
X120834625Y-108894625D01*
X123145375Y-106583875D02*
X123145375Y-105739550D01*
X120834625Y-108894625D02*
X123145375Y-106583875D01*
%TO.N,Net-(U6-VSENSE)*%
X105550000Y-86450000D02*
X105790000Y-86690000D01*
X107600000Y-88240000D02*
X105940000Y-88240000D01*
X105790000Y-86690000D02*
X107500000Y-86690000D01*
X105550000Y-85080000D02*
X105550000Y-86450000D01*
X107500000Y-86690000D02*
X107600000Y-86590000D01*
X105730000Y-84900000D02*
X105550000Y-85080000D01*
X107600000Y-88240000D02*
X107600000Y-86590000D01*
X105940000Y-88240000D02*
X105890000Y-88190000D01*
X105890000Y-88190000D02*
X105890000Y-86790000D01*
X105730000Y-83060000D02*
X105730000Y-84900000D01*
%TO.N,3.3V*%
D60*
X82584625Y-95186937D02*
X81805375Y-94407687D01*
D58*
X123934625Y-74680000D02*
X123940000Y-74685375D01*
X79300000Y-99164625D02*
X79284625Y-99180000D01*
D60*
X82370000Y-91882312D02*
X82365375Y-91877687D01*
X122420000Y-123930000D02*
X122820000Y-123530000D01*
X82640000Y-94560000D02*
X82640000Y-96344625D01*
D58*
X82487687Y-94407687D02*
X82640000Y-94560000D01*
D60*
X86500000Y-107060000D02*
X86590000Y-106970000D01*
D58*
X94050000Y-83100000D02*
X94050000Y-82310000D01*
X123940000Y-74685375D02*
X123940000Y-85280000D01*
X87780000Y-111730000D02*
X87780000Y-111000000D01*
X104320000Y-83490000D02*
X104130000Y-83680000D01*
D60*
X76934625Y-107844625D02*
X76710000Y-107620000D01*
X80695375Y-94507687D02*
X80695375Y-93067687D01*
X91490000Y-108300000D02*
X91930000Y-108740000D01*
X79415375Y-94407687D02*
X81805375Y-94407687D01*
X92120000Y-110530000D02*
X91930000Y-110340000D01*
D58*
X102890000Y-83680000D02*
X103120000Y-83680000D01*
X122420000Y-123970000D02*
X122420000Y-123930000D01*
X81805375Y-94407687D02*
X81905375Y-94307687D01*
X103120000Y-83680000D02*
X103550000Y-84110000D01*
D60*
X85070000Y-106970000D02*
X85660000Y-106970000D01*
X87780000Y-110950000D02*
X88270000Y-110460000D01*
X76934625Y-108830000D02*
X76934625Y-107844625D01*
D58*
X94360591Y-114980000D02*
X94366488Y-114985897D01*
X114720000Y-132794625D02*
X114734625Y-132780000D01*
X108090000Y-110800000D02*
X108050000Y-110760000D01*
X82584625Y-96400000D02*
X82584625Y-95186937D01*
X109180000Y-110800000D02*
X108090000Y-110800000D01*
X123940000Y-85280000D02*
X124570000Y-85910000D01*
X86060000Y-107055375D02*
X86034625Y-107030000D01*
X104130000Y-83680000D02*
X102890000Y-83680000D01*
D60*
X80870000Y-116120000D02*
X80870000Y-117154000D01*
X87780000Y-111730000D02*
X87780000Y-110950000D01*
D58*
X80805375Y-93177687D02*
X80695375Y-93067687D01*
D60*
X122484625Y-124530000D02*
X122420000Y-124465375D01*
D58*
X102890000Y-83680000D02*
X94630000Y-83680000D01*
D60*
X122420000Y-123970000D02*
X122100625Y-123650625D01*
X81805375Y-94407687D02*
X82487687Y-94407687D01*
D58*
X103550000Y-84110000D02*
X103550000Y-85080000D01*
D60*
X91490000Y-107840000D02*
X91490000Y-108300000D01*
D58*
X93604625Y-110530000D02*
X92940000Y-110530000D01*
D60*
X82370000Y-93177687D02*
X80805375Y-93177687D01*
D58*
X94630000Y-83680000D02*
X94050000Y-83100000D01*
X82640000Y-96344625D02*
X82584625Y-96400000D01*
D60*
X122420000Y-124465375D02*
X122420000Y-123970000D01*
D58*
X100170000Y-110110000D02*
X101170000Y-110110000D01*
D60*
X91810000Y-114980000D02*
X94360591Y-114980000D01*
X92940000Y-110530000D02*
X91920000Y-109510000D01*
X85750000Y-107060000D02*
X86500000Y-107060000D01*
X86590000Y-106970000D02*
X87430000Y-106970000D01*
X87780000Y-111000000D02*
X87250000Y-110470000D01*
D58*
X93604625Y-110530000D02*
X92720000Y-110530000D01*
X114720000Y-133830000D02*
X114720000Y-132794625D01*
D60*
X122100625Y-123650625D02*
X122100625Y-123645251D01*
D58*
X101170000Y-110110000D02*
X101230000Y-110050000D01*
X122520000Y-124530000D02*
X122484625Y-124530000D01*
D60*
X92720000Y-110530000D02*
X92000000Y-111250000D01*
X85660000Y-106970000D02*
X85750000Y-107060000D01*
X79300000Y-97970000D02*
X79300000Y-99164625D01*
X82370000Y-93177687D02*
X82370000Y-91882312D01*
X93604625Y-110530000D02*
X92120000Y-110530000D01*
%TO.N,/Faceplate/Data Line ESD1/IO1*%
D58*
X149450000Y-71150000D02*
X149450000Y-70850000D01*
%TO.N,Drain_Level_FP*%
X151745735Y-67494265D02*
X151350000Y-67890000D01*
X151350000Y-67890000D02*
X151350000Y-68850000D01*
X152775735Y-67494265D02*
X151745735Y-67494265D01*
D59*
X152000000Y-74600000D02*
X152400000Y-74200000D01*
X152400000Y-74200000D02*
X152400000Y-69900000D01*
X152400000Y-69900000D02*
X151350000Y-68850000D01*
%TO.N,Fogger_Basin_Float_Switch_FP*%
D58*
X149450000Y-67460000D02*
X149450000Y-68850000D01*
D59*
X149450000Y-68850000D02*
X148400000Y-69900000D01*
D58*
X151290000Y-66600000D02*
X150310000Y-66600000D01*
X150310000Y-66600000D02*
X149450000Y-67460000D01*
D59*
X148400000Y-77945000D02*
X152180000Y-81725000D01*
X148400000Y-69900000D02*
X148400000Y-77945000D01*
%TO.N,Net-(U8-DO)*%
D58*
X83854625Y-103460000D02*
X83854625Y-105750000D01*
X83854625Y-103460000D02*
X83854625Y-102650000D01*
X83854625Y-105750000D02*
X83934625Y-105830000D01*
%TO.N,MISO*%
X92034625Y-118390000D02*
X92034625Y-116600000D01*
X89051625Y-123472000D02*
X89051625Y-122008000D01*
X75408279Y-103960000D02*
X75084625Y-103636346D01*
X80462442Y-102482000D02*
X80006808Y-102482000D01*
X78434625Y-106666808D02*
X78434625Y-107994000D01*
X85734625Y-109549689D02*
X86406000Y-108878314D01*
X86960311Y-124040000D02*
X87551625Y-124040000D01*
X79587625Y-105312000D02*
X78181625Y-105312000D01*
X87551625Y-123140000D02*
X86060311Y-123140000D01*
X87551625Y-122008000D02*
X88957625Y-122008000D01*
X90056939Y-118708000D02*
X89920939Y-118572000D01*
X89920939Y-118572000D02*
X89051625Y-118572000D01*
X90457625Y-122340000D02*
X92034625Y-122340000D01*
X77768625Y-102030000D02*
X76866807Y-102030000D01*
X92034625Y-120810000D02*
X92034625Y-120460000D01*
X79820000Y-102351471D02*
X79860000Y-102391471D01*
X92034625Y-121850000D02*
X94134625Y-121850000D01*
X86260311Y-122340000D02*
X87551625Y-122340000D01*
X79840808Y-102316000D02*
X79820000Y-102316000D01*
X77034625Y-100642182D02*
X77322443Y-100930000D01*
X86124625Y-101270000D02*
X88270000Y-103415375D01*
X78450625Y-107994000D02*
X78450625Y-108430000D01*
X84366311Y-99794000D02*
X83644310Y-100516000D01*
X77034625Y-103286346D02*
X76360971Y-103960000D01*
X78734625Y-102963154D02*
X78734625Y-103848000D01*
X77768625Y-100016000D02*
X77768625Y-99520000D01*
X79011471Y-103240000D02*
X78734625Y-102963154D01*
X88117310Y-117108000D02*
X88957625Y-117108000D01*
X86934625Y-115980000D02*
X86989311Y-115980000D01*
X86657939Y-116780000D02*
X86534625Y-116780000D01*
X80800625Y-102316000D02*
X80628442Y-102316000D01*
X79587625Y-103848000D02*
X79587625Y-105312000D01*
X85670625Y-108878314D02*
X85670625Y-120066000D01*
X88957625Y-124772000D02*
X89051625Y-124772000D01*
X82984625Y-107864314D02*
X83150311Y-108030000D01*
X89051625Y-118572000D02*
X89051625Y-117108000D01*
X94134625Y-129616846D02*
X94351471Y-129400000D01*
X82184625Y-104739741D02*
X81969625Y-104524741D01*
X80628442Y-102316000D02*
X80462442Y-102482000D01*
X88806000Y-115292500D02*
X88806000Y-114070000D01*
X84213051Y-108030000D02*
X85670624Y-109487571D01*
X86989311Y-115980000D02*
X88117310Y-117108000D01*
X89804315Y-115790000D02*
X89570000Y-115555685D01*
X82839366Y-102035000D02*
X83199625Y-102395259D01*
X90156940Y-123472000D02*
X89051625Y-123472000D01*
X89051625Y-122008000D02*
X90457625Y-122008000D01*
X88957625Y-122008000D02*
X88957625Y-123472000D01*
X87551625Y-119840000D02*
X86878939Y-119840000D01*
X90457625Y-117108000D02*
X90457625Y-117977314D01*
X82984625Y-104739741D02*
X82984625Y-107864314D01*
X88270000Y-101981061D02*
X86082939Y-99794000D01*
X76256807Y-101420000D02*
X75481731Y-101420000D01*
X80006808Y-102482000D02*
X79840808Y-102316000D01*
X76360971Y-101660000D02*
X77034625Y-102333654D01*
X94134625Y-121850000D02*
X94134625Y-129616846D01*
X85670624Y-109487571D02*
X85670625Y-121750314D01*
X77034625Y-105266807D02*
X78434625Y-106666808D01*
X83934625Y-107330000D02*
X83934625Y-107624625D01*
X89920939Y-120172000D02*
X89051625Y-120172000D01*
X78181625Y-104442685D02*
X77934625Y-104195685D01*
X77934625Y-102316000D02*
X77768625Y-102316000D01*
X87551625Y-118572000D02*
X87551625Y-117673686D01*
X87551625Y-122340000D02*
X87551625Y-122008000D01*
X75721731Y-101660000D02*
X76360971Y-101660000D01*
X83150311Y-108030000D02*
X84213051Y-108030000D01*
X91578529Y-116600000D02*
X91378529Y-116800000D01*
X94848529Y-129400000D02*
X95000000Y-129551471D01*
X85188314Y-108878314D02*
X85670625Y-108878314D01*
X94351471Y-129400000D02*
X94848529Y-129400000D01*
X77034625Y-99793654D02*
X77034625Y-100642182D01*
X89051625Y-117108000D02*
X90457625Y-117108000D01*
X79860000Y-102391471D02*
X79860000Y-102888529D01*
X85670625Y-121750314D02*
X86260311Y-122340000D01*
X88957625Y-118708000D02*
X88957625Y-120172000D01*
X88957625Y-120172000D02*
X87551625Y-120172000D01*
X94690310Y-117920000D02*
X94134625Y-117920000D01*
X89051625Y-124772000D02*
X89051625Y-123708000D01*
X88718500Y-114070000D02*
X88718500Y-114536500D01*
X82194625Y-101270000D02*
X86124625Y-101270000D01*
X86934625Y-114536500D02*
X86934625Y-115980000D01*
X86534625Y-118364314D02*
X87210311Y-119040000D01*
X90530000Y-116448529D02*
X90530000Y-116165686D01*
X95000000Y-129551471D02*
X95000000Y-117610311D01*
X80384625Y-103080000D02*
X82194625Y-101270000D01*
X88270000Y-103415375D02*
X88270000Y-101981061D01*
X90154314Y-115790000D02*
X89804315Y-115790000D01*
X92794625Y-121040000D02*
X93084625Y-121330000D01*
X79820000Y-102316000D02*
X79820000Y-102351471D01*
X86060311Y-123140000D02*
X86960311Y-124040000D01*
X88806000Y-114070000D02*
X88718500Y-114070000D01*
X87551625Y-118708000D02*
X88957625Y-118708000D01*
X83934625Y-107624625D02*
X85188314Y-108878314D01*
X78734625Y-103848000D02*
X79587625Y-103848000D01*
X87551625Y-119040000D02*
X87551625Y-118708000D01*
X86082939Y-99794000D02*
X84366311Y-99794000D01*
X92034625Y-116600000D02*
X91578529Y-116600000D01*
X90457625Y-117977314D02*
X90870311Y-118390000D01*
X77768625Y-100644000D02*
X80800625Y-100644000D01*
X78452939Y-100516000D02*
X77952940Y-100016000D01*
X87551625Y-123708000D02*
X88957625Y-123708000D01*
X82184625Y-108195685D02*
X82184625Y-104739741D01*
X79860000Y-102888529D02*
X79508529Y-103240000D01*
X90881471Y-116800000D02*
X90530000Y-116448529D01*
X77768625Y-102316000D02*
X77768625Y-102030000D01*
X81969625Y-102395259D02*
X82329884Y-102035000D01*
X94134625Y-117920000D02*
X94134625Y-120810000D01*
X89570000Y-115292500D02*
X88806000Y-115292500D01*
X78434625Y-107994000D02*
X78450625Y-107994000D01*
X80384625Y-104580000D02*
X80384625Y-103080000D01*
X83644310Y-100516000D02*
X78452939Y-100516000D01*
X87551625Y-120172000D02*
X87551625Y-119840000D01*
X89051625Y-120172000D02*
X89051625Y-118708000D01*
X89051625Y-118708000D02*
X90056939Y-118708000D01*
X90457625Y-122008000D02*
X90457625Y-122340000D01*
X82418940Y-108430000D02*
X82184625Y-108195685D01*
X86406000Y-108878314D02*
X85670625Y-108878314D01*
X88957625Y-123708000D02*
X88957625Y-124772000D01*
X75084625Y-104200000D02*
X77034625Y-104200000D01*
X92034625Y-122340000D02*
X92034625Y-121850000D01*
X91378529Y-116800000D02*
X90881471Y-116800000D01*
X89051625Y-123708000D02*
X89920939Y-123708000D01*
X83199625Y-104524741D02*
X82984625Y-104739741D01*
X76360971Y-103960000D02*
X75408279Y-103960000D01*
X95000000Y-117610311D02*
X94690310Y-117920000D01*
X75084625Y-103636346D02*
X75084625Y-104200000D01*
X89920939Y-123708000D02*
X90156940Y-123472000D01*
X78181625Y-105312000D02*
X78181625Y-104442685D01*
X77952940Y-100016000D02*
X77768625Y-100016000D01*
X79508529Y-103240000D02*
X79011471Y-103240000D01*
X87551625Y-117673686D02*
X86657939Y-116780000D01*
X94134625Y-120810000D02*
X92034625Y-120810000D01*
X90530000Y-116165686D02*
X90154314Y-115790000D01*
X77034625Y-102333654D02*
X77034625Y-103286346D01*
X87210311Y-119040000D02*
X87551625Y-119040000D01*
X87551625Y-123472000D02*
X87551625Y-123140000D01*
X87551625Y-124040000D02*
X87551625Y-123708000D01*
X77768625Y-99520000D02*
X76760971Y-99520000D01*
X77322443Y-100930000D02*
X77768625Y-100930000D01*
X88957625Y-123472000D02*
X87551625Y-123472000D01*
X83199625Y-102395259D02*
X83199625Y-104524741D01*
X85734625Y-118695685D02*
X85734625Y-109549689D01*
X90870311Y-118390000D02*
X92034625Y-118390000D01*
X90208939Y-120460000D02*
X89920939Y-120172000D01*
X85670625Y-120066000D02*
X86934625Y-121330000D01*
X81969625Y-104524741D02*
X81969625Y-102395259D01*
X76760971Y-99520000D02*
X77034625Y-99793654D01*
X86534625Y-116780000D02*
X86534625Y-118364314D01*
X89570000Y-115555685D02*
X89570000Y-115292500D01*
X77934625Y-104195685D02*
X77934625Y-102316000D01*
X76866807Y-102030000D02*
X76256807Y-101420000D01*
X88957625Y-117108000D02*
X88957625Y-118572000D01*
X88957625Y-118572000D02*
X87551625Y-118572000D01*
X75481731Y-101420000D02*
X75721731Y-101660000D01*
X86878939Y-119840000D02*
X85734625Y-118695685D01*
X92034625Y-120460000D02*
X90208939Y-120460000D01*
X78450625Y-108430000D02*
X82418940Y-108430000D01*
X77768625Y-100930000D02*
X77768625Y-100644000D01*
X82329884Y-102035000D02*
X82839366Y-102035000D01*
X77034625Y-104200000D02*
X77034625Y-105266807D01*
X86934625Y-121330000D02*
X93084625Y-121330000D01*
X88718500Y-114536500D02*
X86934625Y-114536500D01*
X80800625Y-100644000D02*
X80800625Y-102316000D01*
%TO.N,BootMode*%
X117324625Y-128280000D02*
X118234625Y-129190000D01*
X126754625Y-121660000D02*
X126800000Y-121614625D01*
X121828625Y-125800000D02*
X124000625Y-125800000D01*
X111894625Y-130220000D02*
X113834625Y-128280000D01*
X110584625Y-130220000D02*
X111894625Y-130220000D01*
D59*
X119174625Y-129190000D02*
X121534625Y-126830000D01*
D58*
X124306000Y-123104000D02*
X125750000Y-121660000D01*
X125750000Y-121660000D02*
X126754625Y-121660000D01*
X124200000Y-124800000D02*
X124200000Y-124200000D01*
X124306000Y-124094000D02*
X124306000Y-123104000D01*
X126800000Y-121614625D02*
X126800000Y-121600000D01*
X124000625Y-125800000D02*
X124000625Y-124999375D01*
X124200000Y-124200000D02*
X124306000Y-124094000D01*
X121534625Y-126094000D02*
X121828625Y-125800000D01*
X121534625Y-126830000D02*
X121534625Y-126094000D01*
X124000625Y-124999375D02*
X124200000Y-124800000D01*
X126800000Y-121600000D02*
X127100000Y-121300000D01*
X113834625Y-128280000D02*
X117324625Y-128280000D01*
D59*
X118234625Y-129190000D02*
X119174625Y-129190000D01*
%TO.N,GND*%
D60*
X122500000Y-127410000D02*
X122140000Y-127770000D01*
X92500000Y-113125375D02*
X93084625Y-113710000D01*
X79272373Y-124362373D02*
X79610000Y-124700000D01*
D58*
X83480000Y-85250000D02*
X83320000Y-85410000D01*
D60*
X121850000Y-75730000D02*
X121830000Y-75730000D01*
X75060000Y-55420000D02*
X75587748Y-55420000D01*
X122500000Y-127410000D02*
X122500000Y-126845375D01*
X81500000Y-96712312D02*
X80695375Y-95907687D01*
X93100000Y-105930000D02*
X93604625Y-106434625D01*
X78260000Y-121820000D02*
X78257627Y-121817627D01*
X122240000Y-75340000D02*
X122240000Y-74635375D01*
X75027627Y-64407627D02*
X75370000Y-64750000D01*
X122640000Y-75740000D02*
X122240000Y-75340000D01*
X81500000Y-96890000D02*
X81500000Y-96712312D01*
X74934625Y-68267627D02*
X75462373Y-68267627D01*
X75447627Y-68267627D02*
X75790000Y-68610000D01*
X75867748Y-80920000D02*
X76205375Y-80582373D01*
X84217627Y-59377627D02*
X84560000Y-59720000D01*
X120275375Y-76305375D02*
X120134625Y-76305375D01*
X125484625Y-124480000D02*
X125484625Y-123584625D01*
X87767627Y-41897627D02*
X88110000Y-42240000D01*
X87782373Y-41897627D02*
X88120000Y-41560000D01*
X84262373Y-72287627D02*
X84600000Y-71950000D01*
X79287627Y-113056440D02*
X78950000Y-112718813D01*
X77336998Y-115420000D02*
X78170000Y-115420000D01*
X89980000Y-110030000D02*
X89400000Y-109450000D01*
X83342373Y-43287627D02*
X83680000Y-42950000D01*
D58*
X76934625Y-112160044D02*
X76924669Y-112170000D01*
D60*
X122240000Y-74635375D02*
X122234625Y-74630000D01*
X74554625Y-51627627D02*
X75082373Y-51627627D01*
X99004625Y-64727627D02*
X99532373Y-64727627D01*
X125484625Y-123584625D02*
X125120000Y-123220000D01*
X124402373Y-133454625D02*
X124402373Y-133982373D01*
X76934625Y-111130000D02*
X76934625Y-112160044D01*
X89980000Y-109830000D02*
X90330000Y-109480000D01*
X122650000Y-75740000D02*
X122640000Y-75740000D01*
X74584625Y-77097627D02*
X75112373Y-77097627D01*
D58*
X122500000Y-127410000D02*
X122484625Y-127394625D01*
D60*
X75042373Y-64407627D02*
X75380000Y-64070000D01*
X110584625Y-113710000D02*
X110632252Y-113757627D01*
X83704625Y-59377627D02*
X84232373Y-59377627D01*
X84247627Y-72287627D02*
X84590000Y-72630000D01*
X83802373Y-55797627D02*
X84140000Y-55460000D01*
X93597627Y-53247627D02*
X93940000Y-53590000D01*
X119384625Y-119117627D02*
X119912373Y-119117627D01*
X90660000Y-107000000D02*
X91490000Y-107000000D01*
X93680000Y-112790000D02*
X92520000Y-112790000D01*
X74514625Y-64407627D02*
X75042373Y-64407627D01*
X119912373Y-119117627D02*
X120250000Y-118780000D01*
D58*
X84780000Y-85250000D02*
X83480000Y-85250000D01*
D60*
X125484625Y-123655375D02*
X125910000Y-123230000D01*
X80870000Y-120364000D02*
X80870000Y-119330000D01*
X93570000Y-108710000D02*
X93604625Y-108675375D01*
D58*
X122484625Y-127394625D02*
X122484625Y-126830000D01*
D60*
X75462373Y-68267627D02*
X75800000Y-67930000D01*
X83902373Y-68537627D02*
X84240000Y-68200000D01*
X83374625Y-68537627D02*
X83902373Y-68537627D01*
X92500000Y-112810000D02*
X92500000Y-113125375D01*
X100984625Y-62787627D02*
X101512373Y-62787627D01*
X77424625Y-121817627D02*
X78257627Y-121817627D01*
X122820000Y-127730000D02*
X122500000Y-127410000D01*
X119897627Y-119117627D02*
X120240000Y-119460000D01*
X93084625Y-113385375D02*
X93680000Y-112790000D01*
X122820000Y-127790000D02*
X122820000Y-127730000D01*
D58*
X93604625Y-107350000D02*
X93604625Y-106784625D01*
D60*
X87254625Y-41897627D02*
X87782373Y-41897627D01*
X120134625Y-76305375D02*
X119710000Y-76730000D01*
X93604625Y-108675375D02*
X93604625Y-106784625D01*
X122234625Y-74665375D02*
X122240000Y-74670750D01*
X93294625Y-69102500D02*
X95097500Y-69102500D01*
X83364625Y-81607627D02*
X83892373Y-81607627D01*
X82814625Y-43287627D02*
X83342373Y-43287627D01*
X122240000Y-75340000D02*
X121850000Y-75730000D01*
X86894625Y-103970000D02*
X86384625Y-103460000D01*
X83327627Y-43287627D02*
X83670000Y-43630000D01*
X91490000Y-107000000D02*
X91490000Y-106200000D01*
X83270000Y-47060000D02*
X83797748Y-47060000D01*
X92520000Y-112790000D02*
X92500000Y-112810000D01*
D58*
X80695375Y-95907687D02*
X80695375Y-96355375D01*
D60*
X93084625Y-53247627D02*
X93612373Y-53247627D01*
D58*
X125484625Y-124480000D02*
X125484625Y-123655375D01*
D60*
X84232373Y-59377627D02*
X84570000Y-59040000D01*
X75853002Y-80920000D02*
X76195375Y-81262373D01*
X101512373Y-62787627D02*
X101850000Y-62450000D01*
X83797748Y-47060000D02*
X84135375Y-46722373D01*
X119864625Y-74910000D02*
X120134625Y-75180000D01*
X120700000Y-76730000D02*
X120275375Y-76305375D01*
X79270000Y-101392687D02*
X79270000Y-102587312D01*
X78170000Y-115420000D02*
X77850000Y-115420000D01*
D58*
X122234625Y-74630000D02*
X122234625Y-74665375D01*
D60*
X83887627Y-68537627D02*
X84230000Y-68880000D01*
X83892373Y-81607627D02*
X84230000Y-81270000D01*
X101497627Y-62787627D02*
X101840000Y-63130000D01*
X75112373Y-77097627D02*
X75450000Y-76760000D01*
X111572373Y-113757627D02*
X111910000Y-113420000D01*
X79272373Y-123834625D02*
X79272373Y-124362373D01*
D58*
X93084625Y-113710000D02*
X93084625Y-113385375D01*
X80695375Y-97154625D02*
X80670000Y-97180000D01*
D60*
X75573002Y-55420000D02*
X75915375Y-55762373D01*
X119130000Y-122097627D02*
X119657748Y-122097627D01*
X75067627Y-51627627D02*
X75410000Y-51970000D01*
X122500000Y-126845375D02*
X122484625Y-126830000D01*
X75097627Y-77097627D02*
X75440000Y-77440000D01*
X122240000Y-74670750D02*
X122240000Y-75340000D01*
X124402373Y-133967627D02*
X124060000Y-134310000D01*
X83877627Y-81607627D02*
X84220000Y-81950000D01*
X119643002Y-122097627D02*
X119985375Y-122440000D01*
X120134625Y-75180000D02*
X120134625Y-76305375D01*
X79272373Y-124347627D02*
X78930000Y-124690000D01*
D58*
X121830000Y-75730000D02*
X121840000Y-75740000D01*
D60*
X111557627Y-113757627D02*
X111900000Y-114100000D01*
D58*
X93090000Y-57619250D02*
X93164625Y-57544625D01*
X93090000Y-58540000D02*
X93090000Y-57619250D01*
D60*
X83783002Y-47060000D02*
X84125375Y-47402373D01*
X124402373Y-133982373D02*
X124740000Y-134320000D01*
X122140000Y-127770000D02*
X122140000Y-127780000D01*
X79287627Y-113584188D02*
X79287627Y-113056440D01*
X75587748Y-55420000D02*
X75925375Y-55082373D01*
X110632252Y-113757627D02*
X111572373Y-113757627D01*
X99532373Y-64727627D02*
X99870000Y-64390000D01*
X99517627Y-64727627D02*
X99860000Y-65070000D01*
X87430000Y-103970000D02*
X86894625Y-103970000D01*
X83734625Y-72287627D02*
X84262373Y-72287627D01*
X78257627Y-121817627D02*
X77937627Y-121817627D01*
X89980000Y-111070000D02*
X89980000Y-110030000D01*
X119657748Y-122097627D02*
X119995375Y-121760000D01*
X79287627Y-113071186D02*
X79630000Y-112728813D01*
X75340000Y-80920000D02*
X75867748Y-80920000D01*
X80695375Y-95907687D02*
X80695375Y-97154625D01*
X93604625Y-106434625D02*
X93604625Y-107350000D01*
D58*
X93164625Y-57544625D02*
X93164625Y-56562627D01*
D60*
X83274625Y-55797627D02*
X83802373Y-55797627D01*
X83787627Y-55797627D02*
X84130000Y-56140000D01*
X93612373Y-53247627D02*
X93950000Y-52910000D01*
D58*
X95097500Y-69102500D02*
X95100000Y-69100000D01*
D60*
X75082373Y-51627627D02*
X75420000Y-51290000D01*
%TO.N,CS_Display*%
X77884625Y-111130000D02*
X77884625Y-112705375D01*
D58*
X88270000Y-127420000D02*
X88034625Y-127420000D01*
X78616310Y-111296000D02*
X78050625Y-111296000D01*
D60*
X70434625Y-106110000D02*
X71884625Y-104660000D01*
D58*
X88034625Y-127420000D02*
X83670625Y-123056000D01*
X83670625Y-123056000D02*
X83670625Y-111566000D01*
X79282310Y-110630000D02*
X78616310Y-111296000D01*
X78050625Y-111296000D02*
X77884625Y-111130000D01*
D60*
X77884625Y-112705375D02*
X77530000Y-113060000D01*
X72164625Y-113060000D02*
X70434625Y-111330000D01*
X77530000Y-113060000D02*
X72164625Y-113060000D01*
D58*
X82734625Y-110630000D02*
X79282310Y-110630000D01*
D60*
X70434625Y-111330000D02*
X70434625Y-106110000D01*
D58*
X83670625Y-111566000D02*
X82734625Y-110630000D01*
%TO.N,Display_Reset*%
X78614625Y-110130000D02*
X78450625Y-110294000D01*
D60*
X73484625Y-103720000D02*
X71884625Y-102120000D01*
D58*
X93084625Y-126410000D02*
X87600625Y-126410000D01*
D60*
X75984625Y-111130000D02*
X73484625Y-108630000D01*
D58*
X75984625Y-110770000D02*
X75984625Y-111130000D01*
X87600625Y-126410000D02*
X84070625Y-122879999D01*
X92774625Y-126720000D02*
X93084625Y-126410000D01*
X76460625Y-110294000D02*
X75984625Y-110770000D01*
X84070625Y-110966000D02*
X83234625Y-110130000D01*
X78450625Y-110294000D02*
X76460625Y-110294000D01*
D60*
X73484625Y-108630000D02*
X73484625Y-103720000D01*
D58*
X84070625Y-122879999D02*
X84070625Y-110966000D01*
X83234625Y-110130000D02*
X78614625Y-110130000D01*
%TO.N,DC_Display*%
X84470624Y-109984628D02*
X84151996Y-109666000D01*
X92864625Y-124920000D02*
X93084625Y-125140000D01*
D60*
X74534625Y-106930000D02*
X75834625Y-108230000D01*
X71884625Y-99580000D02*
X74534625Y-102230000D01*
D58*
X84470625Y-122714314D02*
X84470624Y-109984628D01*
X84151996Y-109666000D02*
X76068625Y-109666000D01*
X86928311Y-125172000D02*
X84470625Y-122714314D01*
X93084625Y-125140000D02*
X92786782Y-125437843D01*
D60*
X75984625Y-108230000D02*
X75984625Y-108830000D01*
D58*
X93084625Y-125140000D02*
X93052625Y-125172000D01*
X76068625Y-109666000D02*
X75984625Y-109582000D01*
X75984625Y-109582000D02*
X75984625Y-108830000D01*
D60*
X74534625Y-102230000D02*
X74534625Y-106930000D01*
D58*
X75834625Y-108230000D02*
X75984625Y-108230000D01*
X93052625Y-125172000D02*
X86928311Y-125172000D01*
%TO.N,MOSI*%
X87044625Y-119440000D02*
X86134625Y-118530000D01*
D61*
X74994625Y-99020000D02*
X78174625Y-99020000D01*
D60*
X75884625Y-102810000D02*
X75884625Y-102530000D01*
D61*
X74374625Y-99530000D02*
X71884625Y-97040000D01*
D58*
X78334625Y-99180000D02*
X78334625Y-99832000D01*
D61*
X74484625Y-99530000D02*
X74994625Y-99020000D01*
D58*
X78334625Y-99832000D02*
X78618625Y-100116000D01*
X86248625Y-99394000D02*
X84200625Y-99394000D01*
D61*
X74484625Y-101130000D02*
X74484625Y-99530000D01*
D58*
X88670000Y-101815375D02*
X86248625Y-99394000D01*
D61*
X78174625Y-99020000D02*
X78334625Y-99180000D01*
D58*
X86384625Y-97210000D02*
X86384625Y-96400000D01*
X88670000Y-107180000D02*
X88670000Y-101815375D01*
D61*
X74484625Y-99530000D02*
X74374625Y-99530000D01*
X75884625Y-102530000D02*
X74484625Y-101130000D01*
D58*
X86134625Y-109715375D02*
X88670000Y-107180000D01*
X86134625Y-118530000D02*
X86134625Y-109715375D01*
X84200625Y-99394000D02*
X86384625Y-97210000D01*
X83478625Y-100116000D02*
X84200625Y-99394000D01*
X88254625Y-119440000D02*
X87044625Y-119440000D01*
X78618625Y-100116000D02*
X83478625Y-100116000D01*
%TO.N,SCK*%
X86823625Y-116380000D02*
X86534625Y-116380000D01*
D60*
X79050000Y-96670000D02*
X79600000Y-97220000D01*
D58*
X80234625Y-98728000D02*
X80234625Y-99180000D01*
D60*
X80050000Y-97659339D02*
X80050000Y-97670000D01*
X79600000Y-97220000D02*
X79610661Y-97220000D01*
X78930000Y-96790000D02*
X79050000Y-96670000D01*
D58*
X88919988Y-100617024D02*
X88919992Y-100617020D01*
X86534625Y-109881061D02*
X89070000Y-107345686D01*
X88919996Y-99954303D02*
X88920000Y-99954300D01*
X86534625Y-116380000D02*
X86534625Y-109881061D01*
X80234625Y-99180000D02*
X83144625Y-99180000D01*
X75884625Y-97730000D02*
X76484625Y-97130000D01*
D60*
X80050000Y-97670000D02*
X80234625Y-97854625D01*
D58*
X89070000Y-101235687D02*
X88930000Y-101095686D01*
X88920000Y-99954300D02*
X88920000Y-96665686D01*
D60*
X76824625Y-96790000D02*
X78930000Y-96790000D01*
D58*
X86514314Y-94260000D02*
X85420000Y-94260000D01*
X88919988Y-100782700D02*
X88919988Y-100617024D01*
X89070000Y-107345686D02*
X89070000Y-101235687D01*
X88919992Y-100617020D02*
X88919992Y-100285663D01*
X88930000Y-101095686D02*
X88930000Y-100958427D01*
X88930000Y-100958427D02*
X88920000Y-100948426D01*
D60*
X80234625Y-97854625D02*
X80234625Y-98728000D01*
D58*
X88919992Y-100948400D02*
X88919988Y-100948396D01*
X88920000Y-100948426D02*
X88920000Y-100948414D01*
X88919984Y-100948385D02*
X88919988Y-100782700D01*
X88919992Y-100285663D02*
X88919996Y-100285659D01*
X85420000Y-94260000D02*
X85114625Y-94565375D01*
D60*
X79610661Y-97220000D02*
X80050000Y-97659339D01*
D58*
X88919996Y-100285659D02*
X88919996Y-99954303D01*
X88919988Y-100948396D02*
X88919988Y-100948389D01*
D60*
X75884625Y-97730000D02*
X76824625Y-96790000D01*
D58*
X88920000Y-96665686D02*
X86514314Y-94260000D01*
X83144625Y-99180000D02*
X85114625Y-97210000D01*
X85114625Y-97210000D02*
X85114625Y-96400000D01*
X85114625Y-94565375D02*
X85114625Y-96400000D01*
X75884625Y-97730000D02*
X75114625Y-97730000D01*
X88920000Y-100948414D02*
X88919992Y-100948406D01*
X75114625Y-97730000D02*
X71884625Y-94500000D01*
X88919992Y-100948406D02*
X88919992Y-100948400D01*
X88919988Y-100948389D02*
X88919984Y-100948385D01*
X88254625Y-117811000D02*
X86823625Y-116380000D01*
X85014625Y-96400000D02*
X85084625Y-96330000D01*
X88254625Y-117840000D02*
X88254625Y-117811000D01*
%TO.N,CS_SD*%
X83881681Y-108830000D02*
X77884625Y-108830000D01*
D60*
X76340000Y-105350000D02*
X77884625Y-106894625D01*
D58*
X75884625Y-105350000D02*
X75884625Y-105530000D01*
D60*
X77884625Y-106894625D02*
X77884625Y-108830000D01*
D58*
X84870625Y-109818942D02*
X83881681Y-108830000D01*
D60*
X75884625Y-105350000D02*
X76340000Y-105350000D01*
D58*
X88254625Y-124440000D02*
X86794625Y-124440000D01*
X84870625Y-122516000D02*
X84870625Y-109818942D01*
X86794625Y-124440000D02*
X84870625Y-122516000D01*
%TO.N,Net-(U3-IO16)*%
X89754625Y-124440000D02*
X90324625Y-123870000D01*
X90324625Y-123870000D02*
X93084625Y-123870000D01*
%TO.N,Net-(J34-Pin_1)*%
X81414625Y-70362627D02*
X83414625Y-70362627D01*
X81414625Y-68512627D02*
X81414625Y-70362627D01*
X83464625Y-70412627D02*
X83414625Y-70362627D01*
X86464625Y-70412627D02*
X83464625Y-70412627D01*
%TO.N,GlycolSol*%
X86364625Y-64712627D02*
X84194625Y-64712627D01*
X83994625Y-64512627D02*
X83164625Y-64512627D01*
X86364625Y-66872627D02*
X86364625Y-64712627D01*
X82364625Y-65312627D02*
X82364625Y-66512627D01*
X83164625Y-64512627D02*
X82364625Y-65312627D01*
%TO.N,EN_FP*%
X165980000Y-97200000D02*
X162350000Y-97200000D01*
X167700000Y-94200000D02*
X167700000Y-95480000D01*
X162350000Y-99700000D02*
X162350000Y-97200000D01*
X167700000Y-95480000D02*
X165980000Y-97200000D01*
X161400000Y-100650000D02*
X162350000Y-99700000D01*
%TO.N,Net-(LED1-A)*%
X159450000Y-39880000D02*
X159400000Y-39930000D01*
X159450000Y-37600000D02*
X159450000Y-39880000D01*
%TO.N,12V_FP*%
D60*
X153420000Y-125610000D02*
X153930000Y-125100000D01*
D58*
X163700000Y-38000000D02*
X162550000Y-38000000D01*
X163680000Y-116360000D02*
X163680000Y-116350000D01*
X167270000Y-122520000D02*
X167150000Y-122400000D01*
X155550000Y-125950000D02*
X154640000Y-125950000D01*
D60*
X151990000Y-115680000D02*
X151480000Y-115170000D01*
X153930000Y-125100000D02*
X154040000Y-125100000D01*
X154040000Y-125950000D02*
X154030000Y-125960000D01*
D58*
X161100000Y-37800000D02*
X162010000Y-37800000D01*
D60*
X152340000Y-108050000D02*
X151980000Y-108050000D01*
D58*
X151350000Y-90900000D02*
X151350000Y-92000000D01*
D60*
X151980000Y-108050000D02*
X151470000Y-107540000D01*
D58*
X163680000Y-116350000D02*
X164620000Y-115410000D01*
D60*
X152000000Y-98880000D02*
X151400000Y-99480000D01*
X152250000Y-98880000D02*
X152000000Y-98880000D01*
X154640000Y-125950000D02*
X154640000Y-125700000D01*
X151470000Y-107430000D02*
X152320000Y-107430000D01*
X153420000Y-125970000D02*
X153420000Y-125610000D01*
D58*
X162010000Y-37800000D02*
X162380000Y-38170000D01*
X157000000Y-127400000D02*
X155550000Y-125950000D01*
D60*
X152070000Y-106830000D02*
X151470000Y-107430000D01*
X154640000Y-125700000D02*
X154040000Y-125100000D01*
X151910000Y-100100000D02*
X151400000Y-99590000D01*
X151480000Y-115060000D02*
X152330000Y-115060000D01*
X154040000Y-125100000D02*
X154040000Y-125950000D01*
X152250000Y-99480000D02*
X152260000Y-99490000D01*
X152350000Y-115680000D02*
X151990000Y-115680000D01*
X151400000Y-99590000D02*
X151400000Y-99480000D01*
D58*
X162550000Y-38000000D02*
X162380000Y-38170000D01*
D60*
X151470000Y-107540000D02*
X151470000Y-107430000D01*
X152080000Y-114460000D02*
X151480000Y-115060000D01*
X152320000Y-106830000D02*
X152070000Y-106830000D01*
X152330000Y-114460000D02*
X152080000Y-114460000D01*
D58*
X167270000Y-123580000D02*
X167270000Y-122520000D01*
D60*
X151400000Y-99480000D02*
X152250000Y-99480000D01*
D58*
X151370000Y-90880000D02*
X151350000Y-90900000D01*
D60*
X152330000Y-115060000D02*
X152340000Y-115070000D01*
X151480000Y-115170000D02*
X151480000Y-115060000D01*
X152320000Y-107430000D02*
X152330000Y-107440000D01*
X152270000Y-100100000D02*
X151910000Y-100100000D01*
%TO.N,Heater_ON*%
D58*
X96114625Y-49412627D02*
X93944625Y-49412627D01*
D59*
X107630000Y-60706981D02*
X109856981Y-58480000D01*
D58*
X92114625Y-50012627D02*
X92114625Y-51212627D01*
X93744625Y-49212627D02*
X92914625Y-49212627D01*
X92914625Y-49212627D02*
X92114625Y-50012627D01*
X104500000Y-60280000D02*
X96114625Y-51894625D01*
X107630000Y-61800000D02*
X110400000Y-64570000D01*
X96114625Y-51894625D02*
X96114625Y-49412627D01*
X108056981Y-60280000D02*
X104500000Y-60280000D01*
D59*
X107630000Y-61800000D02*
X107630000Y-60706981D01*
D58*
X108056981Y-60280000D02*
X109856981Y-58480000D01*
X110400000Y-73030000D02*
X130780000Y-93410000D01*
X110400000Y-64570000D02*
X110400000Y-73030000D01*
X130780000Y-93410000D02*
X130780000Y-101260000D01*
%TO.N,120V_Out*%
D62*
X116856981Y-46480000D02*
X116356981Y-46980000D01*
X116356981Y-46980000D02*
X109856981Y-46980000D01*
%TO.N,120V_IN*%
X115356981Y-39980000D02*
X109856981Y-39980000D01*
X116856981Y-41480000D02*
X115356981Y-39980000D01*
%TO.N,Net-(LED10-A)*%
D58*
X150600000Y-92750000D02*
X149850000Y-92000000D01*
X150600000Y-93930000D02*
X150600000Y-92750000D01*
%TO.N,SoilMoisture4_FP*%
D59*
X148450000Y-63050000D02*
X148430000Y-63050000D01*
D58*
X142200000Y-68600000D02*
X142200000Y-69280000D01*
D59*
X148321000Y-63159000D02*
X146841000Y-63159000D01*
D58*
X148450000Y-63050000D02*
X149050000Y-63050000D01*
X152268628Y-62200000D02*
X153868628Y-63800000D01*
X149900000Y-62200000D02*
X152268628Y-62200000D01*
X158200000Y-63800000D02*
X161520000Y-67120000D01*
X153868628Y-63800000D02*
X158200000Y-63800000D01*
X149050000Y-63050000D02*
X149900000Y-62200000D01*
D59*
X144600000Y-66800000D02*
X142200000Y-69200000D01*
D58*
X161520000Y-67120000D02*
X161660000Y-67120000D01*
D59*
X144600000Y-65400000D02*
X144600000Y-66800000D01*
X146841000Y-63159000D02*
X144600000Y-65400000D01*
X148430000Y-63050000D02*
X148321000Y-63159000D01*
X142200000Y-69200000D02*
X142200000Y-69280000D01*
%TO.N,Heater Fans_FP*%
D58*
X161770000Y-118000000D02*
X162200000Y-117570000D01*
X162760000Y-117730000D02*
X165600000Y-117730000D01*
X162900000Y-117570000D02*
X162200000Y-117570000D01*
X157380000Y-118000000D02*
X161770000Y-118000000D01*
X167600000Y-115730000D02*
X167600000Y-98800000D01*
X162200000Y-117570000D02*
X162600000Y-117570000D01*
X162600000Y-117570000D02*
X162760000Y-117730000D01*
X165600000Y-117730000D02*
X167600000Y-115730000D01*
%TO.N,Net-(J41-Pin_1)*%
X120134625Y-73180000D02*
X120134625Y-70680000D01*
X120734625Y-70080000D02*
X122234625Y-71580000D01*
X120734625Y-68180000D02*
X120734625Y-70080000D01*
X120134625Y-70680000D02*
X120734625Y-70080000D01*
X120184625Y-73130000D02*
X120134625Y-73180000D01*
X122234625Y-71580000D02*
X122234625Y-73130000D01*
X123884625Y-73130000D02*
X123934625Y-73180000D01*
X122234625Y-73130000D02*
X120184625Y-73130000D01*
X122234625Y-71580000D02*
X123934625Y-71580000D01*
X123934625Y-71580000D02*
X123934625Y-73180000D01*
X115634625Y-63080000D02*
X120734625Y-68180000D01*
X122234625Y-73130000D02*
X123884625Y-73130000D01*
%TO.N,Net-(J46-Pin_1)*%
X77664625Y-78993574D02*
X74664625Y-78993574D01*
X74664625Y-78993574D02*
X74614625Y-78943574D01*
X72614625Y-78943574D02*
X74614625Y-78943574D01*
X72614625Y-77093574D02*
X72614625Y-78943574D01*
%TO.N,EN*%
X126434625Y-124930000D02*
X125484625Y-125880000D01*
X128484625Y-124930000D02*
X126434625Y-124930000D01*
D59*
X124400000Y-127800000D02*
X123630000Y-127030000D01*
D58*
X89390000Y-113670000D02*
X89970000Y-114250000D01*
X123584625Y-126830000D02*
X124534625Y-125880000D01*
D59*
X124400000Y-128800000D02*
X124400000Y-127800000D01*
D58*
X123630000Y-127030000D02*
X123630000Y-127025375D01*
X91130000Y-116200000D02*
X93034625Y-116200000D01*
X89970000Y-115390000D02*
X89970000Y-114250000D01*
X87730000Y-113670000D02*
X89390000Y-113670000D01*
X124534625Y-125880000D02*
X125484625Y-125880000D01*
X93034625Y-116200000D02*
X93084625Y-116250000D01*
X130805000Y-122609625D02*
X130805000Y-103945000D01*
X90320000Y-115390000D02*
X89970000Y-115390000D01*
X125234625Y-126130000D02*
X125484625Y-125880000D01*
X123434625Y-126830000D02*
X123584625Y-126830000D01*
X91130000Y-116200000D02*
X90320000Y-115390000D01*
X128484625Y-124930000D02*
X130805000Y-122609625D01*
X123630000Y-127025375D02*
X123434625Y-126830000D01*
%TO.N,LEDs*%
D60*
X85914625Y-39512627D02*
X85914625Y-40872627D01*
D63*
X85914625Y-39512627D02*
X88987342Y-39512627D01*
D60*
X85914625Y-40872627D02*
X84874625Y-41912627D01*
D64*
X83344625Y-39782627D02*
X83344625Y-39512627D01*
D63*
X81814625Y-41312627D02*
X83344625Y-39782627D01*
X83344625Y-39512627D02*
X85914625Y-39512627D01*
X88987342Y-39512627D02*
X91487342Y-42012627D01*
%TO.N,Piezo2*%
D58*
X98434625Y-67820000D02*
X100294625Y-67820000D01*
%TO.N,Piezo1*%
X98434625Y-70350000D02*
X100264625Y-70350000D01*
%TO.N,TXD0*%
X117384625Y-110844625D02*
X119400000Y-108829250D01*
X119400000Y-102480000D02*
X120620000Y-101260000D01*
X116084625Y-115780000D02*
X117384625Y-114480000D01*
X117384625Y-114480000D02*
X117384625Y-110844625D01*
X119400000Y-108829250D02*
X119400000Y-102480000D01*
%TO.N,RXD0*%
X120620000Y-108229250D02*
X120620000Y-103800000D01*
X117800000Y-111049250D02*
X120620000Y-108229250D01*
X117800000Y-115764625D02*
X117800000Y-111049250D01*
X116084625Y-117480000D02*
X117800000Y-115764625D01*
%TO.N,SCL*%
X114800000Y-102600000D02*
X116740000Y-102600000D01*
X103700000Y-110200000D02*
X104700000Y-110200000D01*
X116740000Y-102600000D02*
X118080000Y-101260000D01*
X114200000Y-103200000D02*
X114800000Y-102600000D01*
X108247537Y-106652463D02*
X112147537Y-106652463D01*
X103710000Y-117945375D02*
X103710000Y-110210000D01*
X103710000Y-110210000D02*
X103700000Y-110200000D01*
X112147537Y-106652463D02*
X114200000Y-104600000D01*
X110584625Y-123870000D02*
X110968625Y-124254000D01*
X110584625Y-123870000D02*
X109634625Y-123870000D01*
X114200000Y-104600000D02*
X114200000Y-103200000D01*
X104700000Y-110200000D02*
X108247537Y-106652463D01*
X109634625Y-123870000D02*
X103710000Y-117945375D01*
%TO.N,SDA*%
X106250000Y-119215375D02*
X106250000Y-110200000D01*
X109397537Y-107052463D02*
X114827537Y-107052463D01*
X110584625Y-122600000D02*
X109634625Y-122600000D01*
X106250000Y-110200000D02*
X109397537Y-107052463D01*
X114827537Y-107052463D02*
X118080000Y-103800000D01*
X109634625Y-122600000D02*
X106250000Y-119215375D01*
%TO.N,Soil_Moisture4*%
X109634625Y-125140000D02*
X110584625Y-125140000D01*
X109000000Y-124505375D02*
X109634625Y-125140000D01*
%TO.N,Soil_Moisture1*%
X108824625Y-128824625D02*
X108824625Y-131460000D01*
X106800000Y-125000000D02*
X106800000Y-126800000D01*
X109184625Y-131820000D02*
X108824625Y-131460000D01*
X106800000Y-126800000D02*
X108824625Y-128824625D01*
%TO.N,Soil_Moisture2*%
X105800000Y-127600000D02*
X107554625Y-129354625D01*
X107554625Y-129354625D02*
X107554625Y-131490000D01*
X105800000Y-125400000D02*
X105800000Y-127600000D01*
%TO.N,WaterSol*%
X83994625Y-51812627D02*
X83164625Y-51812627D01*
X82364625Y-52612627D02*
X82364625Y-53812627D01*
X86364625Y-52012627D02*
X84194625Y-52012627D01*
X86364625Y-54172627D02*
X86364625Y-52012627D01*
X83164625Y-51812627D02*
X82364625Y-52612627D01*
%TO.N,FoggerSol*%
X75194625Y-47612627D02*
X74364625Y-47612627D01*
X74364625Y-47612627D02*
X73564625Y-48412627D01*
X77564625Y-49972627D02*
X77564625Y-47812627D01*
X73564625Y-48412627D02*
X73564625Y-49612627D01*
X77564625Y-47812627D02*
X75394625Y-47812627D01*
%TO.N,Heater Fans*%
X74364625Y-60407627D02*
X73564625Y-61207627D01*
X73564625Y-61207627D02*
X73564625Y-62407627D01*
X77564625Y-62767627D02*
X77564625Y-60607627D01*
X75194625Y-60407627D02*
X74364625Y-60407627D01*
X77564625Y-60607627D02*
X75394625Y-60607627D01*
%TO.N,Fan_Tach*%
X106200000Y-102600000D02*
X104180000Y-102600000D01*
X107397537Y-105202463D02*
X106600000Y-104404925D01*
X110584625Y-116250000D02*
X112350000Y-116250000D01*
X104180000Y-102600000D02*
X102840000Y-101260000D01*
X115000000Y-112000000D02*
X113400000Y-110400000D01*
X106600000Y-104404925D02*
X106600000Y-103000000D01*
X115000000Y-113600000D02*
X115000000Y-112000000D01*
X113400000Y-110400000D02*
X112595075Y-110400000D01*
X106600000Y-103000000D02*
X106200000Y-102600000D01*
X112350000Y-116250000D02*
X115000000Y-113600000D01*
X112595075Y-110400000D02*
X109897537Y-107702463D01*
%TO.N,Circ_Fan*%
X77564625Y-75453574D02*
X77564625Y-73293574D01*
X77564625Y-73293574D02*
X75394625Y-73293574D01*
X74364625Y-73093574D02*
X73564625Y-73893574D01*
X73564625Y-73893574D02*
X73564625Y-75093574D01*
X75194625Y-73093574D02*
X74364625Y-73093574D01*
%TO.N,External_Fan_PWM*%
X112040075Y-112385000D02*
X112935000Y-112385000D01*
X101600000Y-105600000D02*
X101600000Y-102560000D01*
X106055075Y-106400000D02*
X102400000Y-106400000D01*
X108890000Y-109234925D02*
X112040075Y-112385000D01*
X106780000Y-106280000D02*
X106175075Y-106280000D01*
X101600000Y-102560000D02*
X100300000Y-101260000D01*
X108890000Y-108490000D02*
X108890000Y-109234925D01*
X102400000Y-106400000D02*
X101600000Y-105600000D01*
X106175075Y-106280000D02*
X106055075Y-106400000D01*
%TO.N,Heartbeat_LED*%
X94844625Y-131490000D02*
X94844625Y-130244625D01*
X94844625Y-130244625D02*
X94600000Y-130000000D01*
%TO.N,BootMode_FP*%
X162350000Y-92210000D02*
X162350000Y-94900000D01*
X165900000Y-94900000D02*
X167900000Y-92900000D01*
X167900000Y-92900000D02*
X167900000Y-63200000D01*
X162350000Y-94900000D02*
X165900000Y-94900000D01*
X167900000Y-63200000D02*
X164200000Y-59500000D01*
X161590000Y-91450000D02*
X162350000Y-92210000D01*
%TO.N,VBUS*%
X75897125Y-120435000D02*
X76497125Y-121035000D01*
X77147125Y-121035000D02*
X76947125Y-120835000D01*
X76465000Y-116235000D02*
X75897125Y-116802875D01*
X75897125Y-116802875D02*
X75897125Y-120435000D01*
X76497125Y-121035000D02*
X77147125Y-121035000D01*
X77147125Y-116235000D02*
X76465000Y-116235000D01*
%TO.N,Net-(USB1-CC1)*%
X79284625Y-116047500D02*
X79284625Y-115185000D01*
X77947125Y-117385000D02*
X79284625Y-116047500D01*
X77147125Y-117385000D02*
X77947125Y-117385000D01*
%TO.N,D+*%
X78655000Y-119385000D02*
X78680000Y-119360000D01*
D65*
X80225000Y-120631168D02*
X80625000Y-121031168D01*
D58*
X77147125Y-119385000D02*
X78655000Y-119385000D01*
X76297125Y-118435000D02*
X76297125Y-119335000D01*
D65*
X80625000Y-121031168D02*
X80625000Y-123520375D01*
D58*
X78680000Y-119360000D02*
X79920000Y-119360000D01*
D65*
X87584625Y-130480000D02*
X89630000Y-130480000D01*
D58*
X76347125Y-119385000D02*
X77147125Y-119385000D01*
X76347125Y-118385000D02*
X76297125Y-118435000D01*
X77147125Y-118385000D02*
X76347125Y-118385000D01*
D65*
X80225000Y-120469001D02*
X80225000Y-120631168D01*
X80625000Y-123520375D02*
X87584625Y-130480000D01*
X79920000Y-120164001D02*
X80225000Y-120469001D01*
X79920000Y-119360000D02*
X79920000Y-120164001D01*
D58*
X76297125Y-119335000D02*
X76347125Y-119385000D01*
%TO.N,D-*%
X77997125Y-118835000D02*
X77947125Y-118885000D01*
D65*
X81115000Y-123317410D02*
X86737590Y-128940000D01*
X81820000Y-119360000D02*
X81820000Y-120164001D01*
D58*
X80985000Y-117935000D02*
X81820000Y-118770000D01*
X77997125Y-117935000D02*
X77997125Y-118835000D01*
X77947125Y-117885000D02*
X77997125Y-117935000D01*
X81820000Y-118770000D02*
X81820000Y-119360000D01*
D65*
X81515000Y-120469001D02*
X81515000Y-120631168D01*
D58*
X77147125Y-117885000D02*
X77947125Y-117885000D01*
X77997125Y-117935000D02*
X80985000Y-117935000D01*
D65*
X89650000Y-128940000D02*
X89660000Y-128950000D01*
D58*
X77947125Y-118885000D02*
X77147125Y-118885000D01*
D65*
X81820000Y-120164001D02*
X81515000Y-120469001D01*
X81515000Y-120631168D02*
X81115000Y-121031168D01*
X81115000Y-121031168D02*
X81115000Y-123317410D01*
X86737590Y-128940000D02*
X89650000Y-128940000D01*
%TO.N,Net-(USB1-CC2)*%
D58*
X77147125Y-120385000D02*
X77834625Y-120385000D01*
X79284625Y-121835000D02*
X79284625Y-122235000D01*
X77834625Y-120385000D02*
X79284625Y-121835000D01*
%TO.N,WaterSol_FP*%
X164200000Y-69660000D02*
X163150000Y-70710000D01*
X156200000Y-82765686D02*
X152400000Y-86565686D01*
X147770000Y-101170000D02*
X147200000Y-101170000D01*
X162200000Y-73400000D02*
X160600000Y-73400000D01*
X152400000Y-96800000D02*
X151000000Y-98200000D01*
D59*
X146820000Y-101550000D02*
X147200000Y-101170000D01*
D58*
X152400000Y-86565686D02*
X152400000Y-96800000D01*
X147200000Y-100370000D02*
X147200000Y-101170000D01*
X150600000Y-104000000D02*
X147770000Y-101170000D01*
X160600000Y-73400000D02*
X156200000Y-77800000D01*
X163150000Y-72450000D02*
X162200000Y-73400000D01*
D59*
X142200000Y-101550000D02*
X146820000Y-101550000D01*
D58*
X151000000Y-98200000D02*
X149370000Y-98200000D01*
X156200000Y-77800000D02*
X156200000Y-82765686D01*
X163150000Y-70710000D02*
X163150000Y-72450000D01*
X149370000Y-98200000D02*
X147200000Y-100370000D01*
%TO.N,Net-(J52-Pin_1)*%
X81410023Y-81594648D02*
X81410023Y-83444648D01*
X86460023Y-83494648D02*
X83460023Y-83494648D01*
X83460023Y-83494648D02*
X83410023Y-83444648D01*
X81410023Y-83444648D02*
X83410023Y-83444648D01*
%TO.N,Net-(R2-Pad1)*%
X109150000Y-89830000D02*
X109150000Y-88290000D01*
X109150000Y-88290000D02*
X109100000Y-88240000D01*
%TO.N,Net-(J58-Pin_1)*%
X96214625Y-55112627D02*
X93214625Y-55112627D01*
X91164625Y-55062627D02*
X93164625Y-55062627D01*
X93214625Y-55112627D02*
X93164625Y-55062627D01*
X91164625Y-53212627D02*
X91164625Y-55062627D01*
%TO.N,Heater_Switch*%
X103744625Y-131490000D02*
X103744625Y-130540000D01*
X89234625Y-59975375D02*
X91164625Y-58045375D01*
X103744625Y-130540000D02*
X98804625Y-125600000D01*
X97800000Y-110969681D02*
X97800000Y-105302942D01*
X89234625Y-72548629D02*
X89234625Y-59975375D01*
X89240000Y-72554003D02*
X89234625Y-72548629D01*
X98804625Y-125600000D02*
X98800000Y-125600000D01*
X92120000Y-99622942D02*
X92120000Y-94428628D01*
X97800000Y-111466740D02*
X97800003Y-111466735D01*
X97800003Y-111466735D02*
X97800000Y-110969681D01*
X92120000Y-94428628D02*
X89240000Y-91548628D01*
X91164625Y-58045375D02*
X91164625Y-56562627D01*
X98800000Y-125600000D02*
X97800000Y-124600000D01*
X97800000Y-105302942D02*
X92120000Y-99622942D01*
X97800000Y-124600000D02*
X97800000Y-111466740D01*
X89240000Y-91548628D02*
X89240000Y-72554003D01*
%TO.N,Net-(LED13-A)*%
X131570000Y-51960000D02*
X131570000Y-49450000D01*
%TO.N,Net-(C4-Pad1)*%
X104230000Y-87410000D02*
X104950000Y-86690000D01*
X104230000Y-88120000D02*
X104230000Y-87410000D01*
%TO.N,GlycolSol_FP*%
X155800000Y-82600000D02*
X147000000Y-91400000D01*
X147700000Y-93570000D02*
X150600000Y-96470000D01*
X155800000Y-75000000D02*
X155800000Y-82600000D01*
D59*
X142200000Y-93925000D02*
X146645000Y-93925000D01*
D58*
X161660000Y-72200000D02*
X158600000Y-72200000D01*
X158600000Y-72200000D02*
X155800000Y-75000000D01*
D59*
X146645000Y-93925000D02*
X147000000Y-93570000D01*
D58*
X147000000Y-91400000D02*
X147000000Y-93570000D01*
X147000000Y-93570000D02*
X147700000Y-93570000D01*
%TO.N,MISO_ESD*%
X78334625Y-101480000D02*
X78334625Y-104030000D01*
D60*
X77094625Y-101480000D02*
X78334625Y-101480000D01*
D58*
X78334625Y-104030000D02*
X78884625Y-104580000D01*
D60*
X75884625Y-100270000D02*
X77094625Y-101480000D01*
D58*
X78334625Y-101480000D02*
X78534625Y-101680000D01*
%TO.N,/ESP32/Data Line ESD1/IO3*%
D60*
X80234625Y-101932000D02*
X80234625Y-101480000D01*
%TO.N,IO19*%
D58*
X91160000Y-128950000D02*
X93084625Y-128950000D01*
%TO.N,FoggerSol_FP*%
X153000000Y-104468628D02*
X153010000Y-104458629D01*
X147000000Y-116570000D02*
X147000000Y-115800000D01*
X157600000Y-82965686D02*
X157600000Y-81340000D01*
X153800000Y-86765686D02*
X157600000Y-82965686D01*
D59*
X142155000Y-116800000D02*
X146770000Y-116800000D01*
X147000000Y-116490000D02*
X146955000Y-116445000D01*
D58*
X147000000Y-115800000D02*
X149400000Y-113400000D01*
X149400000Y-113400000D02*
X152200000Y-113400000D01*
X153010000Y-104389999D02*
X153800000Y-103600000D01*
D59*
X146770000Y-116800000D02*
X147000000Y-116570000D01*
D58*
X153800000Y-103600000D02*
X153800000Y-86765686D01*
D59*
X147000000Y-116570000D02*
X147000000Y-116490000D01*
D58*
X153010000Y-104458629D02*
X153010000Y-104389999D01*
X153000000Y-112600000D02*
X153000000Y-104468628D01*
X150600000Y-119470000D02*
X147700000Y-116570000D01*
X157600000Y-81340000D02*
X161660000Y-77280000D01*
X147700000Y-116570000D02*
X147000000Y-116570000D01*
X152200000Y-113400000D02*
X153000000Y-112600000D01*
%TO.N,Net-(LED4-A)*%
X150600000Y-116930000D02*
X149850000Y-116180000D01*
X149850000Y-116180000D02*
X149850000Y-115070000D01*
%TO.N,HeaterFans_IO*%
X95400000Y-111466746D02*
X95400000Y-129800000D01*
X89719996Y-100451350D02*
X89719992Y-100617035D01*
X77234625Y-70480000D02*
X79234625Y-72480000D01*
X95304622Y-111371368D02*
X95400000Y-111466746D01*
X72614625Y-68554625D02*
X74540000Y-70480000D01*
X96000000Y-131375375D02*
X96114625Y-131490000D01*
X89719996Y-100617039D02*
X89720000Y-100617055D01*
X89720000Y-100285670D02*
X89719996Y-100285674D01*
X95304625Y-110045885D02*
X95304623Y-110045889D01*
X95400000Y-129800000D02*
X96114625Y-130514625D01*
X95304625Y-106338940D02*
X95304625Y-110045885D01*
X72614625Y-67757627D02*
X72614625Y-68554625D01*
X89730000Y-100764315D02*
X95304625Y-106338940D01*
X89719992Y-100617035D02*
X89719996Y-100617039D01*
X89719996Y-100285674D02*
X89719996Y-100451350D01*
X95304623Y-110045889D02*
X95304622Y-111371368D01*
X79234625Y-72480000D02*
X79234625Y-85724625D01*
X89730000Y-100627055D02*
X89730000Y-100764315D01*
X89720000Y-96210000D02*
X89720000Y-100285670D01*
X79234625Y-85724625D02*
X89720000Y-96210000D01*
X74540000Y-70480000D02*
X77234625Y-70480000D01*
X96114625Y-130514625D02*
X96114625Y-131490000D01*
X89720000Y-100617055D02*
X89730000Y-100627055D01*
%TO.N,Net-(J38-Pin_1)*%
X72614625Y-64407627D02*
X72614625Y-66257627D01*
X77664625Y-66307627D02*
X74664625Y-66307627D01*
X72614625Y-66257627D02*
X74614625Y-66257627D01*
X74664625Y-66307627D02*
X74614625Y-66257627D01*
%TO.N,WaterSol_IO*%
X101204625Y-130804625D02*
X97000000Y-126600000D01*
X85434625Y-60580000D02*
X82320000Y-60580000D01*
X101204625Y-131490000D02*
X101204625Y-130804625D01*
X91320000Y-94760000D02*
X88440000Y-91880000D01*
X96999997Y-110803997D02*
X96904625Y-110708627D01*
X81414625Y-59674625D02*
X81414625Y-59162627D01*
X96999998Y-111135372D02*
X97000001Y-111135369D01*
X96904625Y-110708627D02*
X96904625Y-105538939D01*
X91320000Y-99954314D02*
X91320000Y-94760000D01*
X96904625Y-105538939D02*
X91320000Y-99954314D01*
X97000000Y-126600000D02*
X96999998Y-111135372D01*
X88434625Y-63580000D02*
X85434625Y-60580000D01*
X96999999Y-110804002D02*
X96999997Y-110803997D01*
X82320000Y-60580000D02*
X81414625Y-59674625D01*
X97000001Y-111135369D02*
X96999999Y-110804002D01*
X88434625Y-72880000D02*
X88434625Y-63580000D01*
X88440000Y-91880000D02*
X88440000Y-72885375D01*
X88440000Y-72885375D02*
X88434625Y-72880000D01*
%TO.N,Net-(U3-TXD0)*%
X112844625Y-117520000D02*
X114584625Y-115780000D01*
X110584625Y-117520000D02*
X112844625Y-117520000D01*
%TO.N,Net-(J56-Pin_1)*%
X80914625Y-43362627D02*
X80864625Y-43312627D01*
X82764625Y-44912627D02*
X82714625Y-44962627D01*
X85114625Y-44912627D02*
X82764625Y-44912627D01*
X80914625Y-44962627D02*
X80914625Y-43362627D01*
X82714625Y-44962627D02*
X80914625Y-44962627D01*
%TO.N,DrainSol_FP*%
X153400000Y-86600000D02*
X157000000Y-83000000D01*
X161260000Y-74740000D02*
X161660000Y-74740000D01*
X151000000Y-105600000D02*
X153400000Y-103200000D01*
D59*
X146440000Y-109200000D02*
X147000000Y-108640000D01*
X147000000Y-108800000D02*
X146955000Y-108845000D01*
D58*
X157000000Y-79000000D02*
X161260000Y-74740000D01*
X147000000Y-108640000D02*
X147000000Y-108600000D01*
X147000000Y-108600000D02*
X150000000Y-105600000D01*
D59*
X142155000Y-109200000D02*
X146440000Y-109200000D01*
D58*
X147300000Y-108640000D02*
X147000000Y-108640000D01*
X150600000Y-111940000D02*
X147300000Y-108640000D01*
X157000000Y-83000000D02*
X157000000Y-79000000D01*
X153400000Y-103200000D02*
X153400000Y-86600000D01*
D59*
X147000000Y-108640000D02*
X147000000Y-108800000D01*
D58*
X150000000Y-105600000D02*
X151000000Y-105600000D01*
%TO.N,Net-(J54-Pin_1)*%
X72614625Y-53462627D02*
X74614625Y-53462627D01*
X72614625Y-51612627D02*
X72614625Y-53462627D01*
X77664625Y-53512627D02*
X74664625Y-53512627D01*
X74664625Y-53512627D02*
X74614625Y-53462627D01*
%TO.N,Net-(U3-RXD0)*%
X113274625Y-118790000D02*
X114584625Y-117480000D01*
X110584625Y-118790000D02*
X113274625Y-118790000D01*
%TO.N,Heater_ON_FP*%
X165200000Y-48340000D02*
X161660000Y-51880000D01*
X165200000Y-42470000D02*
X165200000Y-48340000D01*
%TO.N,Net-(LED9-A)*%
X165200000Y-38000000D02*
X165200000Y-39880000D01*
%TO.N,Net-(LED3-A)*%
X165600000Y-113470000D02*
X165600000Y-114890000D01*
X165600000Y-114890000D02*
X166120000Y-115410000D01*
%TO.N,IO20*%
X92824625Y-130480000D02*
X93084625Y-130220000D01*
X91130000Y-130480000D02*
X92824625Y-130480000D01*
%TO.N,CircFan_IO*%
X89330000Y-100792742D02*
X89330000Y-100930001D01*
X89319992Y-100451349D02*
X89319992Y-100782706D01*
X94904625Y-106504625D02*
X94904625Y-109880199D01*
X89319992Y-100782706D02*
X89319988Y-100782710D01*
X89320000Y-100119985D02*
X89319996Y-100119989D01*
X94524625Y-117520000D02*
X93084625Y-117520000D01*
X72614625Y-81114625D02*
X85360000Y-93860000D01*
X89319992Y-100782720D02*
X89320000Y-100782729D01*
X94904622Y-111537054D02*
X95000000Y-111632432D01*
X85360000Y-93860000D02*
X86680000Y-93860000D01*
X89320000Y-96500001D02*
X89320000Y-100119985D01*
X89319988Y-100782710D02*
X89319992Y-100782720D01*
X94904623Y-110211577D02*
X94904622Y-111537054D01*
X72614625Y-80443574D02*
X72614625Y-81114625D01*
X86680000Y-93860000D02*
X89320000Y-96500001D01*
X95000000Y-117044625D02*
X94524625Y-117520000D01*
X94904621Y-109880203D02*
X94904621Y-110211575D01*
X89320000Y-100782741D02*
X89330000Y-100792742D01*
X89320000Y-100782729D02*
X89320000Y-100782741D01*
X89330000Y-100930001D02*
X94904625Y-106504625D01*
X95000000Y-111632432D02*
X95000000Y-117044625D01*
X89319996Y-100451345D02*
X89319992Y-100451349D01*
X94904625Y-109880199D02*
X94904621Y-109880203D01*
X94904621Y-110211575D02*
X94904623Y-110211577D01*
X89319996Y-100119989D02*
X89319996Y-100451345D01*
%TO.N,Net-(U3-IO5)*%
X89754625Y-117840000D02*
X90704625Y-118790000D01*
X90704625Y-118790000D02*
X93084625Y-118790000D01*
X93014625Y-118720000D02*
X93084625Y-118790000D01*
%TO.N,Net-(LED6-A)*%
X150600000Y-100280000D02*
X149850000Y-99530000D01*
X150600000Y-101460000D02*
X150600000Y-100280000D01*
%TO.N,CS_Memory*%
X85270625Y-121916000D02*
X85270624Y-109653256D01*
X82984625Y-108430000D02*
X82584625Y-108030000D01*
X85270624Y-109653256D02*
X84047366Y-108430000D01*
X86094625Y-122740000D02*
X85270625Y-121916000D01*
X82584625Y-108030000D02*
X82584625Y-103460000D01*
X84047366Y-108430000D02*
X82984625Y-108430000D01*
X88254625Y-122740000D02*
X86094625Y-122740000D01*
%TO.N,Net-(U3-IO8)*%
X93084625Y-127680000D02*
X90030000Y-127680000D01*
X89770000Y-127420000D02*
X89770000Y-127624625D01*
X90030000Y-127680000D02*
X89770000Y-127420000D01*
X89770000Y-127624625D02*
X89754625Y-127640000D01*
%TO.N,LEDs_FP*%
X159400000Y-42470000D02*
X159400000Y-52160000D01*
X159400000Y-52160000D02*
X161660000Y-54420000D01*
%TO.N,SoilMoisture1_FP*%
X150750000Y-64950000D02*
X156950000Y-64950000D01*
X156950000Y-64950000D02*
X160200000Y-68200000D01*
D59*
X146400000Y-69300000D02*
X146400000Y-84860000D01*
X146400000Y-84860000D02*
X142180000Y-89080000D01*
D58*
X163120000Y-68200000D02*
X164200000Y-67120000D01*
X160200000Y-68200000D02*
X163120000Y-68200000D01*
D59*
X150750000Y-64950000D02*
X146400000Y-69300000D01*
%TO.N,SoilMoisture2_FP*%
X146200000Y-65600000D02*
X146200000Y-67000000D01*
D58*
X152000000Y-66000000D02*
X152130000Y-66000000D01*
D59*
X146850000Y-64950000D02*
X146200000Y-65600000D01*
D58*
X148450000Y-65850000D02*
X148450000Y-64950000D01*
D59*
X146200000Y-67000000D02*
X144600000Y-68600000D01*
X144600000Y-68600000D02*
X144600000Y-76800000D01*
D58*
X147200000Y-66000000D02*
X148300000Y-66000000D01*
D59*
X148450000Y-64950000D02*
X146850000Y-64950000D01*
D58*
X160800000Y-68800000D02*
X161660000Y-69660000D01*
X148300000Y-66000000D02*
X148450000Y-65850000D01*
X154930000Y-68800000D02*
X160800000Y-68800000D01*
X152130000Y-66000000D02*
X154930000Y-68800000D01*
D59*
X144600000Y-76800000D02*
X142200000Y-79200000D01*
%TO.N,Fan_Tach_FP*%
X142180000Y-129130000D02*
X146570000Y-129130000D01*
D58*
X153410000Y-104555685D02*
X154200000Y-103765685D01*
X155671373Y-85460000D02*
X156140000Y-85460000D01*
X161660000Y-79940000D02*
X161660000Y-79820000D01*
X145000000Y-126070000D02*
X145000000Y-124620000D01*
X153400000Y-104634314D02*
X153410000Y-104624315D01*
X153410000Y-104624315D02*
X153410000Y-104555685D01*
X154200000Y-86931372D02*
X155671373Y-85460000D01*
X145000000Y-124620000D02*
X146150000Y-123470000D01*
X153400000Y-118234314D02*
X153400000Y-104634314D01*
X147000000Y-128070000D02*
X145000000Y-126070000D01*
D59*
X146570000Y-129130000D02*
X147000000Y-128700000D01*
D58*
X146150000Y-123470000D02*
X148164314Y-123470000D01*
X148164314Y-123470000D02*
X153400000Y-118234314D01*
X156140000Y-85460000D02*
X161660000Y-79940000D01*
X154200000Y-103765685D02*
X154200000Y-86931372D01*
%TO.N,Circ_Fan_FP*%
X162770000Y-110570000D02*
X163130000Y-110930000D01*
X155000000Y-90200000D02*
X155600000Y-89600000D01*
X162400000Y-110570000D02*
X160414365Y-110570000D01*
X162400000Y-110570000D02*
X162770000Y-110570000D01*
X155000000Y-105155635D02*
X155000000Y-90200000D01*
X163130000Y-110930000D02*
X165600000Y-110930000D01*
X162400000Y-110570000D02*
X157630000Y-110570000D01*
X157630000Y-110570000D02*
X157400000Y-110800000D01*
X160414365Y-110570000D02*
X155000000Y-105155635D01*
%TO.N,External_Fan_PWM_FP*%
D59*
X145770000Y-131670000D02*
X142180000Y-131670000D01*
D58*
X154600000Y-104000000D02*
X154600000Y-87097058D01*
X153800000Y-104800000D02*
X154600000Y-104000000D01*
X149000000Y-129070000D02*
X149000000Y-123200000D01*
X146640000Y-130330000D02*
X147740000Y-130330000D01*
X161220000Y-82800000D02*
X161660000Y-82360000D01*
X147740000Y-130330000D02*
X149000000Y-129070000D01*
X155837058Y-85860000D02*
X156305686Y-85860000D01*
D59*
X146640000Y-130330000D02*
X146640000Y-130800000D01*
D58*
X154600000Y-87097058D02*
X155837058Y-85860000D01*
D59*
X146640000Y-130800000D02*
X145770000Y-131670000D01*
D58*
X153800000Y-118400000D02*
X153800000Y-104800000D01*
X156305686Y-85860000D02*
X159365686Y-82800000D01*
X159365686Y-82800000D02*
X161220000Y-82800000D01*
X149000000Y-123200000D02*
X153800000Y-118400000D01*
%TO.N,Heartbeat_LED_FP*%
X155600000Y-97200000D02*
X155600000Y-101660000D01*
X156600000Y-96200000D02*
X155600000Y-97200000D01*
X155600000Y-101660000D02*
X158800000Y-104860000D01*
%TO.N,LEDIO*%
X102000000Y-130600000D02*
X101954625Y-130554625D01*
X88834625Y-51380000D02*
X85734625Y-48280000D01*
X101840000Y-130440000D02*
X97400000Y-126000000D01*
X91720000Y-99788628D02*
X91720000Y-94594314D01*
X88840000Y-91714314D02*
X88840000Y-72719689D01*
X101954625Y-130554625D02*
X101954625Y-130440000D01*
X91720000Y-94594314D02*
X88840000Y-91714314D01*
X97400000Y-105468628D02*
X91720000Y-99788628D01*
X101954625Y-130440000D02*
X101840000Y-130440000D01*
X85734625Y-48280000D02*
X81234625Y-48280000D01*
X88840000Y-72719689D02*
X88834625Y-72714315D01*
X97400000Y-111301054D02*
X97400002Y-111301052D01*
X97400000Y-110969683D02*
X97400000Y-105468628D01*
X97400002Y-111301052D02*
X97400000Y-110969683D01*
X88834625Y-72714315D02*
X88834625Y-51380000D01*
X80914625Y-47960000D02*
X80914625Y-46462627D01*
X102474625Y-131490000D02*
X102000000Y-131015375D01*
X102000000Y-131015375D02*
X102000000Y-130600000D01*
X81234625Y-48280000D02*
X80914625Y-47960000D01*
X97400000Y-126000000D02*
X97400000Y-111301054D01*
%TO.N,Net-(U6-BOOT)*%
X107600000Y-82770000D02*
X107600000Y-79740000D01*
%TO.N,Net-(LED2-A)*%
X150600000Y-123730000D02*
X153770000Y-123730000D01*
X153770000Y-123730000D02*
X154000000Y-123500000D01*
%TO.N,FoggerSol_IO*%
X79434625Y-71317627D02*
X79434625Y-58980000D01*
X90119996Y-100451360D02*
X90120000Y-100285674D01*
X97384625Y-131490000D02*
X97384625Y-130584625D01*
X79634625Y-85374625D02*
X79634625Y-71517627D01*
X97384625Y-130584625D02*
X95800000Y-129000000D01*
X90120000Y-100285674D02*
X90120000Y-95860000D01*
X95704622Y-111205683D02*
X95704622Y-110542940D01*
X95704624Y-110542939D02*
X95704623Y-110211573D01*
X78134625Y-57680000D02*
X74190000Y-57680000D01*
X90130000Y-100598629D02*
X90130000Y-100461369D01*
X95800000Y-129000000D02*
X95800000Y-111301062D01*
X90120000Y-95860000D02*
X79634625Y-85374625D01*
X95704625Y-110211571D02*
X95704625Y-106173254D01*
X74190000Y-57680000D02*
X72614625Y-56104625D01*
X95704622Y-110542940D02*
X95704624Y-110542939D01*
X95704623Y-110211573D02*
X95704625Y-110211571D01*
X90120000Y-100451364D02*
X90119996Y-100451360D01*
X90120000Y-100451369D02*
X90120000Y-100451364D01*
X95704625Y-106173254D02*
X90130000Y-100598629D01*
X79634625Y-71517627D02*
X79434625Y-71317627D01*
X90130000Y-100461369D02*
X90120000Y-100451369D01*
X72614625Y-56104625D02*
X72614625Y-54962627D01*
X95800000Y-111301062D02*
X95704622Y-111205683D01*
X79434625Y-58980000D02*
X78134625Y-57680000D01*
%TO.N,FloatSwitch_IO*%
X113800311Y-120030000D02*
X113590000Y-120030000D01*
X117784625Y-119080000D02*
X116780000Y-120084625D01*
X116450156Y-121024844D02*
X114795155Y-121024844D01*
X116780000Y-120084625D02*
X116780000Y-120695000D01*
X116780000Y-120695000D02*
X116450156Y-121024844D01*
X110584625Y-120060000D02*
X113604625Y-120060000D01*
X114795155Y-121024844D02*
X113800311Y-120030000D01*
%TO.N,Net-(U3-IO15)*%
X92944625Y-122740000D02*
X93084625Y-122600000D01*
X89754625Y-122740000D02*
X92944625Y-122740000D01*
%TO.N,Net-(U3-IO6)*%
X89754625Y-119440000D02*
X90374625Y-120060000D01*
X90374625Y-120060000D02*
X93084625Y-120060000D01*
%TO.N,KSD_Fault*%
X127234625Y-70180000D02*
X126564625Y-70180000D01*
X127634625Y-63080000D02*
X127634625Y-69780000D01*
X127234625Y-72365375D02*
X127200000Y-72400000D01*
X127234625Y-70180000D02*
X127234625Y-72365375D01*
X111270000Y-133200000D02*
X107044625Y-133200000D01*
X126464625Y-70080000D02*
X123934625Y-70080000D01*
X106284625Y-132440000D02*
X106284625Y-131490000D01*
X127134625Y-70080000D02*
X127234625Y-70180000D01*
X126564625Y-70180000D02*
X126464625Y-70080000D01*
X127634625Y-69780000D02*
X127234625Y-70180000D01*
X107044625Y-133200000D02*
X106284625Y-132440000D01*
X111390000Y-133320000D02*
X111270000Y-133200000D01*
%TO.N,Net-(U3-IO1)*%
X112520000Y-114980000D02*
X112935000Y-114565000D01*
X112935000Y-114565000D02*
X112935000Y-113885000D01*
X110584625Y-114980000D02*
X112520000Y-114980000D01*
%TO.N,Fogger_PWM*%
X91564625Y-69080000D02*
X92824625Y-67820000D01*
X92520000Y-94262942D02*
X89640000Y-91382942D01*
X92520000Y-99457256D02*
X92520000Y-94262942D01*
X98200000Y-111632426D02*
X98200005Y-111632421D01*
X98200000Y-105137256D02*
X92520000Y-99457256D01*
X92834625Y-70350000D02*
X93294625Y-70350000D01*
X98200002Y-111301046D02*
X98200000Y-110969679D01*
X98200005Y-111632421D02*
X98200005Y-111301049D01*
X105014625Y-130614625D02*
X103200000Y-128800000D01*
X98200005Y-111301049D02*
X98200002Y-111301046D01*
X89634625Y-72382942D02*
X89634625Y-71065375D01*
X98200000Y-110969679D02*
X98200000Y-105137256D01*
X91564625Y-69080000D02*
X92834625Y-70350000D01*
X103200000Y-119200000D02*
X98200000Y-114200000D01*
X92824625Y-67820000D02*
X93294625Y-67820000D01*
X89634625Y-71065375D02*
X91592313Y-69107687D01*
X105014625Y-131490000D02*
X105014625Y-130614625D01*
X89640000Y-72388317D02*
X89634625Y-72382942D01*
X89640000Y-91382942D02*
X89640000Y-72388317D01*
X98200000Y-114200000D02*
X98200000Y-111632426D01*
X103200000Y-128800000D02*
X103200000Y-119200000D01*
%TO.N,DrainSolIO*%
X98664625Y-130900000D02*
X96200000Y-128435375D01*
X96104624Y-110708624D02*
X96104623Y-110377259D01*
X96104625Y-110377257D02*
X96104625Y-106007568D01*
X96104622Y-110708626D02*
X96104624Y-110708624D01*
X96104622Y-111039998D02*
X96104622Y-110708626D01*
X96104623Y-110377259D02*
X96104625Y-110377257D01*
X96200000Y-128435375D02*
X96200000Y-111135376D01*
X81410023Y-86550023D02*
X81410023Y-84944648D01*
X90540000Y-100442943D02*
X90540000Y-100305685D01*
X96200000Y-111135376D02*
X96104622Y-111039998D01*
X96104625Y-106007568D02*
X90540000Y-100442943D01*
X90520000Y-100285684D02*
X90520000Y-95660000D01*
X90520000Y-95660000D02*
X81410023Y-86550023D01*
X98664625Y-131490000D02*
X98664625Y-130900000D01*
X90540000Y-100305685D02*
X90520000Y-100285684D01*
%TO.N,GlycolSol_IO*%
X81414625Y-72544625D02*
X81414625Y-71862627D01*
X99934625Y-130760000D02*
X96600000Y-127425375D01*
X96504627Y-110874317D02*
X96504625Y-110874312D01*
X96504625Y-110542943D02*
X96504625Y-105704625D01*
X96600000Y-127425375D02*
X96599999Y-110969687D01*
X85634625Y-74080000D02*
X82950000Y-74080000D01*
X82950000Y-74080000D02*
X81414625Y-72544625D01*
X96599999Y-110969687D02*
X96504627Y-110874317D01*
X99934625Y-131490000D02*
X99934625Y-130760000D01*
X90920000Y-100119999D02*
X90920000Y-95230000D01*
X88030000Y-92340000D02*
X88030000Y-76475375D01*
X96504623Y-110542945D02*
X96504625Y-110542943D01*
X88030000Y-76475375D02*
X85634625Y-74080000D01*
X90920000Y-95230000D02*
X88030000Y-92340000D01*
X96504625Y-110874312D02*
X96504623Y-110542945D01*
X96504625Y-105704625D02*
X90920000Y-100119999D01*
%TO.N,Net-(LED7-K)*%
X159600000Y-106600000D02*
X158800000Y-107400000D01*
X161800000Y-106600000D02*
X159600000Y-106600000D01*
%TO.N,Net-(LED5-A)*%
X149850000Y-108450000D02*
X149850000Y-107470000D01*
X150600000Y-109400000D02*
X150600000Y-109200000D01*
X150600000Y-109200000D02*
X149850000Y-108450000D01*
%TO.N,Net-(LED8-A)*%
X165650000Y-120320000D02*
X165600000Y-120270000D01*
X165650000Y-122400000D02*
X165650000Y-120320000D01*
%TO.N,/Faceplate/Data Line ESD/IO1*%
X160450000Y-96748000D02*
X160450000Y-97200000D01*
%TO.N,/Faceplate/Data Line ESD/IO3*%
X160450000Y-94900000D02*
X160450000Y-95352000D01*
%TO.N,Net-(R53-Pad1)*%
X117684625Y-130630000D02*
X118234625Y-131180000D01*
X114690000Y-130630000D02*
X117684625Y-130630000D01*
%TO.N,Net-(R63-Pad1)*%
X159600000Y-90250000D02*
X159600000Y-91450000D01*
X157350000Y-88000000D02*
X159600000Y-90250000D01*
%TO.N,Memory_IO3*%
X85114625Y-104610000D02*
X86034625Y-105530000D01*
X85114625Y-102374625D02*
X84630000Y-101890000D01*
X83220000Y-97034625D02*
X83854625Y-96400000D01*
X85114625Y-103460000D02*
X85114625Y-102374625D01*
X85114625Y-103460000D02*
X85114625Y-104610000D01*
X83220000Y-98020000D02*
X83220000Y-97034625D01*
%TD*%
%TA.AperFunction,Conductor*%
%TO.N,Net-(D2-K)*%
G36*
X111586505Y-75105021D02*
G01*
X111611749Y-75112434D01*
X111664495Y-75143730D01*
X114165544Y-77644779D01*
X114186693Y-77673030D01*
X114199301Y-77696119D01*
X114214470Y-77755548D01*
X114214470Y-80771421D01*
X114209447Y-80806357D01*
X114204976Y-80821582D01*
X114184500Y-80964001D01*
X114184500Y-82850500D01*
X114164815Y-82917539D01*
X114112011Y-82963294D01*
X114060500Y-82974500D01*
X113978729Y-82974500D01*
X113960747Y-82974820D01*
X113954826Y-82975031D01*
X113951856Y-82975138D01*
X113941852Y-82975674D01*
X113933846Y-82976103D01*
X113933839Y-82976104D01*
X113793262Y-83006683D01*
X113793259Y-83006684D01*
X113727796Y-83031099D01*
X113727786Y-83031103D01*
X113727780Y-83031106D01*
X113709277Y-83041208D01*
X113693199Y-83048550D01*
X113682529Y-83052530D01*
X113670064Y-83057179D01*
X113626728Y-83064999D01*
X112335865Y-83064999D01*
X112322606Y-83064288D01*
X112306241Y-83062528D01*
X112241690Y-83035788D01*
X112201844Y-82978394D01*
X112195500Y-82939239D01*
X112195500Y-79517330D01*
X112192600Y-79463269D01*
X112192600Y-79463261D01*
X112189763Y-79436890D01*
X112181099Y-79383455D01*
X112179454Y-79375897D01*
X112167468Y-79341940D01*
X112137503Y-79257040D01*
X112127597Y-79237261D01*
X112114470Y-79181734D01*
X112114470Y-79002152D01*
X112114469Y-79002152D01*
X111977794Y-79002996D01*
X111921856Y-78990047D01*
X111911766Y-78985034D01*
X111903344Y-78978733D01*
X111852913Y-78955719D01*
X111851060Y-78954873D01*
X111851044Y-78954865D01*
X111740526Y-78904405D01*
X111735192Y-78902839D01*
X111725527Y-78900001D01*
X111687588Y-78891747D01*
X111655045Y-78884667D01*
X111620110Y-78879645D01*
X111548172Y-78874500D01*
X111548170Y-78874500D01*
X108932695Y-78874500D01*
X108932664Y-78874500D01*
X108878529Y-78877410D01*
X108852108Y-78880257D01*
X108852103Y-78880258D01*
X108798643Y-78888938D01*
X108798640Y-78888938D01*
X108792706Y-78890232D01*
X108792705Y-78890231D01*
X108792324Y-78890315D01*
X108790733Y-78890663D01*
X108790718Y-78890667D01*
X108672043Y-78932646D01*
X108617171Y-78960163D01*
X108576116Y-78987653D01*
X108553914Y-78994628D01*
X108533482Y-79005785D01*
X108521202Y-79004906D01*
X108509459Y-79008596D01*
X108487007Y-79002460D01*
X108463791Y-79000799D01*
X108446617Y-78991421D01*
X108442061Y-78990176D01*
X108432814Y-78983884D01*
X108420196Y-78974438D01*
X108415009Y-78970335D01*
X108412182Y-78967973D01*
X108408640Y-78965786D01*
X108302343Y-78886212D01*
X108302332Y-78886204D01*
X108302330Y-78886203D01*
X108302328Y-78886202D01*
X108167482Y-78835908D01*
X108167483Y-78835908D01*
X108107883Y-78829501D01*
X108107881Y-78829500D01*
X108107873Y-78829500D01*
X108107864Y-78829500D01*
X108106841Y-78829500D01*
X107112123Y-78829500D01*
X107110192Y-78829659D01*
X107108545Y-78829885D01*
X107052516Y-78835908D01*
X106933611Y-78880257D01*
X106917666Y-78886204D01*
X106917665Y-78886205D01*
X106802457Y-78972450D01*
X106796188Y-78978720D01*
X106796093Y-78978625D01*
X106778057Y-78996660D01*
X106759690Y-79010409D01*
X106707766Y-79033104D01*
X106704546Y-79033695D01*
X106694793Y-79034613D01*
X106694225Y-79034825D01*
X106693716Y-79034714D01*
X106682928Y-79035730D01*
X103302595Y-79056628D01*
X103267632Y-79051821D01*
X103252606Y-79047510D01*
X103237549Y-79037965D01*
X103220414Y-79033050D01*
X103193600Y-79010107D01*
X103192535Y-79008894D01*
X103164657Y-78953836D01*
X103162912Y-78945933D01*
X103160000Y-78919217D01*
X103160000Y-75241829D01*
X103165023Y-75206893D01*
X103169427Y-75191895D01*
X103179057Y-75176904D01*
X103184067Y-75159824D01*
X103207172Y-75133144D01*
X103208541Y-75131957D01*
X103263420Y-75104477D01*
X103270979Y-75102833D01*
X103297332Y-75100000D01*
X111551573Y-75100000D01*
X111586505Y-75105021D01*
G37*
%TD.AperFunction*%
%TD*%
%TA.AperFunction,Conductor*%
%TO.N,GND*%
G36*
X111583106Y-79385023D02*
G01*
X111598104Y-79389427D01*
X111613094Y-79399057D01*
X111630175Y-79404067D01*
X111656855Y-79427172D01*
X111658042Y-79428541D01*
X111685518Y-79483402D01*
X111687163Y-79490960D01*
X111690000Y-79517331D01*
X111690000Y-83329209D01*
X111678794Y-83380722D01*
X111634663Y-83477351D01*
X111634662Y-83477355D01*
X111614977Y-83544394D01*
X111614976Y-83544398D01*
X111594500Y-83686814D01*
X111594500Y-84356000D01*
X111594501Y-84356009D01*
X111606052Y-84463450D01*
X111606054Y-84463462D01*
X111617260Y-84514972D01*
X111651385Y-84617502D01*
X111651386Y-84617504D01*
X111670314Y-84646955D01*
X111690000Y-84713994D01*
X111690000Y-84855000D01*
X111802138Y-84855000D01*
X111869177Y-84874685D01*
X111883339Y-84885286D01*
X111883660Y-84885564D01*
X111883661Y-84885565D01*
X111883664Y-84885567D01*
X112014541Y-84945338D01*
X112081580Y-84965023D01*
X112081584Y-84965024D01*
X112224000Y-84985500D01*
X117946000Y-84985500D01*
X118013039Y-85005185D01*
X118058794Y-85057989D01*
X118070000Y-85109500D01*
X118070000Y-92100706D01*
X118069999Y-92100712D01*
X118070000Y-92100715D01*
X118064975Y-92135650D01*
X118060570Y-92150648D01*
X118022827Y-92209392D01*
X118021443Y-92210592D01*
X117966616Y-92238060D01*
X117959091Y-92239700D01*
X117932763Y-92242544D01*
X93861913Y-92257458D01*
X93861913Y-92257459D01*
X93861912Y-92257458D01*
X93861906Y-92257459D01*
X93826974Y-92252460D01*
X93815723Y-92249164D01*
X93811971Y-92248065D01*
X93753169Y-92210331D01*
X93753165Y-92210326D01*
X93751992Y-92208974D01*
X93724494Y-92154099D01*
X93722840Y-92146504D01*
X93720000Y-92120118D01*
X93720000Y-84001824D01*
X93721869Y-83980375D01*
X93723506Y-83971054D01*
X93724905Y-83968224D01*
X93725022Y-83966893D01*
X93726305Y-83962523D01*
X93727276Y-83962808D01*
X93731379Y-83946735D01*
X93730687Y-83946477D01*
X93731748Y-83943631D01*
X93732391Y-83942771D01*
X93732849Y-83940978D01*
X93734087Y-83938268D01*
X93735334Y-83938838D01*
X93744277Y-83926888D01*
X93747157Y-83917103D01*
X93752476Y-83912498D01*
X93754490Y-83908430D01*
X93761020Y-83904514D01*
X93770020Y-83892487D01*
X93769123Y-83891452D01*
X93770179Y-83890536D01*
X93772158Y-83889630D01*
X93773610Y-83887691D01*
X93773647Y-83887664D01*
X93776086Y-83885839D01*
X93777198Y-83887325D01*
X93786454Y-83883092D01*
X93799988Y-83871380D01*
X93833593Y-83861534D01*
X93833716Y-83861478D01*
X93835300Y-83861250D01*
X93852870Y-83860000D01*
X93891573Y-83860000D01*
X93926505Y-83865021D01*
X93951749Y-83872434D01*
X94004495Y-83903730D01*
X94144085Y-84043320D01*
X94144106Y-84043342D01*
X94145149Y-84044385D01*
X94149479Y-84048715D01*
X94149480Y-84048716D01*
X94261284Y-84160520D01*
X94261285Y-84160521D01*
X94261287Y-84160522D01*
X94341054Y-84206574D01*
X94341057Y-84206576D01*
X94348096Y-84210640D01*
X94348097Y-84210641D01*
X94382128Y-84230289D01*
X94398215Y-84239577D01*
X94550943Y-84280501D01*
X94550946Y-84280501D01*
X94716653Y-84280501D01*
X94718557Y-84280501D01*
X94718620Y-84280500D01*
X102341171Y-84280500D01*
X102376106Y-84285523D01*
X102391104Y-84289927D01*
X102449855Y-84327672D01*
X102449879Y-84327700D01*
X102449882Y-84327702D01*
X102449883Y-84327704D01*
X102451042Y-84329041D01*
X102478518Y-84383902D01*
X102480163Y-84391460D01*
X102483000Y-84417831D01*
X102483000Y-85816376D01*
X102483159Y-85818306D01*
X102483385Y-85819954D01*
X102489407Y-85875982D01*
X102489408Y-85875984D01*
X102539701Y-86010827D01*
X102539702Y-86010828D01*
X102539703Y-86010830D01*
X102539704Y-86010831D01*
X102574579Y-86057419D01*
X102574580Y-86057420D01*
X102574583Y-86057424D01*
X102591496Y-86088398D01*
X102602181Y-86117045D01*
X102610000Y-86160379D01*
X102610000Y-86450000D01*
X103218171Y-86450000D01*
X103253106Y-86455023D01*
X103268104Y-86459427D01*
X103326855Y-86497172D01*
X103326879Y-86497200D01*
X103326882Y-86497202D01*
X103326883Y-86497204D01*
X103328042Y-86498541D01*
X103355518Y-86553402D01*
X103357163Y-86560960D01*
X103360000Y-86587331D01*
X103360000Y-87474413D01*
X103358030Y-87496430D01*
X103354152Y-87517924D01*
X103348305Y-87539237D01*
X103332908Y-87580517D01*
X103326501Y-87640116D01*
X103326500Y-87640135D01*
X103326500Y-88599870D01*
X103326501Y-88599876D01*
X103332908Y-88659481D01*
X103332909Y-88659483D01*
X103339376Y-88676824D01*
X103339377Y-88676826D01*
X103348303Y-88700757D01*
X103354150Y-88722071D01*
X103358029Y-88743568D01*
X103360000Y-88765587D01*
X103360000Y-89029999D01*
X103360000Y-89030000D01*
X103640947Y-89029410D01*
X103663091Y-89031357D01*
X103684706Y-89035234D01*
X103706144Y-89041103D01*
X103719517Y-89046091D01*
X103779127Y-89052500D01*
X104680872Y-89052499D01*
X104740483Y-89046091D01*
X104760512Y-89038620D01*
X104781687Y-89032799D01*
X104783197Y-89032524D01*
X104803047Y-89028921D01*
X104824921Y-89026927D01*
X105143617Y-89026260D01*
X105165759Y-89028207D01*
X105175753Y-89029999D01*
X105187371Y-89032082D01*
X105208807Y-89037950D01*
X105332517Y-89084091D01*
X105392127Y-89090500D01*
X106387872Y-89090499D01*
X106447483Y-89084091D01*
X106579641Y-89034799D01*
X106592536Y-89030777D01*
X106602545Y-89028245D01*
X106604470Y-89028317D01*
X106607481Y-89027772D01*
X106607481Y-89027777D01*
X106615044Y-89025759D01*
X106624245Y-89024417D01*
X106641868Y-89023119D01*
X106771102Y-89022848D01*
X106806042Y-89027797D01*
X106835316Y-89036327D01*
X106874932Y-89056105D01*
X106954664Y-89115793D01*
X106954671Y-89115797D01*
X107089517Y-89166091D01*
X107089516Y-89166091D01*
X107096444Y-89166835D01*
X107149127Y-89172500D01*
X107988174Y-89172499D01*
X108023106Y-89177521D01*
X108038103Y-89181925D01*
X108096855Y-89219670D01*
X108098042Y-89221039D01*
X108125519Y-89275903D01*
X108127164Y-89283462D01*
X108130000Y-89309830D01*
X108130000Y-90720000D01*
X108558037Y-90720000D01*
X108574773Y-90721135D01*
X108577430Y-90721496D01*
X108602784Y-90726071D01*
X108602965Y-90725307D01*
X108610516Y-90727091D01*
X108617444Y-90727835D01*
X108670127Y-90733500D01*
X109629872Y-90733499D01*
X109689483Y-90727091D01*
X109689485Y-90727090D01*
X109689487Y-90727090D01*
X109689490Y-90727089D01*
X109694635Y-90726536D01*
X109697210Y-90726071D01*
X109697211Y-90726072D01*
X109710760Y-90723627D01*
X109719950Y-90721970D01*
X109741964Y-90720000D01*
X110200000Y-90720000D01*
X110200000Y-87133769D01*
X110199999Y-87133769D01*
X110194403Y-87133814D01*
X108947531Y-87144034D01*
X108947531Y-87144035D01*
X108947530Y-87144034D01*
X108947526Y-87144035D01*
X108912556Y-87139300D01*
X108903560Y-87136738D01*
X108897522Y-87135019D01*
X108895534Y-87133765D01*
X108838445Y-87097740D01*
X108837399Y-87096553D01*
X108809390Y-87041496D01*
X108807622Y-87033551D01*
X108804666Y-87006791D01*
X108804580Y-86937876D01*
X108804580Y-86937875D01*
X108803714Y-86242135D01*
X111849500Y-86242135D01*
X111849500Y-86937875D01*
X111849659Y-86939806D01*
X111849885Y-86941454D01*
X111855907Y-86997482D01*
X111864433Y-87020340D01*
X111906202Y-87132328D01*
X111906206Y-87132335D01*
X111908216Y-87135020D01*
X111992450Y-87247542D01*
X111992452Y-87247544D01*
X111992455Y-87247547D01*
X112107664Y-87333793D01*
X112107671Y-87333797D01*
X112242517Y-87384091D01*
X112242516Y-87384091D01*
X112249444Y-87384835D01*
X112302127Y-87390500D01*
X113697872Y-87390499D01*
X113757483Y-87384091D01*
X113892331Y-87333796D01*
X114007546Y-87247546D01*
X114093796Y-87132331D01*
X114144091Y-86997483D01*
X114150500Y-86937873D01*
X114150499Y-86242128D01*
X114144091Y-86182517D01*
X114144087Y-86182507D01*
X114130483Y-86146033D01*
X114130473Y-86146006D01*
X114093797Y-86047671D01*
X114093793Y-86047664D01*
X114007547Y-85932455D01*
X114007544Y-85932452D01*
X114007542Y-85932450D01*
X113932113Y-85875984D01*
X113892335Y-85846206D01*
X113892332Y-85846204D01*
X113892330Y-85846203D01*
X113892328Y-85846202D01*
X113757482Y-85795908D01*
X113757483Y-85795908D01*
X113697883Y-85789501D01*
X113697881Y-85789500D01*
X113697873Y-85789500D01*
X113697864Y-85789500D01*
X113696841Y-85789500D01*
X112302123Y-85789500D01*
X112300192Y-85789659D01*
X112298545Y-85789885D01*
X112242516Y-85795908D01*
X112178046Y-85819954D01*
X112107666Y-85846204D01*
X112107665Y-85846205D01*
X111992456Y-85932450D01*
X111992450Y-85932456D01*
X111906205Y-86047665D01*
X111906201Y-86047671D01*
X111906200Y-86047673D01*
X111855911Y-86182507D01*
X111855908Y-86182520D01*
X111849501Y-86242116D01*
X111849501Y-86242123D01*
X111849500Y-86242135D01*
X108803714Y-86242135D01*
X108803710Y-86238960D01*
X108795345Y-79521983D01*
X108800323Y-79487049D01*
X108804708Y-79472043D01*
X108842404Y-79413218D01*
X108843775Y-79412027D01*
X108898642Y-79384512D01*
X108900454Y-79384116D01*
X108906273Y-79382848D01*
X108932695Y-79380000D01*
X111548170Y-79380000D01*
X111583106Y-79385023D01*
G37*
%TD.AperFunction*%
%TD*%
%TA.AperFunction,Conductor*%
%TO.N,12V*%
G36*
X117376442Y-80859685D02*
G01*
X117397084Y-80876319D01*
X118683681Y-82162916D01*
X118717166Y-82224239D01*
X118720000Y-82250597D01*
X118720000Y-84356000D01*
X118700315Y-84423039D01*
X118647511Y-84468794D01*
X118596000Y-84480000D01*
X112224000Y-84480000D01*
X112156961Y-84460315D01*
X112111206Y-84407511D01*
X112100000Y-84356000D01*
X112100000Y-83686814D01*
X112119685Y-83619775D01*
X112172489Y-83574020D01*
X112237256Y-83563525D01*
X112242515Y-83564090D01*
X112242517Y-83564091D01*
X112302127Y-83570500D01*
X113697872Y-83570499D01*
X113757483Y-83564091D01*
X113892331Y-83513796D01*
X113904439Y-83504732D01*
X113969904Y-83480316D01*
X113978749Y-83480000D01*
X114690000Y-83480000D01*
X114690000Y-80964000D01*
X114709685Y-80896961D01*
X114762489Y-80851206D01*
X114814000Y-80840000D01*
X117309403Y-80840000D01*
X117376442Y-80859685D01*
G37*
%TD.AperFunction*%
%TD*%
%TA.AperFunction,Conductor*%
%TO.N,3.3V*%
G36*
X102193106Y-75035023D02*
G01*
X102208104Y-75039427D01*
X102223094Y-75049057D01*
X102240175Y-75054067D01*
X102266855Y-75077172D01*
X102268042Y-75078541D01*
X102295518Y-75133402D01*
X102297163Y-75140960D01*
X102300000Y-75167331D01*
X102300000Y-83178170D01*
X102294975Y-83213114D01*
X102290570Y-83228112D01*
X102280939Y-83243101D01*
X102275932Y-83260175D01*
X102252827Y-83286855D01*
X102251458Y-83288042D01*
X102196597Y-83315518D01*
X102189039Y-83317163D01*
X102162668Y-83320000D01*
X98120000Y-83320000D01*
X93861830Y-83320000D01*
X93826889Y-83314975D01*
X93811890Y-83310570D01*
X93796902Y-83300940D01*
X93779824Y-83295932D01*
X93753144Y-83272827D01*
X93751957Y-83271458D01*
X93724477Y-83216583D01*
X93722832Y-83209021D01*
X93720000Y-83182668D01*
X93720000Y-75171829D01*
X93725023Y-75136893D01*
X93729427Y-75121895D01*
X93739057Y-75106904D01*
X93744067Y-75089824D01*
X93767172Y-75063144D01*
X93768541Y-75061957D01*
X93823420Y-75034477D01*
X93830979Y-75032833D01*
X93857332Y-75030000D01*
X102158170Y-75030000D01*
X102193106Y-75035023D01*
G37*
%TD.AperFunction*%
%TD*%
M02*
